SplineFontDB: 3.0
FontName: Entypo
FullName: Entypo
FamilyName: Entypo
Weight: Book
Copyright: Creative Commons CC BY-SA 2012
Version: 2.000
ItalicAngle: 0
UnderlinePosition: -102.4
UnderlineWidth: 0
Ascent: 768
Descent: 256
sfntRevision: 0x00020000
LayerCount: 2
Layer: 0 1 "Back"  1
Layer: 1 1 "Fore"  0
XUID: [1021 457 42499402 2309196]
FSType: 4
OS2Version: 3
OS2_WeightWidthSlopeOnly: 0
OS2_UseTypoMetrics: 1
CreationTime: 1350708420
ModificationTime: 1392301969
PfmFamily: 81
TTFWeight: 400
TTFWidth: 5
LineGap: 0
VLineGap: 0
Panose: 0 0 0 0 0 0 0 0 0 0
OS2TypoAscent: 768
OS2TypoAOffset: 0
OS2TypoDescent: -256
OS2TypoDOffset: 0
OS2TypoLinegap: 0
OS2WinAscent: 513
OS2WinAOffset: 0
OS2WinDescent: 1
OS2WinDOffset: 0
HheadAscent: 767
HheadAOffset: 0
HheadDescent: -255
HheadDOffset: 0
OS2SubXSize: 717
OS2SubYSize: 666
OS2SubXOff: 0
OS2SubYOff: 143
OS2SupXSize: 717
OS2SupYSize: 666
OS2SupXOff: 0
OS2SupYOff: 488
OS2StrikeYSize: 51
OS2StrikeYPos: 256
OS2Vendor: 'DB  '
OS2CodePages: 80000000.00000000
OS2UnicodeRanges: 00000000.00000000.00000000.00000000
MarkAttachClasses: 1
DEI: 91125
TtTable: prep
PUSHW_1
 0
CALL
SVTCA[y-axis]
PUSHW_3
 1
 5
 2
CALL
SVTCA[x-axis]
PUSHW_3
 6
 5
 2
CALL
SVTCA[x-axis]
PUSHW_8
 6
 110
 90
 70
 55
 28
 0
 8
CALL
PUSHW_8
 7
 184
 150
 117
 80
 46
 0
 8
CALL
PUSHW_8
 8
 158
 121
 94
 80
 46
 0
 8
CALL
PUSHW_8
 9
 138
 121
 94
 55
 46
 0
 8
CALL
PUSHW_8
 10
 50
 41
 32
 23
 12
 0
 8
CALL
SVTCA[y-axis]
PUSHW_8
 1
 110
 90
 70
 55
 28
 0
 8
CALL
PUSHW_8
 2
 184
 150
 117
 80
 46
 0
 8
CALL
PUSHW_8
 3
 79
 65
 50
 36
 28
 0
 8
CALL
PUSHW_8
 4
 44
 33
 26
 19
 12
 0
 8
CALL
PUSHW_8
 5
 37
 33
 26
 19
 12
 0
 8
CALL
SVTCA[y-axis]
PUSHW_3
 11
 3
 7
CALL
PUSHW_1
 0
DUP
RCVT
RDTG
ROUND[Black]
RTG
WCVTP
EndTTInstrs
TtTable: fpgm
PUSHW_1
 0
FDEF
MPPEM
PUSHW_1
 9
LT
IF
PUSHB_2
 1
 1
INSTCTRL
EIF
PUSHW_1
 511
SCANCTRL
PUSHW_1
 68
SCVTCI
PUSHW_2
 9
 3
SDS
SDB
ENDF
PUSHW_1
 1
FDEF
DUP
DUP
RCVT
ROUND[Black]
WCVTP
PUSHB_1
 1
ADD
ENDF
PUSHW_1
 2
FDEF
PUSHW_1
 1

StartChar: paus
Encoding: 8214 8214 3
Width: 373
GlyphClass: 2
Flags: W
LayerCount: 2
Fore
SplineSet
276 435 m 0,0,1
 294 435 294 435 308.5 428.5 c 128,-1,2
 323 422 323 422 323 402 c 2,3,-1
 323 111 l 2,4,5
 323 92 323 92 309 84.5 c 128,-1,6
 295 77 295 77 276 77 c 0,7,8
 257 77 257 77 243.5 84 c 128,-1,9
 230 91 230 91 230 111 c 2,10,-1
 230 402 l 2,11,12
 230 421 230 421 243.5 428 c 128,-1,13
 257 435 257 435 276 435 c 0,0,1
97 435 m 0,14,15
 115 435 115 435 129 428.5 c 128,-1,16
 143 422 143 422 143 402 c 2,17,-1
 143 111 l 2,18,19
 143 92 143 92 129.5 84.5 c 128,-1,20
 116 77 116 77 97 77 c 0,21,22
 78 77 78 77 64.5 84 c 128,-1,23
 51 91 51 91 51 111 c 2,24,-1
 51 402 l 2,25,26
 51 421 51 421 64.5 428 c 128,-1,27
 78 435 78 435 97 435 c 0,14,15
EndSplineSet
EndChar

StartChar: info
Encoding: 8505 8505 4
Width: 337
GlyphClass: 2
Flags: W
LayerCount: 2
Fore
SplineSet
231 512 m 0,0,1
 257 512 257 512 270 497.5 c 128,-1,2
 283 483 283 483 283 463 c 0,3,4
 283 437 283 437 263.5 417.5 c 128,-1,5
 244 398 244 398 214 398 c 0,6,7
 189 398 189 398 176 411.5 c 128,-1,8
 163 425 163 425 164 449 c 0,9,10
 164 459 164 459 168 470 c 128,-1,11
 172 481 172 481 180.5 490.5 c 128,-1,12
 189 500 189 500 201.5 506 c 128,-1,13
 214 512 214 512 231 512 c 0,0,1
126 0 m 0,14,15
 116 0 116 0 107.5 4 c 128,-1,16
 99 8 99 8 94.5 18 c 128,-1,17
 90 28 90 28 90.5 45.5 c 128,-1,18
 91 63 91 63 98 91 c 2,19,-1
 129 221 l 2,20,21
 136 250 136 250 129 250 c 0,22,23
 123 250 123 250 102 241 c 128,-1,24
 81 232 81 232 65 221 c 1,25,-1
 51 244 l 1,26,27
 76 266 76 266 101.5 282 c 128,-1,28
 127 298 127 298 150.5 309.5 c 128,-1,29
 174 321 174 321 193.5 327 c 128,-1,30
 213 333 213 333 225 333 c 0,31,32
 245 333 245 333 249.5 310.5 c 128,-1,33
 254 288 254 288 244 250 c 2,34,-1
 208 114 l 2,35,36
 203 96 203 96 204.5 88.5 c 128,-1,37
 206 81 206 81 211 81 c 0,38,39
 217 81 217 81 234.5 88.5 c 128,-1,40
 252 96 252 96 271 112 c 1,41,-1
 287 91 l 1,42,43
 239 42 239 42 192.5 21 c 128,-1,44
 146 0 146 0 126 0 c 0,14,15
EndSplineSet
EndChar

StartChar: left-thin
Encoding: 8592 8592 5
Width: 604
GlyphClass: 2
Flags: W
LayerCount: 2
Fore
SplineSet
174 128 m 1,0,-1
 51 256 l 1,1,-1
 174 384 l 1,2,-1
 174 302 l 1,3,-1
 553 302 l 1,4,-1
 553 211 l 1,5,-1
 174 211 l 1,6,-1
 174 128 l 1,7,-1
 174 128 l 1,0,-1
EndSplineSet
EndChar

StartChar: up-thin
Encoding: 8593 8593 6
Width: 358
GlyphClass: 2
Flags: W
LayerCount: 2
Fore
SplineSet
307 385 m 1,0,-1
 224 385 l 1,1,-1
 224 5 l 1,2,-1
 134 5 l 1,3,-1
 134 385 l 1,4,-1
 51 385 l 1,5,-1
 179 507 l 1,6,-1
 307 385 l 1,7,-1
 307 385 l 1,0,-1
EndSplineSet
EndChar

StartChar: right-thin
Encoding: 8594 8594 7
Width: 604
GlyphClass: 2
Flags: W
LayerCount: 2
Fore
SplineSet
431 128 m 1,0,-1
 431 211 l 1,1,-1
 51 211 l 1,2,-1
 51 302 l 1,3,-1
 431 302 l 1,4,-1
 431 384 l 1,5,-1
 553 256 l 1,6,-1
 431 128 l 1,7,-1
 431 128 l 1,0,-1
EndSplineSet
EndChar

StartChar: down-thin
Encoding: 8595 8595 8
Width: 358
GlyphClass: 2
Flags: W
LayerCount: 2
Fore
SplineSet
307 128 m 1,0,-1
 179 5 l 1,1,-1
 51 128 l 1,2,-1
 134 128 l 1,3,-1
 134 507 l 1,4,-1
 224 507 l 1,5,-1
 224 128 l 1,6,-1
 307 128 l 1,7,-1
 307 128 l 1,0,-1
EndSplineSet
EndChar

StartChar: level-up
Encoding: 8624 8624 9
Width: 537
GlyphClass: 2
Flags: W
LayerCount: 2
Fore
SplineSet
154 210 m 1,0,-1
 51 292 l 1,1,-1
 154 379 l 1,2,-1
 154 328 l 1,3,-1
 435 328 l 2,4,5
 455 328 455 328 470.5 313 c 128,-1,6
 486 298 486 298 486 276 c 2,7,-1
 486 133 l 1,8,-1
 415 133 l 1,9,-1
 415 256 l 1,10,-1
 154 256 l 1,11,-1
 154 210 l 1,0,-1
EndSplineSet
EndChar

StartChar: level-down
Encoding: 8627 8627 10
Width: 483
GlyphClass: 2
Flags: W
LayerCount: 2
Fore
SplineSet
102 179 m 1,0,1
 80 179 80 179 65.5 194.5 c 128,-1,2
 51 210 51 210 51 230 c 2,3,-1
 51 410 l 1,4,-1
 123 410 l 1,5,-1
 123 251 l 1,6,-1
 309 251 l 1,7,-1
 309 328 l 1,8,-1
 432 215 l 1,9,-1
 309 102 l 1,10,-1
 309 179 l 1,11,-1
 102 179 l 1,12,-1
 102 179 l 1,0,1
EndSplineSet
EndChar

StartChar: switch
Encoding: 8646 8646 11
Width: 614
GlyphClass: 2
Flags: W
LayerCount: 2
Fore
SplineSet
410 380 m 1,0,-1
 410 308 l 1,1,-1
 154 308 l 1,2,-1
 154 262 l 1,3,-1
 51 344 l 1,4,-1
 154 431 l 1,5,-1
 154 380 l 1,6,-1
 410 380 l 1,0,-1
563 165 m 1,7,-1
 461 83 l 1,8,-1
 461 129 l 1,9,-1
 205 129 l 1,10,-1
 205 201 l 1,11,-1
 461 201 l 1,12,-1
 461 252 l 1,13,-1
 563 165 l 1,7,-1
EndSplineSet
EndChar

StartChar: infinity
Encoding: 8734 8734 12
Width: 614
GlyphClass: 2
Flags: W
LayerCount: 2
Fore
SplineSet
459 369 m 0,0,1
 477 369 477 369 496 363 c 128,-1,2
 515 357 515 357 530 344 c 128,-1,3
 545 331 545 331 554 309.5 c 128,-1,4
 563 288 563 288 563 256 c 0,5,6
 563 225 563 225 554 203.5 c 128,-1,7
 545 182 545 182 530 169 c 128,-1,8
 515 156 515 156 496 149.5 c 128,-1,9
 477 143 477 143 459 143 c 0,10,11
 419 143 419 143 378 163.5 c 128,-1,12
 337 184 337 184 307 218 c 1,13,14
 277 184 277 184 237 163.5 c 128,-1,15
 197 143 197 143 157 143 c 0,16,17
 138 143 138 143 118.5 149.5 c 128,-1,18
 99 156 99 156 84.5 169 c 128,-1,19
 70 182 70 182 60.5 203.5 c 128,-1,20
 51 225 51 225 51 256 c 0,21,22
 51 288 51 288 60.5 309.5 c 128,-1,23
 70 331 70 331 84.5 344 c 128,-1,24
 99 357 99 357 118 363 c 128,-1,25
 137 369 137 369 157 369 c 0,26,27
 197 369 197 369 237.5 349 c 128,-1,28
 278 329 278 329 307 295 c 1,29,30
 337 329 337 329 378 349 c 128,-1,31
 419 369 419 369 459 369 c 0,0,1
157 188 m 0,32,33
 189 188 189 188 222.5 207 c 128,-1,34
 256 226 256 226 280 256 c 1,35,36
 256 286 256 286 222 305 c 128,-1,37
 188 324 188 324 157 324 c 0,38,39
 99 324 99 324 98 256 c 256,40,41
 99 188 99 188 157 188 c 0,32,33
459 188 m 0,42,43
 517 188 517 188 517 256 c 256,44,45
 517 324 517 324 459 324 c 0,46,47
 426 324 426 324 392 305 c 128,-1,48
 358 286 358 286 336 256 c 1,49,50
 359 226 359 226 392.5 207 c 128,-1,51
 426 188 426 188 459 188 c 0,42,43
EndSplineSet
EndChar

StartChar: circled-plus
Encoding: 8853 8853 13
Width: 532
GlyphClass: 2
Flags: W
LayerCount: 2
Fore
SplineSet
266 471 m 0,0,1
 310 471 310 471 349.5 454 c 128,-1,2
 389 437 389 437 418 408 c 128,-1,3
 447 379 447 379 464 339.5 c 128,-1,4
 481 300 481 300 481 256 c 0,5,6
 481 211 481 211 464 172 c 128,-1,7
 447 133 447 133 418 104 c 128,-1,8
 389 75 389 75 349.5 58 c 128,-1,9
 310 41 310 41 266 41 c 0,10,11
 221 41 221 41 182 58 c 128,-1,12
 143 75 143 75 114 104 c 128,-1,13
 85 133 85 133 68 172 c 128,-1,14
 51 211 51 211 51 256 c 0,15,16
 51 300 51 300 68 339.5 c 128,-1,17
 85 379 85 379 114 408 c 128,-1,18
 143 437 143 437 182 454 c 128,-1,19
 221 471 221 471 266 471 c 0,0,1
395 230 m 1,20,-1
 395 283 l 1,21,-1
 293 283 l 1,22,-1
 293 386 l 1,23,-1
 241 386 l 1,24,-1
 241 283 l 1,25,-1
 137 283 l 1,26,-1
 137 230 l 1,27,-1
 241 230 l 1,28,-1
 241 127 l 1,29,-1
 293 127 l 1,30,-1
 293 230 l 1,31,-1
 395 230 l 1,20,-1
EndSplineSet
EndChar

StartChar: circled-minus
Encoding: 8854 8854 14
Width: 532
GlyphClass: 2
Flags: W
LayerCount: 2
Fore
SplineSet
266 471 m 0,0,1
 310 471 310 471 349.5 454 c 128,-1,2
 389 437 389 437 418 408 c 128,-1,3
 447 379 447 379 464 339.5 c 128,-1,4
 481 300 481 300 481 256 c 0,5,6
 481 211 481 211 464 172 c 128,-1,7
 447 133 447 133 418 104 c 128,-1,8
 389 75 389 75 349.5 58 c 128,-1,9
 310 41 310 41 266 41 c 0,10,11
 221 41 221 41 182 58 c 128,-1,12
 143 75 143 75 114 104 c 128,-1,13
 85 133 85 133 68 172 c 128,-1,14
 51 211 51 211 51 256 c 0,15,16
 51 300 51 300 68 339.5 c 128,-1,17
 85 379 85 379 114 408 c 128,-1,18
 143 437 143 437 182 454 c 128,-1,19
 221 471 221 471 266 471 c 0,0,1
137 283 m 1,20,-1
 137 230 l 1,21,-1
 395 230 l 1,22,-1
 395 283 l 1,23,-1
 137 283 l 1,20,-1
EndSplineSet
EndChar

StartChar: squared-plus
Encoding: 8862 8862 15
Width: 512
GlyphClass: 2
Flags: W
LayerCount: 2
Fore
SplineSet
410 461 m 2,0,1
 432 461 432 461 446.5 446 c 128,-1,2
 461 431 461 431 461 410 c 2,3,-1
 461 102 l 2,4,5
 461 82 461 82 446 66.5 c 128,-1,6
 431 51 431 51 410 51 c 2,7,-1
 102 51 l 2,8,9
 82 51 82 51 66.5 66.5 c 128,-1,10
 51 82 51 82 51 102 c 2,11,-1
 51 410 l 2,12,13
 51 432 51 432 66.5 446.5 c 128,-1,14
 82 461 82 461 102 461 c 2,15,-1
 410 461 l 2,0,1
384 282 m 1,16,-1
 282 282 l 1,17,-1
 282 384 l 1,18,-1
 230 384 l 1,19,-1
 230 282 l 1,20,-1
 128 282 l 1,21,-1
 128 230 l 1,22,-1
 230 230 l 1,23,-1
 230 128 l 1,24,-1
 282 128 l 1,25,-1
 282 230 l 1,26,-1
 384 230 l 1,27,-1
 384 282 l 1,16,-1
EndSplineSet
EndChar

StartChar: squared-minus
Encoding: 8863 8863 16
Width: 512
GlyphClass: 2
Flags: W
LayerCount: 2
Fore
SplineSet
410 461 m 2,0,1
 432 461 432 461 446.5 446 c 128,-1,2
 461 431 461 431 461 410 c 2,3,-1
 461 102 l 2,4,5
 461 82 461 82 446 66.5 c 128,-1,6
 431 51 431 51 410 51 c 2,7,-1
 102 51 l 2,8,9
 82 51 82 51 66.5 66.5 c 128,-1,10
 51 82 51 82 51 102 c 2,11,-1
 51 410 l 2,12,13
 51 432 51 432 66.5 446.5 c 128,-1,14
 82 461 82 461 102 461 c 2,15,-1
 410 461 l 2,0,1
384 282 m 1,16,-1
 128 282 l 1,17,-1
 128 230 l 1,18,-1
 384 230 l 1,19,-1
 384 282 l 1,16,-1
EndSplineSet
EndChar

StartChar: home
Encoding: 8962 8962 17
Width: 564
GlyphClass: 2
Flags: W
LayerCount: 2
Fore
SplineSet
506 249 m 1,0,1
 514 241 514 241 511.5 235 c 128,-1,2
 509 229 509 229 498 229 c 2,3,-1
 455 229 l 1,4,-1
 455 71 l 2,5,6
 455 63 455 63 453 56.5 c 128,-1,7
 451 50 451 50 438 50 c 2,8,-1
 334 50 l 1,9,-1
 334 209 l 1,10,-1
 229 209 l 1,11,-1
 229 50 l 1,12,-1
 130 50 l 2,13,14
 115 50 115 50 112 56 c 128,-1,15
 109 62 109 62 109 71 c 2,16,-1
 109 229 l 1,17,-1
 66 229 l 2,18,19
 55 229 55 229 52 235 c 128,-1,20
 49 241 49 241 57 249 c 2,21,-1
 262 455 l 2,22,23
 270 463 270 463 281.5 463 c 128,-1,24
 293 463 293 463 301 455 c 2,25,-1
 506 249 l 1,26,-1
 506 249 l 1,0,1
EndSplineSet
EndChar

StartChar: keyboard
Encoding: 9000 9000 18
Width: 614
GlyphClass: 2
Flags: W
LayerCount: 2
Fore
SplineSet
527 410 m 2,0,1
 541 410 541 410 552 399 c 128,-1,2
 563 388 563 388 563 374 c 2,3,-1
 563 138 l 2,4,5
 563 123 563 123 552.5 112.5 c 128,-1,6
 542 102 542 102 527 102 c 2,7,-1
 87 102 l 2,8,9
 73 102 73 102 62 112.5 c 128,-1,10
 51 123 51 123 51 138 c 2,11,-1
 51 374 l 2,12,13
 51 388 51 388 62 399 c 128,-1,14
 73 410 73 410 87 410 c 2,15,-1
 527 410 l 2,0,1
333 307 m 1,16,-1
 384 307 l 1,17,-1
 384 358 l 1,18,-1
 333 358 l 1,19,-1
 333 307 l 1,16,-1
358 282 m 1,20,-1
 358 230 l 1,21,-1
 410 230 l 1,22,-1
 410 282 l 1,23,-1
 358 282 l 1,20,-1
256 307 m 1,24,-1
 307 307 l 1,25,-1
 307 358 l 1,26,-1
 256 358 l 1,27,-1
 256 307 l 1,24,-1
282 282 m 1,28,-1
 282 230 l 1,29,-1
 333 230 l 1,30,-1
 333 282 l 1,31,-1
 282 282 l 1,28,-1
179 307 m 1,32,-1
 230 307 l 1,33,-1
 230 358 l 1,34,-1
 179 358 l 1,35,-1
 179 307 l 1,32,-1
205 282 m 1,36,-1
 205 230 l 1,37,-1
 256 230 l 1,38,-1
 256 282 l 1,39,-1
 205 282 l 1,36,-1
102 307 m 1,40,-1
 154 307 l 1,41,-1
 154 358 l 1,42,-1
 102 358 l 1,43,-1
 102 307 l 1,40,-1
128 282 m 1,44,-1
 128 230 l 1,45,-1
 179 230 l 1,46,-1
 179 282 l 1,47,-1
 128 282 l 1,44,-1
154 205 m 1,48,-1
 102 205 l 1,49,-1
 102 154 l 1,50,-1
 154 154 l 1,51,-1
 154 205 l 1,48,-1
435 205 m 1,52,-1
 179 205 l 1,53,-1
 179 154 l 1,54,-1
 435 154 l 1,55,-1
 435 205 l 1,52,-1
512 205 m 1,56,-1
 461 205 l 1,57,-1
 461 154 l 1,58,-1
 512 154 l 1,59,-1
 512 205 l 1,56,-1
486 230 m 1,60,-1
 486 282 l 1,61,-1
 435 282 l 1,62,-1
 435 230 l 1,63,-1
 486 230 l 1,60,-1
512 358 m 1,64,-1
 410 358 l 1,65,-1
 410 307 l 1,66,-1
 512 307 l 1,67,-1
 512 358 l 1,64,-1
EndSplineSet
EndChar

StartChar: erase
Encoding: 9003 9003 19
Width: 614
GlyphClass: 2
Flags: W
LayerCount: 2
Fore
SplineSet
512 435 m 2,0,1
 534 435 534 435 548.5 420.5 c 128,-1,2
 563 406 563 406 563 384 c 2,3,-1
 563 128 l 2,4,5
 563 108 563 108 548.5 92.5 c 128,-1,6
 534 77 534 77 512 77 c 2,7,-1
 267 77 l 2,8,9
 259 77 259 77 249 81 c 128,-1,10
 239 85 239 85 231 91 c 2,11,-1
 57 243 l 2,12,13
 51 249 51 249 51 256.5 c 128,-1,14
 51 264 51 264 57 270 c 2,15,-1
 231 422 l 2,16,17
 238 428 238 428 248.5 431.5 c 128,-1,18
 259 435 259 435 267 435 c 2,19,-1
 512 435 l 2,0,1
477 191 m 1,20,-1
 412 256 l 1,21,-1
 477 322 l 1,22,-1
 440 358 l 1,23,-1
 375 294 l 1,24,-1
 309 358 l 1,25,-1
 272 322 l 1,26,-1
 338 256 l 1,27,-1
 272 191 l 1,28,-1
 309 154 l 1,29,-1
 375 219 l 1,30,-1
 440 154 l 1,31,-1
 477 191 l 1,20,-1
EndSplineSet
EndChar

StartChar: ff
Encoding: 9193 9193 20
Width: 552
GlyphClass: 2
Flags: W
LayerCount: 2
Fore
SplineSet
498 265 m 2,0,1
 502 261 502 261 502 256 c 0,2,3
 502 252 502 252 498 248 c 2,4,-1
 495 245 l 1,5,-1
 304 118 l 2,6,7
 293 110 293 110 285.5 114.5 c 128,-1,8
 278 119 278 119 278 133 c 2,9,-1
 278 380 l 2,10,11
 278 394 278 394 285.5 398.5 c 128,-1,12
 293 403 293 403 304 395 c 2,13,-1
 495 268 l 1,14,-1
 498 265 l 2,0,1
265 265 m 2,15,16
 269 261 269 261 269 256 c 0,17,18
 269 252 269 252 265 248 c 2,19,-1
 262 245 l 1,20,-1
 78 118 l 2,21,22
 67 110 67 110 59 114.5 c 128,-1,23
 51 119 51 119 51 133 c 2,24,-1
 51 380 l 2,25,26
 51 394 51 394 59 398.5 c 128,-1,27
 67 403 67 403 78 395 c 2,28,-1
 262 268 l 1,29,-1
 265 265 l 2,15,16
EndSplineSet
EndChar

StartChar: fb
Encoding: 9194 9194 21
Width: 552
GlyphClass: 2
Flags: W
LayerCount: 2
Fore
SplineSet
51 256 m 0,0,1
 51 262 51 262 54 265 c 0,2,3
 56 267 56 267 58 268 c 2,4,-1
 250 395 l 2,5,6
 261 403 261 403 268.5 398.5 c 128,-1,7
 276 394 276 394 276 380 c 2,8,-1
 276 133 l 2,9,10
 276 119 276 119 268.5 114.5 c 128,-1,11
 261 110 261 110 250 118 c 2,12,-1
 58 245 l 2,13,14
 56 246 56 246 54 248 c 0,15,16
 51 251 51 251 51 256 c 0,0,1
284 256 m 0,17,18
 284 262 284 262 287 265 c 0,19,20
 289 267 289 267 291 268 c 2,21,-1
 475 395 l 2,22,23
 486 403 486 403 494 398.5 c 128,-1,24
 502 394 502 394 502 380 c 2,25,-1
 502 133 l 2,26,27
 502 119 502 119 494 114.5 c 128,-1,28
 486 110 486 110 475 118 c 2,29,-1
 291 245 l 2,30,31
 289 246 289 246 287 248 c 0,32,33
 284 251 284 251 284 256 c 0,17,18
EndSplineSet
EndChar

StartChar: to-end
Encoding: 9197 9197 22
Width: 409
GlyphClass: 2
Flags: W
LayerCount: 2
Fore
SplineSet
265 265 m 2,0,1
 269 261 269 261 269 256 c 0,2,3
 269 252 269 252 265 248 c 2,4,-1
 262 245 l 1,5,-1
 77 128 l 2,6,7
 66 121 66 121 58.5 125.5 c 128,-1,8
 51 130 51 130 51 143 c 2,9,-1
 51 370 l 2,10,11
 51 383 51 383 58.5 387.5 c 128,-1,12
 66 392 66 392 77 385 c 2,13,-1
 262 268 l 1,14,-1
 265 265 l 2,0,1
321 406 m 256,15,16
 338 406 338 406 348 399.5 c 128,-1,17
 358 393 358 393 358 376 c 2,18,-1
 358 137 l 2,19,20
 358 120 358 120 348 114 c 128,-1,21
 338 108 338 108 321 108 c 256,22,23
 304 108 304 108 293 114 c 128,-1,24
 282 120 282 120 282 137 c 2,25,-1
 282 376 l 2,26,27
 282 393 282 393 293 399.5 c 128,-1,28
 304 406 304 406 321 406 c 256,15,16
EndSplineSet
EndChar

StartChar: to-start
Encoding: 9198 9198 23
Width: 409
GlyphClass: 2
Flags: W
LayerCount: 2
Fore
SplineSet
140 256 m 0,0,1
 140 262 140 262 143 265 c 0,2,3
 145 267 145 267 147 268 c 2,4,-1
 334 385 l 2,5,6
 344 392 344 392 351 387.5 c 128,-1,7
 358 383 358 383 358 370 c 2,8,-1
 358 143 l 2,9,10
 358 130 358 130 351 125.5 c 128,-1,11
 344 121 344 121 334 128 c 2,12,-1
 147 245 l 2,13,14
 145 246 145 246 143 248 c 0,15,16
 140 251 140 251 140 256 c 0,0,1
51 376 m 2,17,18
 51 393 51 393 62 399.5 c 128,-1,19
 73 406 73 406 90 406 c 256,20,21
 107 406 107 406 117.5 399.5 c 128,-1,22
 128 393 128 393 128 376 c 2,23,-1
 128 137 l 2,24,25
 128 120 128 120 118 114 c 128,-1,26
 108 108 108 108 90 108 c 256,27,28
 73 108 73 108 62 114 c 128,-1,29
 51 120 51 120 51 137 c 2,30,-1
 51 376 l 2,17,18
EndSplineSet
EndChar

StartChar: hourglass
Encoding: 9203 9203 24
Width: 389
GlyphClass: 2
Flags: W
LayerCount: 2
Fore
SplineSet
338 395 m 2,0,1
 338 375 338 375 322.5 356 c 128,-1,2
 307 337 307 337 288 319.5 c 128,-1,3
 269 302 269 302 254 286 c 128,-1,4
 239 270 239 270 239 256 c 256,5,6
 239 242 239 242 254 226 c 128,-1,7
 269 210 269 210 288 193 c 128,-1,8
 307 176 307 176 322.5 157 c 128,-1,9
 338 138 338 138 338 118 c 2,10,-1
 338 57 l 2,11,12
 338 49 338 49 326.5 39.5 c 128,-1,13
 315 30 315 30 295.5 21 c 128,-1,14
 276 12 276 12 250 6 c 128,-1,15
 224 0 224 0 195 0 c 256,16,17
 165 0 165 0 139 6 c 128,-1,18
 113 12 113 12 93.5 21 c 128,-1,19
 74 30 74 30 62.5 39.5 c 128,-1,20
 51 49 51 49 51 57 c 2,21,-1
 51 118 l 2,22,23
 51 138 51 138 66.5 157 c 128,-1,24
 82 176 82 176 101 193 c 128,-1,25
 120 210 120 210 135.5 226 c 128,-1,26
 151 242 151 242 151 256 c 256,27,28
 151 270 151 270 135.5 286 c 128,-1,29
 120 302 120 302 101 319.5 c 128,-1,30
 82 337 82 337 66.5 356 c 128,-1,31
 51 375 51 375 51 395 c 2,32,-1
 51 456 l 2,33,34
 51 463 51 463 62.5 472.5 c 128,-1,35
 74 482 74 482 93.5 491 c 128,-1,36
 113 500 113 500 139 506 c 128,-1,37
 165 512 165 512 195 512 c 256,38,39
 225 512 225 512 250.5 506 c 128,-1,40
 276 500 276 500 295.5 491 c 128,-1,41
 315 482 315 482 326.5 472.5 c 128,-1,42
 338 463 338 463 338 456 c 2,43,-1
 338 395 l 2,0,1
91 453 m 0,44,45
 87 451 87 451 84 447 c 0,46,47
 78 441 78 441 84 438 c 0,48,49
 100 429 100 429 129.5 420.5 c 128,-1,50
 159 412 159 412 195 412 c 0,51,52
 232 412 232 412 261.5 420 c 128,-1,53
 291 428 291 428 307 437 c 0,54,55
 314 442 314 442 307.5 446.5 c 128,-1,56
 301 451 301 451 299 453 c 0,57,58
 285 460 285 460 267 466 c 0,59,60
 253 471 253 471 234.5 475.5 c 128,-1,61
 216 480 216 480 196 480 c 0,62,63
 156 480 156 480 130 470.5 c 128,-1,64
 104 461 104 461 91 453 c 0,44,45
208 256 m 0,65,66
 208 280 208 280 224 296 c 128,-1,67
 240 312 240 312 260 333 c 0,68,69
 267 340 267 340 275.5 348 c 128,-1,70
 284 356 284 356 291 364.5 c 128,-1,71
 298 373 298 373 302.5 381 c 128,-1,72
 307 389 307 389 307 395 c 2,73,-1
 308 421 l 1,74,75
 288 410 288 410 258 401.5 c 128,-1,76
 228 393 228 393 195 393 c 256,77,78
 161 393 161 393 131 401.5 c 128,-1,79
 101 410 101 410 81 421 c 1,80,-1
 83 395 l 1,81,82
 83 382 83 382 99 364.5 c 128,-1,83
 115 347 115 347 129 333 c 0,84,85
 149 313 149 313 165.5 296.5 c 128,-1,86
 182 280 182 280 182 256 c 0,87,88
 182 233 182 233 166 216.5 c 128,-1,89
 150 200 150 200 129 180 c 0,90,91
 122 173 122 173 113.5 165 c 128,-1,92
 105 157 105 157 98.5 148 c 128,-1,93
 92 139 92 139 87.5 131.5 c 128,-1,94
 83 124 83 124 83 118 c 2,95,-1
 83 84 l 1,96,97
 92 88 92 88 108.5 93 c 128,-1,98
 125 98 125 98 141.5 105.5 c 128,-1,99
 158 113 158 113 169.5 123 c 128,-1,100
 181 133 181 133 181 147 c 0,101,102
 181 154 181 154 185 158.5 c 128,-1,103
 189 163 189 163 194.5 163 c 128,-1,104
 200 163 200 163 204 159 c 128,-1,105
 208 155 208 155 208 147 c 0,106,107
 208 133 208 133 219.5 123 c 128,-1,108
 231 113 231 113 247.5 105.5 c 128,-1,109
 264 98 264 98 281 93 c 128,-1,110
 298 88 298 88 307 84 c 1,111,-1
 307 118 l 2,112,113
 307 124 307 124 302.5 131.5 c 128,-1,114
 298 139 298 139 291 148 c 128,-1,115
 284 157 284 157 275.5 165 c 128,-1,116
 267 173 267 173 260 180 c 0,117,118
 240 199 240 199 224 216 c 128,-1,119
 208 233 208 233 208 256 c 0,65,66
EndSplineSet
EndChar

StartChar: dot
Encoding: 9204 9204 25
Width: 215
GlyphClass: 2
Flags: W
LayerCount: 2
Fore
SplineSet
108 312 m 256,0,1
 132 312 132 312 148 296 c 128,-1,2
 164 280 164 280 164 256 c 256,3,4
 164 232 164 232 147.5 216 c 128,-1,5
 131 200 131 200 108 200 c 256,6,7
 84 200 84 200 67.5 216 c 128,-1,8
 51 232 51 232 51 256 c 256,9,10
 51 280 51 280 67.5 296 c 128,-1,11
 84 312 84 312 108 312 c 256,0,1
EndSplineSet
EndChar

StartChar: two-dots
Encoding: 9205 9205 26
Width: 394
GlyphClass: 2
Flags: W
LayerCount: 2
Fore
SplineSet
108 312 m 256,0,1
 132 312 132 312 148 296 c 128,-1,2
 164 280 164 280 164 256 c 256,3,4
 164 232 164 232 147.5 216 c 128,-1,5
 131 200 131 200 108 200 c 256,6,7
 84 200 84 200 67.5 216 c 128,-1,8
 51 232 51 232 51 256 c 256,9,10
 51 280 51 280 67.5 296 c 128,-1,11
 84 312 84 312 108 312 c 256,0,1
287 312 m 256,12,13
 311 312 311 312 327 296 c 128,-1,14
 343 280 343 280 343 256 c 256,15,16
 343 232 343 232 326.5 216 c 128,-1,17
 310 200 310 200 287 200 c 256,18,19
 263 200 263 200 246.5 216 c 128,-1,20
 230 232 230 232 230 256 c 256,21,22
 230 280 230 280 246.5 296 c 128,-1,23
 263 312 263 312 287 312 c 256,12,13
EndSplineSet
EndChar

StartChar: three-dots
Encoding: 9206 9206 27
Width: 573
GlyphClass: 2
Flags: W
LayerCount: 2
Fore
SplineSet
108 312 m 256,0,1
 132 312 132 312 148 296 c 128,-1,2
 164 280 164 280 164 256 c 256,3,4
 164 232 164 232 147.5 216 c 128,-1,5
 131 200 131 200 108 200 c 256,6,7
 84 200 84 200 67.5 216 c 128,-1,8
 51 232 51 232 51 256 c 256,9,10
 51 280 51 280 67.5 296 c 128,-1,11
 84 312 84 312 108 312 c 256,0,1
287 312 m 256,12,13
 311 312 311 312 327 296 c 128,-1,14
 343 280 343 280 343 256 c 256,15,16
 343 232 343 232 326.5 216 c 128,-1,17
 310 200 310 200 287 200 c 256,18,19
 263 200 263 200 246.5 216 c 128,-1,20
 230 232 230 232 230 256 c 256,21,22
 230 280 230 280 246.5 296 c 128,-1,23
 263 312 263 312 287 312 c 256,12,13
466 312 m 256,24,25
 490 312 490 312 506 296 c 128,-1,26
 522 280 522 280 522 256 c 256,27,28
 522 232 522 232 505.5 216 c 128,-1,29
 489 200 489 200 466 200 c 256,30,31
 442 200 442 200 426 216 c 128,-1,32
 410 232 410 232 410 256 c 256,33,34
 410 280 410 280 426 296 c 128,-1,35
 442 312 442 312 466 312 c 256,24,25
EndSplineSet
EndChar

StartChar: volume
Encoding: 9207 9207 28
Width: 561
GlyphClass: 2
Flags: W
LayerCount: 2
Fore
SplineSet
510 169 m 2,0,1
 510 152 510 152 498 140 c 128,-1,2
 486 128 486 128 469 128 c 2,3,-1
 70 128 l 2,4,5
 53 128 53 128 51.5 134 c 128,-1,6
 50 140 50 140 65 148 c 2,7,-1
 475 380 l 2,8,9
 489 389 489 389 499.5 383.5 c 128,-1,10
 510 378 510 378 510 360 c 2,11,-1
 510 169 l 2,0,1
EndSplineSet
EndChar

StartChar: stop
Encoding: 9632 9632 29
Width: 409
GlyphClass: 2
Flags: W
LayerCount: 2
Fore
SplineSet
321 410 m 1,0,1
 339 410 339 410 348.5 403 c 128,-1,2
 358 396 358 396 358 377 c 2,3,-1
 358 136 l 2,4,5
 358 117 358 117 348.5 109.5 c 128,-1,6
 339 102 339 102 321 102 c 2,7,-1
 90 102 l 2,8,9
 71 102 71 102 61 109.5 c 128,-1,10
 51 117 51 117 51 136 c 2,11,-1
 51 377 l 2,12,13
 51 396 51 396 61 403 c 128,-1,14
 71 410 71 410 90 410 c 2,15,-1
 321 410 l 1,16,-1
 321 410 l 1,0,1
EndSplineSet
EndChar

StartChar: triangle-up
Encoding: 9652 9652 30
Width: 337
GlyphClass: 2
Flags: W
LayerCount: 2
Fore
SplineSet
51 154 m 1,0,-1
 169 358 l 1,1,-1
 287 154 l 1,2,-1
 51 154 l 1,3,-1
 51 154 l 1,0,-1
EndSplineSet
EndChar

StartChar: play
Encoding: 9654 9654 31
Width: 358
GlyphClass: 2
Flags: W
LayerCount: 2
Fore
SplineSet
300 269 m 1,0,1
 301 267 301 267 303 265 c 0,2,3
 307 261 307 261 307 256 c 256,4,5
 307 251 307 251 303 247 c 2,6,-1
 300 244 l 1,7,-1
 81 108 l 2,8,9
 69 100 69 100 60 105 c 128,-1,10
 51 110 51 110 51 125 c 2,11,-1
 51 388 l 2,12,13
 51 403 51 403 60 408.5 c 128,-1,14
 69 414 69 414 81 406 c 2,15,-1
 300 269 l 1,16,-1
 300 269 l 1,0,1
EndSplineSet
EndChar

StartChar: triangle-right
Encoding: 9656 9656 32
Width: 307
GlyphClass: 2
Flags: W
LayerCount: 2
Fore
SplineSet
51 374 m 1,0,-1
 256 256 l 1,1,-1
 51 138 l 1,2,-1
 51 374 l 1,3,-1
 51 374 l 1,0,-1
EndSplineSet
EndChar

StartChar: triangle-down
Encoding: 9662 9662 33
Width: 337
GlyphClass: 2
Flags: W
LayerCount: 2
Fore
SplineSet
287 358 m 1,0,-1
 169 154 l 1,1,-1
 51 358 l 1,2,-1
 287 358 l 1,3,-1
 287 358 l 1,0,-1
EndSplineSet
EndChar

StartChar: triangle-left
Encoding: 9666 9666 34
Width: 307
GlyphClass: 2
Flags: W
LayerCount: 2
Fore
SplineSet
256 374 m 1,0,-1
 256 138 l 1,1,-1
 51 256 l 1,2,-1
 256 374 l 1,3,-1
 256 374 l 1,0,-1
EndSplineSet
EndChar

StartChar: record
Encoding: 9679 9679 35
Width: 460
GlyphClass: 2
Flags: W
LayerCount: 2
Fore
SplineSet
230 435 m 256,0,1
 267 435 267 435 300 421.5 c 128,-1,2
 333 408 333 408 357.5 383 c 128,-1,3
 382 358 382 358 396 325.5 c 128,-1,4
 410 293 410 293 410 256 c 256,5,6
 410 219 410 219 396 186.5 c 128,-1,7
 382 154 382 154 357.5 129.5 c 128,-1,8
 333 105 333 105 300 91 c 128,-1,9
 267 77 267 77 230 77 c 256,10,11
 193 77 193 77 160.5 91 c 128,-1,12
 128 105 128 105 103.5 129.5 c 128,-1,13
 79 154 79 154 65 186.5 c 128,-1,14
 51 219 51 219 51 256 c 256,15,16
 51 293 51 293 65 325.5 c 128,-1,17
 79 358 79 358 103.5 383 c 128,-1,18
 128 408 128 408 160.5 421.5 c 128,-1,19
 193 435 193 435 230 435 c 256,0,1
EndSplineSet
EndChar

StartChar: adjust
Encoding: 9681 9681 36
Width: 614
GlyphClass: 2
Flags: W
LayerCount: 2
Fore
SplineSet
538 276 m 2,0,1
 549 276 549 276 556 270 c 128,-1,2
 563 264 563 264 563 256 c 0,3,4
 563 247 563 247 556 241.5 c 128,-1,5
 549 236 549 236 538 236 c 2,6,-1
 513 236 l 2,7,8
 502 236 502 236 494.5 241.5 c 128,-1,9
 487 247 487 247 487 256 c 0,10,11
 487 264 487 264 494.5 270 c 128,-1,12
 502 276 502 276 513 276 c 2,13,-1
 538 276 l 2,0,1
307 396 m 0,14,15
 336 396 336 396 362 385.5 c 128,-1,16
 388 375 388 375 407 355.5 c 128,-1,17
 426 336 426 336 437.5 310.5 c 128,-1,18
 449 285 449 285 449 256 c 0,19,20
 449 226 449 226 437.5 200.5 c 128,-1,21
 426 175 426 175 407 155.5 c 128,-1,22
 388 136 388 136 362 125.5 c 128,-1,23
 336 115 336 115 307 115 c 0,24,25
 277 115 277 115 252 125.5 c 128,-1,26
 227 136 227 136 207.5 155.5 c 128,-1,27
 188 175 188 175 177.5 200.5 c 128,-1,28
 167 226 167 226 167 256 c 0,29,30
 167 285 167 285 177.5 310.5 c 128,-1,31
 188 336 188 336 207.5 355.5 c 128,-1,32
 227 375 227 375 252 385.5 c 128,-1,33
 277 396 277 396 307 396 c 0,14,15
310 358 m 1,34,35
 287 358 287 358 268.5 350 c 128,-1,36
 250 342 250 342 235.5 328 c 128,-1,37
 221 314 221 314 213 296 c 128,-1,38
 205 278 205 278 205 256 c 256,39,40
 205 234 205 234 213 215.5 c 128,-1,41
 221 197 221 197 235.5 183 c 128,-1,42
 250 169 250 169 269 161.5 c 128,-1,43
 288 154 288 154 310 154 c 1,44,-1
 310 358 l 1,34,35
128 256 m 0,45,46
 128 247 128 247 121 241.5 c 128,-1,47
 114 236 114 236 102 236 c 2,48,-1
 77 236 l 2,49,50
 66 236 66 236 58.5 241.5 c 128,-1,51
 51 247 51 247 51 256 c 0,52,53
 51 264 51 264 58.5 270 c 128,-1,54
 66 276 66 276 77 276 c 2,55,-1
 102 276 l 2,56,57
 113 276 113 276 120.5 270 c 128,-1,58
 128 264 128 264 128 256 c 0,45,46
307 435 m 256,59,60
 299 435 299 435 293 442.5 c 128,-1,61
 287 450 287 450 287 461 c 2,62,-1
 287 486 l 2,63,64
 287 496 287 496 293 504 c 128,-1,65
 299 512 299 512 307 512 c 256,66,67
 315 512 315 512 321.5 504.5 c 128,-1,68
 328 497 328 497 328 486 c 2,69,-1
 328 461 l 2,70,71
 328 450 328 450 321.5 442.5 c 128,-1,72
 315 435 315 435 307 435 c 256,59,60
307 77 m 256,73,74
 315 77 315 77 321.5 69 c 128,-1,75
 328 61 328 61 328 51 c 2,76,-1
 328 26 l 2,77,78
 328 15 328 15 321.5 7.5 c 128,-1,79
 315 0 315 0 307 0 c 256,80,81
 299 0 299 0 293 7 c 128,-1,82
 287 14 287 14 287 26 c 2,83,-1
 287 51 l 2,84,85
 287 61 287 61 293 69 c 128,-1,86
 299 77 299 77 307 77 c 256,73,74
478 397 m 2,87,88
 470 389 470 389 461 388.5 c 128,-1,89
 452 388 452 388 445 393 c 0,90,91
 439 399 439 399 440 408.5 c 128,-1,92
 441 418 441 418 450 426 c 0,93,94
 452 428 452 428 458.5 435 c 128,-1,95
 465 442 465 442 467 444 c 0,96,97
 475 451 475 451 484.5 452.5 c 128,-1,98
 494 454 494 454 500 447 c 256,99,100
 506 441 506 441 505 432 c 128,-1,101
 504 423 504 423 496 415 c 2,102,-1
 478 397 l 2,87,88
137 114 m 0,103,104
 144 122 144 122 154 123 c 128,-1,105
 164 124 164 124 169 118 c 0,106,107
 175 112 175 112 174.5 102.5 c 128,-1,108
 174 93 174 93 166 85 c 2,109,-1
 147 67 l 2,110,111
 140 60 140 60 130.5 58.5 c 128,-1,112
 121 57 121 57 116 63 c 0,113,114
 110 69 110 69 110.5 78.5 c 128,-1,115
 111 88 111 88 119 96 c 0,116,117
 121 98 121 98 128 105 c 128,-1,118
 135 112 135 112 137 114 c 0,103,104
166 426 m 2,119,120
 174 418 174 418 174.5 408.5 c 128,-1,121
 175 399 175 399 169 393 c 0,122,123
 164 388 164 388 154 388.5 c 128,-1,124
 144 389 144 389 137 397 c 0,125,126
 135 399 135 399 128 406 c 128,-1,127
 121 413 121 413 119 415 c 0,128,129
 111 423 111 423 110.5 432 c 128,-1,130
 110 441 110 441 116 447 c 0,131,132
 121 453 121 453 130.5 452.5 c 128,-1,133
 140 452 140 452 147 444 c 2,134,-1
 166 426 l 2,119,120
450 85 m 0,135,136
 442 93 442 93 440.5 102.5 c 128,-1,137
 439 112 439 112 445 118 c 256,138,139
 451 124 451 124 460.5 123 c 128,-1,140
 470 122 470 122 478 114 c 2,141,-1
 496 96 l 2,142,143
 504 88 504 88 505 79 c 128,-1,144
 506 70 506 70 500 63 c 256,145,146
 494 57 494 57 484.5 58 c 128,-1,147
 475 59 475 59 467 67 c 0,148,149
 465 69 465 69 458.5 76 c 128,-1,150
 452 83 452 83 450 85 c 0,135,136
EndSplineSet
EndChar

StartChar: pie-chart
Encoding: 9716 9716 37
Width: 532
GlyphClass: 2
Flags: W
LayerCount: 2
Fore
SplineSet
240 283 m 1,0,-1
 51 283 l 1,1,2
 55 320 55 320 71.5 352.5 c 128,-1,3
 88 385 88 385 113 410 c 128,-1,4
 138 435 138 435 170.5 451 c 128,-1,5
 203 467 203 467 240 471 c 1,6,-1
 240 283 l 1,0,-1
294 471 m 1,7,8
 334 466 334 466 367.5 447.5 c 128,-1,9
 401 429 401 429 427 400.5 c 128,-1,10
 453 372 453 372 467 335 c 128,-1,11
 481 298 481 298 481 257 c 0,12,13
 481 212 481 212 464 173 c 128,-1,14
 447 134 447 134 418 104.5 c 128,-1,15
 389 75 389 75 349.5 58 c 128,-1,16
 310 41 310 41 265 41 c 0,17,18
 224 41 224 41 187.5 55.5 c 128,-1,19
 151 70 151 70 122.5 95.5 c 128,-1,20
 94 121 94 121 75 155 c 128,-1,21
 56 189 56 189 51 229 c 1,22,-1
 268 229 l 2,23,24
 279 229 279 229 286.5 236.5 c 128,-1,25
 294 244 294 244 294 255 c 2,26,-1
 294 471 l 1,7,8
EndSplineSet
EndChar

StartChar: cloud
Encoding: 9729 9729 38
Width: 614
GlyphClass: 2
Flags: W
LayerCount: 2
Fore
SplineSet
440 330 m 0,0,1
 466 330 466 330 488.5 320.5 c 128,-1,2
 511 311 511 311 527.5 295 c 128,-1,3
 544 279 544 279 553.5 256.5 c 128,-1,4
 563 234 563 234 563 210 c 256,5,6
 563 185 563 185 553.5 163 c 128,-1,7
 544 141 544 141 527.5 125 c 128,-1,8
 511 109 511 109 488.5 99.5 c 128,-1,9
 466 90 466 90 440 90 c 2,10,-1
 144 90 l 2,11,12
 125 90 125 90 108 97 c 128,-1,13
 91 104 91 104 78.5 116.5 c 128,-1,14
 66 129 66 129 58.5 145.5 c 128,-1,15
 51 162 51 162 51 180 c 0,16,17
 51 218 51 218 78 244.5 c 128,-1,18
 105 271 105 271 144 271 c 0,19,20
 146 271 146 271 149.5 270.5 c 128,-1,21
 153 270 153 270 155 270 c 1,22,23
 154 275 154 275 154 280 c 128,-1,24
 154 285 154 285 154 290 c 0,25,26
 154 318 154 318 164.5 342 c 128,-1,27
 175 366 175 366 193.5 384 c 128,-1,28
 212 402 212 402 236.5 412.5 c 128,-1,29
 261 423 261 423 290 423 c 0,30,31
 336 423 336 423 372 396.5 c 128,-1,32
 408 370 408 370 420 328 c 1,33,34
 425 329 425 329 430 329.5 c 128,-1,35
 435 330 435 330 440 330 c 0,0,1
EndSplineSet
EndChar

StartChar: star
Encoding: 9733 9733 39
Width: 552
GlyphClass: 2
Flags: W
LayerCount: 2
Fore
SplineSet
276 481 m 1,0,-1
 338 309 l 1,1,-1
 502 309 l 1,2,-1
 368 209 l 1,3,-1
 416 31 l 1,4,-1
 276 137 l 1,5,-1
 137 31 l 1,6,-1
 185 209 l 1,7,-1
 51 309 l 1,8,-1
 215 309 l 1,9,-1
 276 481 l 1,10,-1
 276 481 l 1,0,-1
EndSplineSet
EndChar

StartChar: star-empty
Encoding: 9734 9734 40
Width: 552
GlyphClass: 2
Flags: W
LayerCount: 2
Fore
SplineSet
502 309 m 1,0,-1
 368 209 l 1,1,-1
 416 31 l 1,2,-1
 276 137 l 1,3,-1
 137 31 l 1,4,-1
 185 209 l 1,5,-1
 51 309 l 1,6,-1
 215 309 l 1,7,-1
 276 481 l 1,8,-1
 338 309 l 1,9,-1
 502 309 l 1,0,-1
276 187 m 1,10,-1
 353 124 l 1,11,-1
 322 215 l 1,12,-1
 395 273 l 1,13,-1
 305 271 l 1,14,-1
 276 375 l 1,15,-1
 249 271 l 1,16,-1
 159 273 l 1,17,-1
 231 215 l 1,18,-1
 200 124 l 1,19,-1
 276 187 l 1,10,-1
EndSplineSet
EndChar

StartChar: cup
Encoding: 9749 9749 41
Width: 452
GlyphClass: 2
Flags: W
LayerCount: 2
Fore
SplineSet
226 466 m 256,0,1
 267 466 267 466 300 460 c 128,-1,2
 333 454 333 454 356 444 c 128,-1,3
 379 434 379 434 390 422.5 c 128,-1,4
 401 411 401 411 400 400 c 2,5,-1
 364 96 l 2,6,7
 364 91 364 91 353.5 83 c 128,-1,8
 343 75 343 75 324.5 66.5 c 128,-1,9
 306 58 306 58 281 52 c 128,-1,10
 256 46 256 46 226 46 c 256,11,12
 196 46 196 46 171 52 c 128,-1,13
 146 58 146 58 128.5 66.5 c 128,-1,14
 111 75 111 75 100.5 83 c 128,-1,15
 90 91 90 91 89 96 c 2,16,-1
 52 400 l 2,17,18
 51 410 51 410 63 422 c 128,-1,19
 75 434 75 434 97.5 444 c 128,-1,20
 120 454 120 454 152.5 460 c 128,-1,21
 185 466 185 466 226 466 c 256,0,1
226 355 m 256,22,23
 256 355 256 355 281 360 c 128,-1,24
 306 365 306 365 324.5 371.5 c 128,-1,25
 343 378 343 378 353.5 384.5 c 128,-1,26
 364 391 364 391 364 395 c 256,27,28
 364 399 364 399 353.5 406 c 128,-1,29
 343 413 343 413 324.5 419 c 128,-1,30
 306 425 306 425 281 429.5 c 128,-1,31
 256 434 256 434 226 434 c 256,32,33
 196 434 196 434 171 429.5 c 128,-1,34
 146 425 146 425 128 419 c 128,-1,35
 110 413 110 413 99.5 406 c 128,-1,36
 89 399 89 399 89 395 c 256,37,38
 89 391 89 391 99.5 384.5 c 128,-1,39
 110 378 110 378 128 371.5 c 128,-1,40
 146 365 146 365 171 360 c 128,-1,41
 196 355 196 355 226 355 c 256,22,23
EndSplineSet
EndChar

StartChar: list
Encoding: 9776 9776 42
Width: 460
GlyphClass: 2
Flags: W
LayerCount: 2
Fore
SplineSet
384 282 m 2,0,1
 395 282 395 282 402.5 274.5 c 128,-1,2
 410 267 410 267 410 256 c 0,3,4
 410 246 410 246 402.5 238 c 128,-1,5
 395 230 395 230 384 230 c 2,6,-1
 77 230 l 2,7,8
 66 230 66 230 58.5 238 c 128,-1,9
 51 246 51 246 51 256 c 0,10,11
 51 267 51 267 58.5 274.5 c 128,-1,12
 66 282 66 282 77 282 c 2,13,-1
 384 282 l 2,0,1
77 333 m 2,14,15
 66 333 66 333 58.5 340.5 c 128,-1,16
 51 348 51 348 51 358 c 0,17,18
 51 369 51 369 58.5 376.5 c 128,-1,19
 66 384 66 384 77 384 c 2,20,-1
 384 384 l 2,21,22
 395 384 395 384 402.5 377 c 128,-1,23
 410 370 410 370 410 358 c 0,24,25
 410 348 410 348 402.5 340.5 c 128,-1,26
 395 333 395 333 384 333 c 2,27,-1
 77 333 l 2,14,15
384 179 m 2,28,29
 395 179 395 179 402.5 172 c 128,-1,30
 410 165 410 165 410 154 c 0,31,32
 410 144 410 144 402.5 136 c 128,-1,33
 395 128 395 128 384 128 c 2,34,-1
 77 128 l 2,35,36
 66 128 66 128 58.5 135.5 c 128,-1,37
 51 143 51 143 51 154 c 0,38,39
 51 165 51 165 58.5 172 c 128,-1,40
 66 179 66 179 77 179 c 2,41,-1
 384 179 l 2,28,29
EndSplineSet
EndChar

StartChar: moon
Encoding: 9789 9789 43
Width: 523
GlyphClass: 2
Flags: W
LayerCount: 2
Fore
SplineSet
319 199 m 256,0,1
 347 227 347 227 363 259.5 c 128,-1,2
 379 292 379 292 383.5 327 c 128,-1,3
 388 362 388 362 381.5 398 c 128,-1,4
 375 434 375 434 356 466 c 1,5,6
 382 452 382 452 406 429 c 0,7,8
 439 396 439 396 455 354.5 c 128,-1,9
 471 313 471 313 471 270 c 128,-1,10
 471 227 471 227 454.5 186 c 128,-1,11
 438 145 438 145 406 113 c 256,12,13
 373 80 373 80 331.5 63 c 128,-1,14
 290 46 290 46 247 46 c 128,-1,15
 204 46 204 46 162.5 63 c 128,-1,16
 121 80 121 80 88 113 c 0,17,18
 68 133 68 133 51 161 c 1,19,20
 83 144 83 144 119 137 c 128,-1,21
 155 130 155 130 190 134.5 c 128,-1,22
 225 139 225 139 258 155 c 128,-1,23
 291 171 291 171 319 199 c 256,0,1
EndSplineSet
EndChar

StartChar: heart-empty
Encoding: 9825 9825 44
Width: 544
GlyphClass: 2
Flags: W
LayerCount: 2
Fore
SplineSet
457 406 m 0,0,1
 475 390 475 390 484 368.5 c 128,-1,2
 493 347 493 347 493 325.5 c 128,-1,3
 493 304 493 304 484 283 c 128,-1,4
 475 262 475 262 457 246 c 2,5,-1
 272 77 l 1,6,-1
 88 246 l 2,7,8
 70 262 70 262 61 283 c 128,-1,9
 52 304 52 304 52 325.5 c 128,-1,10
 52 347 52 347 61 368 c 128,-1,11
 70 389 70 389 88 406 c 0,12,13
 104 421 104 421 124 428 c 128,-1,14
 144 435 144 435 165 435 c 128,-1,15
 186 435 186 435 206.5 428 c 128,-1,16
 227 421 227 421 243 406 c 1,17,-1
 272 379 l 1,18,-1
 301 406 l 2,19,20
 334 436 334 436 379 436 c 128,-1,21
 424 436 424 436 457 406 c 0,0,1
429 272 m 2,22,23
 451 292 451 292 451 326 c 0,24,25
 451 341 451 341 447 353.5 c 128,-1,26
 443 366 443 366 431 377 c 0,27,28
 421 387 421 387 407 391.5 c 128,-1,29
 393 396 393 396 379 396 c 0,30,31
 364 396 364 396 350.5 389 c 128,-1,32
 337 382 337 382 326 372 c 2,33,-1
 272 325 l 1,34,-1
 218 372 l 2,35,36
 208 382 208 382 194 389 c 128,-1,37
 180 396 180 396 166 396 c 0,38,39
 133 396 133 396 113 377 c 0,40,41
 102 366 102 366 97.5 353.5 c 128,-1,42
 93 341 93 341 93 326 c 256,43,44
 93 311 93 311 98 297.5 c 128,-1,45
 103 284 103 284 116 272 c 2,46,-1
 272 126 l 1,47,-1
 429 272 l 2,22,23
EndSplineSet
EndChar

StartChar: heart
Encoding: 9829 9829 45
Width: 544
GlyphClass: 2
Flags: W
LayerCount: 2
Fore
SplineSet
457 407 m 0,0,1
 475 391 475 391 484 369.5 c 128,-1,2
 493 348 493 348 493 326.5 c 128,-1,3
 493 305 493 305 484 283.5 c 128,-1,4
 475 262 475 262 457 246 c 2,5,-1
 272 77 l 1,6,-1
 88 246 l 2,7,8
 70 262 70 262 61 283.5 c 128,-1,9
 52 305 52 305 52 326.5 c 128,-1,10
 52 348 52 348 61 369 c 128,-1,11
 70 390 70 390 88 407 c 0,12,13
 104 421 104 421 124 428 c 128,-1,14
 144 435 144 435 165.5 435 c 128,-1,15
 187 435 187 435 207 428 c 128,-1,16
 227 421 227 421 244 407 c 2,17,-1
 272 380 l 1,18,-1
 302 407 l 2,19,20
 317 421 317 421 337.5 428 c 128,-1,21
 358 435 358 435 379 435 c 128,-1,22
 400 435 400 435 420.5 428 c 128,-1,23
 441 421 441 421 457 407 c 0,0,1
EndSplineSet
EndChar

StartChar: note
Encoding: 9834 9834 46
Width: 400
GlyphClass: 2
Flags: W
LayerCount: 2
Fore
SplineSet
247 497 m 1,0,1
 247 480 247 480 258 463.5 c 128,-1,2
 269 447 269 447 284.5 430.5 c 128,-1,3
 300 414 300 414 316.5 396 c 128,-1,4
 333 378 333 378 341.5 357 c 128,-1,5
 350 336 350 336 348.5 311 c 128,-1,6
 347 286 347 286 328 256 c 0,7,8
 320 243 320 243 316 245.5 c 128,-1,9
 312 248 312 248 314 256 c 0,10,11
 317 265 317 265 317 284.5 c 128,-1,12
 317 304 317 304 310.5 324.5 c 128,-1,13
 304 345 304 345 288.5 362 c 128,-1,14
 273 379 273 379 247 383 c 1,15,-1
 247 109 l 1,16,17
 248 84 248 84 228 60 c 128,-1,18
 208 36 208 36 174 24 c 0,19,20
 135 10 135 10 101 20 c 128,-1,21
 67 30 67 30 55 58 c 0,22,23
 45 87 45 87 65.5 116.5 c 128,-1,24
 86 146 86 146 125 161 c 0,25,26
 147 169 147 169 167.5 169 c 128,-1,27
 188 169 188 169 206 163 c 1,28,-1
 206 497 l 1,29,-1
 247 497 l 1,30,-1
 247 497 l 1,0,1
EndSplineSet
EndChar

StartChar: beamed-notes
Encoding: 9835 9835 47
Width: 482
GlyphClass: 2
Flags: W
LayerCount: 2
Fore
SplineSet
430 502 m 1,0,-1
 430 141 l 1,1,2
 431 119 431 119 414.5 99.5 c 128,-1,3
 398 80 398 80 371 70 c 0,4,5
 338 58 338 58 314.5 66.5 c 128,-1,6
 291 75 291 75 283 98 c 256,7,8
 275 122 275 122 286 147.5 c 128,-1,9
 297 173 297 173 330 185 c 0,10,11
 344 190 344 190 358 191.5 c 128,-1,12
 372 193 372 193 384 190 c 1,13,-1
 384 383 l 1,14,-1
 203 341 l 1,15,-1
 203 90 l 2,16,17
 203 68 203 68 186.5 48.5 c 128,-1,18
 170 29 170 29 142 18 c 0,19,20
 109 6 109 6 86 15 c 128,-1,21
 63 24 63 24 55 47 c 0,22,23
 46 71 46 71 57.5 96.5 c 128,-1,24
 69 122 69 122 101 134 c 0,25,26
 115 139 115 139 129.5 140 c 128,-1,27
 144 141 144 141 157 139 c 1,28,-1
 157 442 l 1,29,-1
 430 502 l 1,0,-1
EndSplineSet
EndChar

StartChar: layout
Encoding: 9871 9871 48
Width: 409
GlyphClass: 2
Flags: W
LayerCount: 2
Fore
SplineSet
138 410 m 2,0,1
 179 410 179 410 179 369 c 2,2,-1
 179 323 l 2,3,4
 179 282 179 282 138 282 c 2,5,-1
 92 282 l 2,6,7
 51 282 51 282 51 323 c 2,8,-1
 51 369 l 2,9,10
 51 410 51 410 92 410 c 2,11,-1
 138 410 l 2,0,1
317 410 m 2,12,13
 358 410 358 410 358 369 c 2,14,-1
 358 323 l 2,15,16
 358 282 358 282 317 282 c 2,17,-1
 271 282 l 2,18,19
 230 282 230 282 230 323 c 2,20,-1
 230 369 l 2,21,22
 230 410 230 410 271 410 c 2,23,-1
 317 410 l 2,12,13
138 230 m 2,24,25
 179 230 179 230 179 189 c 2,26,-1
 179 143 l 2,27,28
 179 102 179 102 138 102 c 2,29,-1
 92 102 l 2,30,31
 51 102 51 102 51 143 c 2,32,-1
 51 189 l 2,33,34
 51 230 51 230 92 230 c 2,35,-1
 138 230 l 2,24,25
317 230 m 2,36,37
 358 230 358 230 358 189 c 2,38,-1
 358 143 l 2,39,40
 358 102 358 102 317 102 c 2,41,-1
 271 102 l 2,42,43
 230 102 230 102 230 143 c 2,44,-1
 230 189 l 2,45,46
 230 230 230 230 271 230 c 2,47,-1
 317 230 l 2,36,37
EndSplineSet
EndChar

StartChar: flag
Encoding: 9873 9873 49
Width: 564
GlyphClass: 2
Flags: W
LayerCount: 2
Fore
SplineSet
499 392 m 0,0,1
 506 395 506 395 510.5 391.5 c 128,-1,2
 515 388 515 388 510 382 c 0,3,4
 465 316 465 316 434 282 c 128,-1,5
 403 248 403 248 381 234 c 128,-1,6
 359 220 359 220 344.5 222.5 c 128,-1,7
 330 225 330 225 317 234 c 128,-1,8
 304 243 304 243 291 253.5 c 128,-1,9
 278 264 278 264 259.5 267 c 128,-1,10
 241 270 241 270 214.5 260.5 c 128,-1,11
 188 251 188 251 151 219 c 1,12,-1
 197 39 l 1,13,-1
 145 39 l 1,14,-1
 51 408 l 1,15,-1
 98 425 l 1,16,17
 141 456 141 456 169 466.5 c 128,-1,18
 197 477 197 477 215.5 473.5 c 128,-1,19
 234 470 234 470 247.5 456.5 c 128,-1,20
 261 443 261 443 274.5 427 c 128,-1,21
 288 411 288 411 303.5 395 c 128,-1,22
 319 379 319 379 344.5 371.5 c 128,-1,23
 370 364 370 364 407.5 367 c 128,-1,24
 445 370 445 370 499 392 c 0,0,1
EndSplineSet
EndChar

StartChar: tools
Encoding: 9874 9874 50
Width: 613
GlyphClass: 2
Flags: W
LayerCount: 2
Fore
SplineSet
130 336 m 0,0,1
 122 330 122 330 123 318.5 c 128,-1,2
 124 307 124 307 122 306 c 0,3,4
 120 304 120 304 113 298.5 c 128,-1,5
 106 293 106 293 103 290 c 0,6,7
 99 287 99 287 95 288.5 c 128,-1,8
 91 290 91 290 89 292 c 0,9,10
 87 293 87 293 81.5 299 c 128,-1,11
 76 305 76 305 70 312 c 2,12,-1
 53 331 l 2,13,14
 48 337 48 337 54 343 c 0,15,16
 56 345 56 345 63.5 350 c 128,-1,17
 71 355 71 355 74 358 c 0,18,19
 80 363 80 363 87.5 361 c 128,-1,20
 95 359 95 359 106 369 c 0,21,22
 116 378 116 378 116 388 c 128,-1,23
 116 398 116 398 121 403 c 0,24,25
 123 404 123 404 131 412 c 128,-1,26
 139 420 139 420 160 434 c 0,27,28
 168 439 168 439 179 447 c 128,-1,29
 190 455 190 455 203 462.5 c 128,-1,30
 216 470 216 470 229.5 475.5 c 128,-1,31
 243 481 243 481 255 483 c 0,32,33
 258 483 258 483 268.5 483 c 128,-1,34
 279 483 279 483 291 483 c 128,-1,35
 303 483 303 483 314.5 482.5 c 128,-1,36
 326 482 326 482 331 482 c 0,37,38
 338 482 338 482 330 479 c 128,-1,39
 322 476 322 476 307 469.5 c 128,-1,40
 292 463 292 463 273.5 454 c 128,-1,41
 255 445 255 445 241.5 434 c 128,-1,42
 228 423 228 423 223.5 409.5 c 128,-1,43
 219 396 219 396 230 381 c 0,44,45
 235 374 235 374 241.5 366 c 128,-1,46
 248 358 248 358 250 356 c 0,47,48
 254 352 254 352 249 349 c 0,49,50
 248 348 248 348 242.5 343 c 128,-1,51
 237 338 237 338 229.5 331.5 c 128,-1,52
 222 325 222 325 216.5 319.5 c 128,-1,53
 211 314 211 314 210 313 c 0,54,55
 208 312 208 312 205.5 310.5 c 128,-1,56
 203 309 203 309 201 311 c 0,57,58
 181 335 181 335 164.5 342.5 c 128,-1,59
 148 350 148 350 130 336 c 0,0,1
486 79 m 2,60,61
 495 68 495 68 485 59 c 2,62,-1
 461 38 l 1,63,64
 450 31 450 31 441 40 c 2,65,-1
 229 282 l 2,66,67
 225 286 225 286 229 292 c 1,68,-1
 266 324 l 2,69,70
 272 328 272 328 276 323 c 2,71,-1
 486 79 l 2,60,61
560 426 m 0,72,73
 561 421 561 421 561.5 410 c 128,-1,74
 562 399 562 399 561.5 387 c 128,-1,75
 561 375 561 375 558.5 362.5 c 128,-1,76
 556 350 556 350 552 341 c 1,77,78
 541 322 541 322 523 311.5 c 128,-1,79
 505 301 505 301 473 309 c 0,80,81
 459 312 459 312 444.5 306.5 c 128,-1,82
 430 301 430 301 422 293 c 2,83,-1
 380 253 l 1,84,-1
 345 293 l 1,85,-1
 380 329 l 2,86,87
 390 339 390 339 393.5 350 c 128,-1,88
 397 361 397 361 397.5 372 c 128,-1,89
 398 383 398 383 398 395 c 128,-1,90
 398 407 398 407 401 419 c 256,91,92
 404 431 404 431 414.5 441 c 128,-1,93
 425 451 425 451 437 458 c 128,-1,94
 449 465 449 465 459.5 469.5 c 128,-1,95
 470 474 470 474 473 476 c 0,96,97
 480 479 480 479 482.5 474 c 128,-1,98
 485 469 485 469 483 467 c 0,99,100
 482 466 482 466 479 461 c 128,-1,101
 476 456 476 456 472.5 449 c 128,-1,102
 469 442 469 442 465.5 436 c 128,-1,103
 462 430 462 430 460 426 c 0,104,105
 458 423 458 423 456 418.5 c 128,-1,106
 454 414 454 414 454.5 408 c 128,-1,107
 455 402 455 402 459 395.5 c 128,-1,108
 463 389 463 389 474 381 c 0,109,110
 484 374 484 374 492.5 373.5 c 128,-1,111
 501 373 501 373 507 376 c 128,-1,112
 513 379 513 379 517 383.5 c 128,-1,113
 521 388 521 388 523 392 c 0,114,115
 528 400 528 400 537 413 c 128,-1,116
 546 426 546 426 548 430 c 256,117,118
 550 434 550 434 554 434.5 c 128,-1,119
 558 435 558 435 560 426 c 0,72,73
251 203 m 1,120,-1
 290 159 l 1,121,-1
 164 35 l 2,122,123
 160 31 160 31 155 30 c 128,-1,124
 150 29 150 29 144 33 c 2,125,-1
 121 56 l 2,126,127
 116 60 116 60 116 66 c 128,-1,128
 116 72 116 72 121 76 c 2,129,-1
 251 203 l 1,120,-1
EndSplineSet
EndChar

StartChar: cog
Encoding: 9881 9881 51
Width: 532
GlyphClass: 2
Flags: W
LayerCount: 2
Fore
SplineSet
440 256 m 256,0,1
 440 236 440 236 451.5 220.5 c 128,-1,2
 463 205 463 205 481 194 c 1,3,4
 475 174 475 174 464 152 c 1,5,6
 444 157 444 157 426.5 150 c 128,-1,7
 409 143 409 143 394 129 c 0,8,9
 366 99 366 99 377 59 c 1,10,11
 357 48 357 48 334 41 c 1,12,13
 323 60 323 60 305 71.5 c 128,-1,14
 287 83 287 83 266 83 c 256,15,16
 246 83 246 83 228 71.5 c 128,-1,17
 210 60 210 60 199 41 c 1,18,19
 175 48 175 48 156 59 c 1,20,21
 166 100 166 100 138 129 c 0,22,23
 110 157 110 157 69 146 c 1,24,25
 64 156 64 156 59.5 166.5 c 128,-1,26
 55 177 55 177 51 188 c 1,27,28
 69 199 69 199 81 217.5 c 128,-1,29
 93 236 93 236 93 256 c 256,30,31
 93 276 93 276 81.5 292 c 128,-1,32
 70 308 70 308 51 319 c 1,33,34
 55 330 55 330 59 340.5 c 128,-1,35
 63 351 63 351 69 361 c 1,36,37
 91 356 91 356 107.5 363 c 128,-1,38
 124 370 124 370 138 384 c 0,39,40
 166 412 166 412 156 454 c 1,41,42
 178 465 178 465 199 471 c 1,43,44
 210 453 210 453 228 441.5 c 128,-1,45
 246 430 246 430 266 430 c 256,46,47
 286 430 286 430 304.5 441.5 c 128,-1,48
 323 453 323 453 334 471 c 1,49,50
 356 465 356 465 377 454 c 1,51,52
 367 414 367 414 394 384 c 0,53,54
 408 370 408 370 425.5 363 c 128,-1,55
 443 356 443 356 464 361 c 1,56,57
 475 339 475 339 481 319 c 1,58,59
 463 308 463 308 451.5 292 c 128,-1,60
 440 276 440 276 440 256 c 256,0,1
266 163 m 0,61,62
 285 163 285 163 302 170 c 128,-1,63
 319 177 319 177 332 190 c 128,-1,64
 345 203 345 203 352 220 c 128,-1,65
 359 237 359 237 359 256 c 256,66,67
 359 275 359 275 352 292.5 c 128,-1,68
 345 310 345 310 332 323 c 128,-1,69
 319 336 319 336 302.5 343 c 128,-1,70
 286 350 286 350 266 350 c 256,71,72
 247 350 247 350 230 343 c 128,-1,73
 213 336 213 336 200 323 c 128,-1,74
 187 310 187 310 180 292.5 c 128,-1,75
 173 275 173 275 173 256 c 0,76,77
 173 217 173 217 200 190 c 128,-1,78
 227 163 227 163 266 163 c 0,61,62
EndSplineSet
EndChar

StartChar: warning
Encoding: 9888 9888 52
Width: 595
GlyphClass: 2
Flags: W
LayerCount: 2
Fore
SplineSet
542 65 m 2,0,1
 547 57 547 57 542 47 c 0,2,3
 537 39 537 39 526 39 c 2,4,-1
 70 39 l 2,5,6
 61 39 61 39 55 47 c 0,7,8
 49 56 49 56 54 65 c 2,9,-1
 283 465 l 2,10,11
 287 474 287 474 298 474 c 0,12,13
 308 474 308 474 313 465 c 2,14,-1
 542 65 l 2,0,1
327 141 m 1,15,-1
 270 141 l 1,16,-1
 270 90 l 1,17,-1
 327 90 l 1,18,-1
 327 141 l 1,15,-1
327 333 m 1,19,-1
 270 333 l 1,20,-1
 270 179 l 1,21,-1
 327 179 l 1,22,-1
 327 333 l 1,19,-1
EndSplineSet
EndChar

StartChar: bolt
Encoding: 9889 9889 53
Width: 309
GlyphClass: 2
Flags: W
LayerCount: 2
Fore
SplineSet
73 26 m 256,0,1
 72 27 72 27 77 41 c 128,-1,2
 82 55 82 55 91 75.5 c 128,-1,3
 100 96 100 96 111 120 c 128,-1,4
 122 144 122 144 130.5 165 c 128,-1,5
 139 186 139 186 145.5 200.5 c 128,-1,6
 152 215 152 215 151 217 c 0,7,8
 150 220 150 220 135 226 c 128,-1,9
 120 232 120 232 102 240 c 128,-1,10
 84 248 84 248 69 255.5 c 128,-1,11
 54 263 54 263 52 268 c 0,12,13
 51 271 51 271 64 289 c 128,-1,14
 77 307 77 307 97 331.5 c 128,-1,15
 117 356 117 356 141 384 c 128,-1,16
 165 412 165 412 186 435 c 128,-1,17
 207 458 207 458 221.5 472.5 c 128,-1,18
 236 487 236 487 237 486 c 256,19,20
 238 485 238 485 232.5 471 c 128,-1,21
 227 457 227 457 218 436.5 c 128,-1,22
 209 416 209 416 198.5 392 c 128,-1,23
 188 368 188 368 179 347 c 128,-1,24
 170 326 170 326 164 311.5 c 128,-1,25
 158 297 158 297 159 296 c 0,26,27
 160 294 160 294 174.5 288 c 128,-1,28
 189 282 189 282 207 274 c 128,-1,29
 225 266 225 266 240.5 258.5 c 128,-1,30
 256 251 256 251 257 245 c 0,31,32
 258 241 258 241 244.5 223.5 c 128,-1,33
 231 206 231 206 211 181.5 c 128,-1,34
 191 157 191 157 167.5 129 c 128,-1,35
 144 101 144 101 123 77.5 c 128,-1,36
 102 54 102 54 88 39.5 c 128,-1,37
 74 25 74 25 73 26 c 256,0,1
EndSplineSet
EndChar

StartChar: thunder-cloud
Encoding: 9928 9928 54
Width: 614
GlyphClass: 2
Flags: W
LayerCount: 2
Fore
SplineSet
440 330 m 0,0,1
 466 330 466 330 488.5 320.5 c 128,-1,2
 511 311 511 311 527.5 295 c 128,-1,3
 544 279 544 279 553.5 256.5 c 128,-1,4
 563 234 563 234 563 210 c 256,5,6
 563 185 563 185 553.5 163 c 128,-1,7
 544 141 544 141 527.5 125 c 128,-1,8
 511 109 511 109 488.5 99.5 c 128,-1,9
 466 90 466 90 440 90 c 2,10,-1
 144 90 l 2,11,12
 125 90 125 90 108 97 c 128,-1,13
 91 104 91 104 78.5 116.5 c 128,-1,14
 66 129 66 129 58.5 145.5 c 128,-1,15
 51 162 51 162 51 180 c 0,16,17
 51 218 51 218 78 244.5 c 128,-1,18
 105 271 105 271 144 271 c 0,19,20
 146 271 146 271 149.5 270.5 c 128,-1,21
 153 270 153 270 155 270 c 1,22,23
 154 275 154 275 154 280 c 128,-1,24
 154 285 154 285 154 290 c 0,25,26
 154 318 154 318 164.5 342 c 128,-1,27
 175 366 175 366 193.5 384 c 128,-1,28
 212 402 212 402 236.5 412.5 c 128,-1,29
 261 423 261 423 290 423 c 0,30,31
 336 423 336 423 372 396.5 c 128,-1,32
 408 370 408 370 420 328 c 1,33,34
 425 329 425 329 430 329.5 c 128,-1,35
 435 330 435 330 440 330 c 0,0,1
342 219 m 0,36,37
 349 227 349 227 349 234 c 256,38,39
 349 241 349 241 344 245 c 128,-1,40
 339 249 339 249 334 251 c 1,41,-1
 332 251 l 1,42,43
 327 253 327 253 321 255.5 c 128,-1,44
 315 258 315 258 312 259 c 1,45,-1
 338 318 l 1,46,47
 341 318 341 318 341 329 c 0,48,49
 341 336 341 336 337 338 c 0,50,51
 332 341 332 341 327 338.5 c 128,-1,52
 322 336 322 336 319 334 c 0,53,54
 318 333 318 333 309 323 c 128,-1,55
 300 313 300 313 289 301 c 128,-1,56
 278 289 278 289 266.5 276.5 c 128,-1,57
 255 264 255 264 250 257 c 0,58,59
 244 248 244 248 244 242 c 0,60,61
 244 235 244 235 249 231.5 c 128,-1,62
 254 228 254 228 259 226 c 2,63,-1
 261 225 l 2,64,65
 266 223 266 223 271 221 c 128,-1,66
 276 219 276 219 281 217 c 1,67,-1
 254 159 l 2,68,69
 254 158 254 158 253 155 c 128,-1,70
 252 152 252 152 252 147 c 0,71,72
 252 142 252 142 256 138 c 1,73,74
 261 135 261 135 266 137.5 c 128,-1,75
 271 140 271 140 273 143 c 0,76,77
 274 144 274 144 283 153.5 c 128,-1,78
 292 163 292 163 303.5 175 c 128,-1,79
 315 187 315 187 326 200 c 128,-1,80
 337 213 337 213 342 219 c 0,36,37
EndSplineSet
EndChar

StartChar: voicemail
Encoding: 9991 9991 55
Width: 614
GlyphClass: 2
Flags: W
LayerCount: 2
Fore
SplineSet
445 374 m 256,0,1
 470 374 470 374 491.5 364.5 c 128,-1,2
 513 355 513 355 529 339.5 c 128,-1,3
 545 324 545 324 554 302.5 c 128,-1,4
 563 281 563 281 563 256 c 256,5,6
 563 231 563 231 554 210 c 128,-1,7
 545 189 545 189 529 173 c 128,-1,8
 513 157 513 157 491.5 147.5 c 128,-1,9
 470 138 470 138 445 138 c 2,10,-1
 169 138 l 2,11,12
 144 138 144 138 123 147.5 c 128,-1,13
 102 157 102 157 86 173 c 128,-1,14
 70 189 70 189 60.5 210 c 128,-1,15
 51 231 51 231 51 256 c 256,16,17
 51 281 51 281 60.5 302.5 c 128,-1,18
 70 324 70 324 86 339.5 c 128,-1,19
 102 355 102 355 123 364.5 c 128,-1,20
 144 374 144 374 169 374 c 256,21,22
 194 374 194 374 215.5 364.5 c 128,-1,23
 237 355 237 355 252.5 339.5 c 128,-1,24
 268 324 268 324 277.5 302.5 c 128,-1,25
 287 281 287 281 287 256 c 0,26,27
 287 219 287 219 266 189 c 1,28,-1
 348 189 l 1,29,30
 339 203 339 203 333.5 220.5 c 128,-1,31
 328 238 328 238 328 256 c 0,32,33
 328 281 328 281 337 302.5 c 128,-1,34
 346 324 346 324 362.5 339.5 c 128,-1,35
 379 355 379 355 399.5 364.5 c 128,-1,36
 420 374 420 374 445 374 c 256,0,1
102 256 m 0,37,38
 102 229 102 229 121.5 209 c 128,-1,39
 141 189 141 189 169 189 c 256,40,41
 197 189 197 189 216.5 209 c 128,-1,42
 236 229 236 229 236 256 c 0,43,44
 236 284 236 284 216.5 303.5 c 128,-1,45
 197 323 197 323 169 323 c 256,46,47
 141 323 141 323 121.5 303.5 c 128,-1,48
 102 284 102 284 102 256 c 0,37,38
445 189 m 256,49,50
 473 189 473 189 492.5 209 c 128,-1,51
 512 229 512 229 512 256 c 0,52,53
 512 284 512 284 492.5 303.5 c 128,-1,54
 473 323 473 323 445 323 c 256,55,56
 417 323 417 323 398 303.5 c 128,-1,57
 379 284 379 284 379 256 c 0,58,59
 379 229 379 229 398 209 c 128,-1,60
 417 189 417 189 445 189 c 256,49,50
EndSplineSet
EndChar

StartChar: airplane
Encoding: 9992 9992 56
Width: 614
GlyphClass: 2
Flags: W
LayerCount: 2
Fore
SplineSet
252 220 m 1,0,-1
 160 220 l 1,1,-1
 102 169 l 1,2,-1
 51 169 l 1,3,-1
 92 256 l 1,4,-1
 51 343 l 1,5,-1
 102 343 l 1,6,-1
 160 292 l 1,7,-1
 252 292 l 1,8,-1
 188 497 l 1,9,-1
 240 497 l 1,10,-1
 354 292 l 1,11,-1
 486 292 l 2,12,13
 506 292 506 292 524 288 c 0,14,15
 538 285 538 285 550.5 277 c 128,-1,16
 563 269 563 269 563 256 c 0,17,18
 563 242 563 242 551 234.5 c 128,-1,19
 539 227 539 227 524 224 c 0,20,21
 507 220 507 220 486 220 c 2,22,-1
 354 220 l 1,23,-1
 240 15 l 1,24,-1
 188 15 l 1,25,-1
 252 220 l 1,0,-1
EndSplineSet
EndChar

StartChar: mail
Encoding: 9993 9993 57
Width: 563
GlyphClass: 2
Flags: W
LayerCount: 2
Fore
SplineSet
67 377 m 0,0,1
 62 380 62 380 58 384.5 c 128,-1,2
 54 389 54 389 52.5 393.5 c 128,-1,3
 51 398 51 398 53.5 401 c 128,-1,4
 56 404 56 404 66 404 c 2,5,-1
 499 404 l 2,6,7
 507 404 507 404 509.5 401 c 128,-1,8
 512 398 512 398 511 393.5 c 128,-1,9
 510 389 510 389 506 384.5 c 128,-1,10
 502 380 502 380 497 377 c 0,11,12
 494 375 494 375 479 367 c 128,-1,13
 464 359 464 359 443 348 c 128,-1,14
 422 337 422 337 398.5 324.5 c 128,-1,15
 375 312 375 312 355 301 c 128,-1,16
 335 290 335 290 320.5 282.5 c 128,-1,17
 306 275 306 275 305 274 c 0,18,19
 300 271 300 271 294 270 c 128,-1,20
 288 269 288 269 282 269 c 0,21,22
 268 269 268 269 258 274 c 0,23,24
 256 275 256 275 242 282.5 c 128,-1,25
 228 290 228 290 208 301 c 128,-1,26
 188 312 188 312 164.5 324.5 c 128,-1,27
 141 337 141 337 120 348 c 128,-1,28
 99 359 99 359 84.5 367 c 128,-1,29
 70 375 70 375 67 377 c 0,0,1
502 326 m 0,30,31
 510 330 510 330 511 327 c 128,-1,32
 512 324 512 324 512 321 c 2,33,-1
 512 132 l 2,34,35
 512 124 512 124 503.5 116 c 128,-1,36
 495 108 495 108 486 108 c 2,37,-1
 77 108 l 2,38,39
 69 108 69 108 60 116 c 128,-1,40
 51 124 51 124 51 132 c 2,41,-1
 51 321 l 2,42,43
 51 324 51 324 52 327 c 128,-1,44
 53 330 53 330 61 326 c 0,45,46
 64 324 64 324 80 316 c 128,-1,47
 96 308 96 308 117 297 c 128,-1,48
 138 286 138 286 162 273.5 c 128,-1,49
 186 261 186 261 206.5 250.5 c 128,-1,50
 227 240 227 240 241.5 232 c 128,-1,51
 256 224 256 224 258 223 c 0,52,53
 265 219 265 219 270 218.5 c 128,-1,54
 275 218 275 218 282 218 c 256,55,56
 288 218 288 218 293 218.5 c 128,-1,57
 298 219 298 219 305 223 c 0,58,59
 307 224 307 224 321.5 232 c 128,-1,60
 336 240 336 240 357 250.5 c 128,-1,61
 378 261 378 261 402 273.5 c 128,-1,62
 426 286 426 286 447 297 c 128,-1,63
 468 308 468 308 483.5 316 c 128,-1,64
 499 324 499 324 502 326 c 0,30,31
EndSplineSet
EndChar

StartChar: pencil
Encoding: 9998 9998 58
Width: 502
GlyphClass: 2
Flags: W
LayerCount: 2
Fore
SplineSet
419 425 m 256,0,1
 433 411 433 411 439.5 398.5 c 128,-1,2
 446 386 446 386 449 378 c 0,3,4
 452 368 452 368 451 359 c 1,5,-1
 322 230 l 1,6,-1
 173 83 l 1,7,-1
 51 56 l 1,8,-1
 77 179 l 1,9,-1
 225 327 l 1,10,-1
 354 456 l 1,11,12
 362 457 362 457 373 454 c 0,13,14
 381 452 381 452 393 445.5 c 128,-1,15
 405 439 405 439 419 425 c 256,0,1
178 110 m 1,16,17
 177 116 177 116 174 124 c 0,18,19
 169 138 169 138 152 158 c 0,20,21
 143 167 143 167 134 172.5 c 128,-1,22
 125 178 125 178 118 180 c 0,23,24
 110 183 110 183 103 183 c 1,25,-1
 92 171 l 1,26,-1
 83 130 l 1,27,28
 88 127 88 127 94 123 c 128,-1,29
 100 119 100 119 106 113 c 0,30,31
 118 101 118 101 125 88 c 1,32,-1
 166 97 l 1,33,-1
 178 110 l 1,16,17
EndSplineSet
EndChar

StartChar: feather
Encoding: 10002 10002 59
Width: 460
GlyphClass: 2
Flags: W
LayerCount: 2
Fore
SplineSet
83 6 m 0,0,1
 81 -2 81 -2 70.5 1.5 c 128,-1,2
 60 5 60 5 61 19 c 0,3,4
 62 37 62 37 69 70 c 128,-1,5
 76 103 76 103 87 135 c 1,6,7
 55 183 55 183 52 222 c 128,-1,8
 49 261 49 261 60 297 c 1,9,10
 64 285 64 285 72 268 c 128,-1,11
 80 251 80 251 88 235 c 128,-1,12
 96 219 96 219 104 209 c 128,-1,13
 112 199 112 199 116 201 c 256,14,15
 120 203 120 203 117.5 227 c 128,-1,16
 115 251 115 251 112.5 283.5 c 128,-1,17
 110 316 110 316 111 350.5 c 128,-1,18
 112 385 112 385 123 409 c 0,19,20
 129 421 129 421 141 433.5 c 128,-1,21
 153 446 153 446 166 458 c 128,-1,22
 179 470 179 470 193 478.5 c 128,-1,23
 207 487 207 487 217 493 c 1,24,25
 208 475 208 475 203.5 456 c 128,-1,26
 199 437 199 437 198 422.5 c 128,-1,27
 197 408 197 408 200 398 c 128,-1,28
 203 388 203 388 209 388 c 256,29,30
 215 388 215 388 226.5 407 c 128,-1,31
 238 426 238 426 251.5 449 c 128,-1,32
 265 472 265 472 279.5 491.5 c 128,-1,33
 294 511 294 511 306 512 c 256,34,35
 318 513 318 513 334 508.5 c 128,-1,36
 350 504 350 504 365 496.5 c 128,-1,37
 380 489 380 489 391.5 480 c 128,-1,38
 403 471 403 471 407 464 c 0,39,40
 410 458 410 458 410 447 c 128,-1,41
 410 436 410 436 406.5 424 c 128,-1,42
 403 412 403 412 398 400 c 128,-1,43
 393 388 393 388 386 381 c 0,44,45
 372 367 372 367 352.5 360 c 128,-1,46
 333 353 333 353 314 350 c 128,-1,47
 295 347 295 347 278.5 344.5 c 128,-1,48
 262 342 262 342 253 337 c 0,49,50
 249 335 249 335 252 328 c 128,-1,51
 255 321 255 321 267 314 c 128,-1,52
 279 307 279 307 298.5 304.5 c 128,-1,53
 318 302 318 302 349 309 c 1,54,55
 324 274 324 274 296 259 c 128,-1,56
 268 244 268 244 243.5 238 c 128,-1,57
 219 232 219 232 202 231.5 c 128,-1,58
 185 231 185 231 184 226 c 256,59,60
 183 221 183 221 190.5 213.5 c 128,-1,61
 198 206 198 206 209 200 c 128,-1,62
 220 194 220 194 234 190.5 c 128,-1,63
 248 187 248 187 261 191 c 1,64,65
 245 161 245 161 230.5 148 c 128,-1,66
 216 135 216 135 199.5 130.5 c 128,-1,67
 183 126 183 126 163.5 125.5 c 128,-1,68
 144 125 144 125 119 121 c 1,69,70
 108 82 108 82 98.5 53.5 c 128,-1,71
 89 25 89 25 83 6 c 0,0,1
EndSplineSet
EndChar

StartChar: check
Encoding: 10003 10003 60
Width: 445
GlyphClass: 2
Flags: W
LayerCount: 2
Fore
SplineSet
179 77 m 1,0,1
 161 77 161 77 151 91 c 2,2,-1
 58 212 l 2,3,4
 50 224 50 224 52 238.5 c 128,-1,5
 54 253 54 253 66 262 c 256,6,7
 77 271 77 271 91.5 269 c 128,-1,8
 106 267 106 267 116 255 c 2,9,-1
 176 176 l 1,10,-1
 328 419 l 2,11,12
 336 431 336 431 350 434.5 c 128,-1,13
 364 438 364 438 377 430 c 0,14,15
 389 422 389 422 392.5 408 c 128,-1,16
 396 394 396 394 388 381 c 2,17,-1
 209 94 l 2,18,19
 199 78 199 78 180 78 c 1,20,21
 179 77 l 1,0,1
EndSplineSet
EndChar

StartChar: circled-cross
Encoding: 10006 10006 61
Width: 532
GlyphClass: 2
Flags: W
LayerCount: 2
Fore
SplineSet
266 471 m 0,0,1
 310 471 310 471 349.5 454 c 128,-1,2
 389 437 389 437 418 408 c 128,-1,3
 447 379 447 379 464 339.5 c 128,-1,4
 481 300 481 300 481 256 c 0,5,6
 481 211 481 211 464 172 c 128,-1,7
 447 133 447 133 418 104 c 128,-1,8
 389 75 389 75 349.5 58 c 128,-1,9
 310 41 310 41 266 41 c 0,10,11
 221 41 221 41 182 58 c 128,-1,12
 143 75 143 75 114 104 c 128,-1,13
 85 133 85 133 68 172 c 128,-1,14
 51 211 51 211 51 256 c 0,15,16
 51 300 51 300 68 339.5 c 128,-1,17
 85 379 85 379 114 408 c 128,-1,18
 143 437 143 437 182 454 c 128,-1,19
 221 471 221 471 266 471 c 0,0,1
389 335 m 1,20,-1
 345 379 l 1,21,-1
 266 301 l 1,22,-1
 188 379 l 1,23,-1
 143 335 l 1,24,-1
 222 256 l 1,25,-1
 143 178 l 1,26,-1
 188 134 l 1,27,-1
 266 212 l 1,28,-1
 345 134 l 1,29,-1
 389 178 l 1,30,-1
 310 256 l 1,31,-1
 389 335 l 1,20,-1
EndSplineSet
EndChar

StartChar: cross
Encoding: 10060 10060 62
Width: 344
GlyphClass: 2
Flags: W
LayerCount: 2
Fore
SplineSet
284 176 m 1,0,1
 293 167 293 167 293 154 c 128,-1,2
 293 141 293 141 284 132 c 0,3,4
 275 124 275 124 262 124 c 128,-1,5
 249 124 249 124 240 132 c 1,6,-1
 172 210 l 1,7,-1
 104 132 l 1,8,9
 95 124 95 124 82.5 124 c 128,-1,10
 70 124 70 124 60 132 c 1,11,12
 52 141 52 141 52 154 c 128,-1,13
 52 167 52 167 60 176 c 2,14,-1
 131 256 l 1,15,-1
 60 337 l 2,16,17
 52 346 52 346 52 359 c 128,-1,18
 52 372 52 372 60 381 c 1,19,20
 69 389 69 389 82 389 c 128,-1,21
 95 389 95 389 104 381 c 1,22,-1
 172 303 l 1,23,-1
 240 381 l 1,24,25
 249 389 249 389 261.5 389 c 128,-1,26
 274 389 274 389 284 381 c 0,27,28
 293 372 293 372 293 359 c 128,-1,29
 293 346 293 346 284 337 c 2,30,-1
 213 256 l 1,31,-1
 284 176 l 1,32,-1
 284 176 l 1,0,1
EndSplineSet
EndChar

StartChar: squared-cross
Encoding: 10062 10062 63
Width: 512
GlyphClass: 2
Flags: W
LayerCount: 2
Fore
SplineSet
410 461 m 2,0,1
 432 461 432 461 446.5 446 c 128,-1,2
 461 431 461 431 461 410 c 2,3,-1
 461 102 l 2,4,5
 461 82 461 82 446 66.5 c 128,-1,6
 431 51 431 51 410 51 c 2,7,-1
 102 51 l 2,8,9
 82 51 82 51 66.5 66.5 c 128,-1,10
 51 82 51 82 51 102 c 2,11,-1
 51 410 l 2,12,13
 51 432 51 432 66.5 446.5 c 128,-1,14
 82 461 82 461 102 461 c 2,15,-1
 410 461 l 2,0,1
379 178 m 1,16,-1
 300 256 l 1,17,-1
 379 335 l 1,18,-1
 335 379 l 1,19,-1
 256 301 l 1,20,-1
 178 379 l 1,21,-1
 133 335 l 1,22,-1
 212 256 l 1,23,-1
 133 178 l 1,24,-1
 178 134 l 1,25,-1
 256 212 l 1,26,-1
 335 134 l 1,27,-1
 379 178 l 1,16,-1
EndSplineSet
EndChar

StartChar: help
Encoding: 10067 10067 64
Width: 399
GlyphClass: 2
Flags: W
LayerCount: 2
Fore
SplineSet
304 456 m 0,0,1
 348 424 348 424 348 361 c 0,2,3
 348 343 348 343 342 327 c 128,-1,4
 336 311 336 311 327 298 c 0,5,6
 322 290 322 290 309.5 279.5 c 128,-1,7
 297 269 297 269 282 257 c 1,8,-1
 258 242 l 1,9,10
 250 235 250 235 243 227 c 128,-1,11
 236 219 236 219 233 211 c 0,12,13
 230 203 230 203 229 188 c 0,14,15
 229 186 229 186 227.5 183.5 c 128,-1,16
 226 181 226 181 221 181 c 2,17,-1
 156 181 l 2,18,19
 151 181 151 181 149 183 c 128,-1,20
 147 185 147 185 147 187 c 0,21,22
 148 210 148 210 150.5 225.5 c 128,-1,23
 153 241 153 241 162 251 c 0,24,25
 169 260 169 260 179.5 269.5 c 128,-1,26
 190 279 190 279 202 287 c 0,27,28
 214 296 214 296 227 304 c 1,29,30
 238 312 238 312 245 322 c 0,31,32
 250 330 250 330 254.5 338.5 c 128,-1,33
 259 347 259 347 259 357 c 0,34,35
 259 376 259 376 246 397 c 1,36,37
 232 415 232 415 199 416 c 0,38,39
 164 416 164 416 151 393 c 1,40,41
 137 371 137 371 136 346 c 1,42,-1
 51 346 l 1,43,44
 54 429 54 429 110 465 c 0,45,46
 145 487 145 487 195 486 c 0,47,48
 261 487 261 487 304 456 c 0,0,1
194 130 m 0,49,50
 217 130 217 130 231.5 115 c 128,-1,51
 246 100 246 100 245 77 c 256,52,53
 244 53 244 53 228.5 39.5 c 128,-1,54
 213 26 213 26 190 27 c 0,55,56
 167 27 167 27 152.5 41.5 c 128,-1,57
 138 56 138 56 139 80 c 256,58,59
 140 104 140 104 155.5 117.5 c 128,-1,60
 171 131 171 131 194 130 c 0,49,50
EndSplineSet
EndChar

StartChar: quote
Encoding: 10078 10078 65
Width: 492
GlyphClass: 2
Flags: W
LayerCount: 2
Fore
SplineSet
126 425 m 0,0,1
 169 425 169 425 192.5 400 c 128,-1,2
 216 375 216 375 222.5 337.5 c 128,-1,3
 229 300 229 300 220 256 c 128,-1,4
 211 212 211 212 188.5 174.5 c 128,-1,5
 166 137 166 137 130.5 112 c 128,-1,6
 95 87 95 87 51 87 c 1,7,-1
 51 123 l 1,8,9
 88 123 88 123 115 146 c 128,-1,10
 142 169 142 169 154 197 c 128,-1,11
 166 225 166 225 160 248 c 128,-1,12
 154 271 154 271 126 271 c 0,13,14
 95 271 95 271 73 293.5 c 128,-1,15
 51 316 51 316 51 348 c 0,16,17
 51 381 51 381 73 403 c 128,-1,18
 95 425 95 425 126 425 c 0,0,1
341 425 m 0,19,20
 384 425 384 425 407.5 400 c 128,-1,21
 431 375 431 375 437.5 337.5 c 128,-1,22
 444 300 444 300 435 256 c 128,-1,23
 426 212 426 212 403.5 174.5 c 128,-1,24
 381 137 381 137 345.5 112 c 128,-1,25
 310 87 310 87 266 87 c 1,26,-1
 266 123 l 1,27,28
 303 123 303 123 330 146 c 128,-1,29
 357 169 357 169 369 197 c 128,-1,30
 381 225 381 225 375 248 c 128,-1,31
 369 271 369 271 341 271 c 0,32,33
 310 271 310 271 288 293.5 c 128,-1,34
 266 316 266 316 266 348 c 0,35,36
 266 381 266 381 288 403 c 128,-1,37
 310 425 310 425 341 425 c 0,19,20
EndSplineSet
EndChar

StartChar: plus
Encoding: 10133 10133 66
Width: 399
GlyphClass: 2
Flags: W
LayerCount: 2
Fore
SplineSet
333 282 m 1,0,1
 344 282 344 282 346 274.5 c 128,-1,2
 348 267 348 267 348 256 c 0,3,4
 348 246 348 246 346 238 c 128,-1,5
 344 230 344 230 333 230 c 2,6,-1
 225 230 l 1,7,-1
 225 123 l 2,8,9
 225 113 225 113 218 110.5 c 128,-1,10
 211 108 211 108 200 108 c 256,11,12
 189 108 189 108 181.5 110.5 c 128,-1,13
 174 113 174 113 174 123 c 2,14,-1
 174 230 l 1,15,-1
 67 230 l 2,16,17
 56 230 56 230 53.5 238 c 128,-1,18
 51 246 51 246 51 256 c 0,19,20
 51 267 51 267 53 274.5 c 128,-1,21
 55 282 55 282 67 282 c 2,22,-1
 174 282 l 1,23,-1
 174 389 l 2,24,25
 174 400 174 400 181 402 c 128,-1,26
 188 404 188 404 200 404 c 256,27,28
 211 404 211 404 218 402 c 128,-1,29
 225 400 225 400 225 389 c 2,30,-1
 225 282 l 1,31,-1
 333 282 l 1,32,-1
 333 282 l 1,0,1
EndSplineSet
EndChar

StartChar: minus
Encoding: 10134 10134 67
Width: 399
GlyphClass: 2
Flags: W
LayerCount: 2
Fore
SplineSet
333 282 m 1,0,1
 344 282 344 282 346 274.5 c 128,-1,2
 348 267 348 267 348 256 c 0,3,4
 348 246 348 246 346 238 c 128,-1,5
 344 230 344 230 333 230 c 2,6,-1
 67 230 l 2,7,8
 56 230 56 230 53.5 238 c 128,-1,9
 51 246 51 246 51 256 c 0,10,11
 51 267 51 267 53 274.5 c 128,-1,12
 55 282 55 282 67 282 c 2,13,-1
 333 282 l 1,14,-1
 333 282 l 1,0,1
EndSplineSet
EndChar

StartChar: right
Encoding: 10145 10145 68
Width: 476
GlyphClass: 2
Flags: W
LayerCount: 2
Fore
SplineSet
230 425 m 1,0,-1
 425 256 l 1,1,-1
 230 87 l 1,2,-1
 230 185 l 1,3,-1
 51 185 l 1,4,-1
 51 328 l 1,5,-1
 230 328 l 1,6,-1
 230 425 l 1,7,-1
 230 425 l 1,0,-1
EndSplineSet
EndChar

StartChar: direction
Encoding: 10146 10146 69
Width: 542
GlyphClass: 2
Flags: W
LayerCount: 2
Fore
SplineSet
485 470 m 0,0,1
 490 465 490 465 491 459 c 128,-1,2
 492 453 492 453 488 444 c 128,-1,3
 484 435 484 435 477.5 423 c 128,-1,4
 471 411 471 411 463 392 c 0,5,6
 439 343 439 343 407 282 c 128,-1,7
 375 221 375 221 345 166 c 0,8,9
 310 103 310 103 273 36 c 1,10,-1
 246 230 l 1,11,-1
 51 259 l 1,12,13
 117 296 117 296 180 330 c 0,14,15
 208 344 208 344 237.5 360 c 128,-1,16
 267 376 267 376 297 391.5 c 128,-1,17
 327 407 327 407 355 421 c 128,-1,18
 383 435 383 435 408 447 c 0,19,20
 444 464 444 464 459 472.5 c 128,-1,21
 474 481 474 481 485 470 c 0,0,1
283 278 m 1,22,-1
 297 158 l 1,23,-1
 438 421 l 1,24,-1
 283 278 l 1,22,-1
EndSplineSet
EndChar

StartChar: forward
Encoding: 10150 10150 70
Width: 563
GlyphClass: 2
Flags: W
LayerCount: 2
Fore
SplineSet
328 206 m 1,0,1
 282 206 282 206 242 202.5 c 128,-1,2
 202 199 202 199 167.5 186 c 128,-1,3
 133 173 133 173 104 148.5 c 128,-1,4
 75 124 75 124 51 82 c 1,5,6
 68 152 68 152 104 207 c 0,7,8
 119 231 119 231 140.5 253 c 128,-1,9
 162 275 162 275 189.5 292.5 c 128,-1,10
 217 310 217 310 251.5 321 c 128,-1,11
 286 332 286 332 328 332 c 1,12,-1
 328 430 l 1,13,-1
 512 265 l 1,14,-1
 328 94 l 1,15,-1
 328 206 l 1,16,-1
 328 206 l 1,0,1
EndSplineSet
EndChar

StartChar: ccw
Encoding: 10226 10226 71
Width: 583
GlyphClass: 2
Flags: W
LayerCount: 2
Fore
SplineSet
324 454 m 256,0,1
 367 454 367 454 405 437.5 c 128,-1,2
 443 421 443 421 471.5 392.5 c 128,-1,3
 500 364 500 364 516 325.5 c 128,-1,4
 532 287 532 287 532 244 c 256,5,6
 532 201 532 201 516 162.5 c 128,-1,7
 500 124 500 124 471.5 95.5 c 128,-1,8
 443 67 443 67 405 50.5 c 128,-1,9
 367 34 367 34 324 34 c 0,10,11
 287 34 287 34 254 45.5 c 128,-1,12
 221 57 221 57 195 79 c 1,13,-1
 230 117 l 1,14,15
 249 103 249 103 273 94.5 c 128,-1,16
 297 86 297 86 324 86 c 0,17,18
 356 86 356 86 384.5 98.5 c 128,-1,19
 413 111 413 111 434.5 132.5 c 128,-1,20
 456 154 456 154 468 182.5 c 128,-1,21
 480 211 480 211 480 244 c 256,22,23
 480 277 480 277 468 305.5 c 128,-1,24
 456 334 456 334 434.5 355.5 c 128,-1,25
 413 377 413 377 384 389 c 128,-1,26
 355 401 355 401 324 401 c 256,27,28
 292 401 292 401 264 389.5 c 128,-1,29
 236 378 236 378 214.5 357 c 128,-1,30
 193 336 193 336 180.5 308.5 c 128,-1,31
 168 281 168 281 167 249 c 1,32,-1
 240 249 l 1,33,-1
 145 144 l 1,34,-1
 51 249 l 1,35,-1
 115 249 l 1,36,37
 116 292 116 292 132 329.5 c 128,-1,38
 148 367 148 367 177 394.5 c 128,-1,39
 206 422 206 422 243.5 438 c 128,-1,40
 281 454 281 454 324 454 c 256,0,1
EndSplineSet
EndChar

StartChar: cw
Encoding: 10227 10227 72
Width: 583
GlyphClass: 2
Flags: W
LayerCount: 2
Fore
SplineSet
260 466 m 256,0,1
 303 466 303 466 341 450 c 128,-1,2
 379 434 379 434 407 406.5 c 128,-1,3
 435 379 435 379 452 341.5 c 128,-1,4
 469 304 469 304 470 262 c 1,5,-1
 532 262 l 1,6,-1
 438 157 l 1,7,-1
 344 262 l 1,8,-1
 418 262 l 1,9,10
 417 294 417 294 404 321.5 c 128,-1,11
 391 349 391 349 369.5 369.5 c 128,-1,12
 348 390 348 390 320 402 c 128,-1,13
 292 414 292 414 260 414 c 0,14,15
 227 414 227 414 199 401.5 c 128,-1,16
 171 389 171 389 149.5 367.5 c 128,-1,17
 128 346 128 346 115.5 317.5 c 128,-1,18
 103 289 103 289 103 256 c 256,19,20
 103 223 103 223 115.5 195 c 128,-1,21
 128 167 128 167 149.5 145.5 c 128,-1,22
 171 124 171 124 199 111.5 c 128,-1,23
 227 99 227 99 260 99 c 0,24,25
 313 99 313 99 353 130 c 1,26,-1
 389 91 l 1,27,28
 362 71 362 71 329.5 58.5 c 128,-1,29
 297 46 297 46 260 46 c 0,30,31
 217 46 217 46 179 62.5 c 128,-1,32
 141 79 141 79 112.5 107.5 c 128,-1,33
 84 136 84 136 67.5 174.5 c 128,-1,34
 51 213 51 213 51 256 c 0,35,36
 51 300 51 300 67.5 338 c 128,-1,37
 84 376 84 376 112.5 404.5 c 128,-1,38
 141 433 141 433 179 449.5 c 128,-1,39
 217 466 217 466 260 466 c 256,0,1
EndSplineSet
EndChar

StartChar: left
Encoding: 11013 11013 73
Width: 476
GlyphClass: 2
Flags: W
LayerCount: 2
Fore
SplineSet
245 87 m 1,0,-1
 51 256 l 1,1,-1
 245 425 l 1,2,-1
 245 328 l 1,3,-1
 425 328 l 1,4,-1
 425 185 l 1,5,-1
 245 185 l 1,6,-1
 245 87 l 1,7,-1
 245 87 l 1,0,-1
EndSplineSet
EndChar

StartChar: up
Encoding: 11014 11014 74
Width: 440
GlyphClass: 2
Flags: W
LayerCount: 2
Fore
SplineSet
389 249 m 1,0,-1
 291 249 l 1,1,-1
 291 70 l 1,2,-1
 150 70 l 1,3,-1
 150 249 l 1,4,-1
 51 249 l 1,5,-1
 220 443 l 1,6,-1
 389 249 l 1,7,-1
 389 249 l 1,0,-1
EndSplineSet
EndChar

StartChar: down
Encoding: 11015 11015 75
Width: 440
GlyphClass: 2
Flags: W
LayerCount: 2
Fore
SplineSet
389 264 m 1,0,-1
 220 70 l 1,1,-1
 51 264 l 1,2,-1
 150 264 l 1,3,-1
 150 443 l 1,4,-1
 291 443 l 1,5,-1
 291 264 l 1,6,-1
 389 264 l 1,7,-1
 389 264 l 1,0,-1
EndSplineSet
EndChar

StartChar: add-to-list
Encoding: 57347 57347 76
Width: 614
GlyphClass: 2
Flags: W
LayerCount: 2
Fore
SplineSet
230 282 m 2,0,1
 241 282 241 282 248.5 274.5 c 128,-1,2
 256 267 256 267 256 256 c 0,3,4
 256 246 256 246 249 238 c 128,-1,5
 242 230 242 230 230 230 c 2,6,-1
 77 230 l 2,7,8
 66 230 66 230 58.5 238 c 128,-1,9
 51 246 51 246 51 256 c 0,10,11
 51 267 51 267 58.5 274.5 c 128,-1,12
 66 282 66 282 77 282 c 2,13,-1
 230 282 l 2,0,1
230 179 m 2,14,15
 241 179 241 179 248.5 172 c 128,-1,16
 256 165 256 165 256 154 c 0,17,18
 256 144 256 144 249 136 c 128,-1,19
 242 128 242 128 230 128 c 2,20,-1
 77 128 l 2,21,22
 66 128 66 128 58.5 135.5 c 128,-1,23
 51 143 51 143 51 154 c 0,24,25
 51 165 51 165 58.5 172 c 128,-1,26
 66 179 66 179 77 179 c 2,27,-1
 230 179 l 2,14,15
548 282 m 2,28,29
 559 282 559 282 561 274.5 c 128,-1,30
 563 267 563 267 563 256 c 0,31,32
 563 246 563 246 561 238 c 128,-1,33
 559 230 559 230 548 230 c 2,34,-1
 461 230 l 1,35,-1
 461 143 l 2,36,37
 461 133 461 133 453.5 130.5 c 128,-1,38
 446 128 446 128 435 128 c 256,39,40
 424 128 424 128 417 130.5 c 128,-1,41
 410 133 410 133 410 143 c 2,42,-1
 410 230 l 1,43,-1
 326 230 l 2,44,45
 315 230 315 230 312.5 238 c 128,-1,46
 310 246 310 246 310 256 c 0,47,48
 310 267 310 267 312 274.5 c 128,-1,49
 314 282 314 282 326 282 c 2,50,-1
 410 282 l 1,51,-1
 410 369 l 2,52,53
 410 380 410 380 417 382 c 128,-1,54
 424 384 424 384 435 384 c 256,55,56
 446 384 446 384 453.5 382 c 128,-1,57
 461 380 461 380 461 369 c 2,58,-1
 461 282 l 1,59,-1
 548 282 l 2,28,29
230 384 m 2,60,61
 241 384 241 384 248.5 377 c 128,-1,62
 256 370 256 370 256 358 c 0,63,64
 256 348 256 348 249 340.5 c 128,-1,65
 242 333 242 333 230 333 c 2,66,-1
 77 333 l 2,67,68
 66 333 66 333 58.5 340.5 c 128,-1,69
 51 348 51 348 51 358 c 0,70,71
 51 369 51 369 58.5 376.5 c 128,-1,72
 66 384 66 384 77 384 c 2,73,-1
 230 384 l 2,60,61
EndSplineSet
EndChar

StartChar: numbered-list
Encoding: 57349 57349 77
Width: 460
GlyphClass: 2
Flags: W
LayerCount: 2
Fore
SplineSet
102 179 m 2,0,1
 113 179 113 179 120.5 172 c 128,-1,2
 128 165 128 165 128 154 c 0,3,4
 128 144 128 144 121 136 c 128,-1,5
 114 128 114 128 102 128 c 2,6,-1
 77 128 l 2,7,8
 66 128 66 128 58.5 135.5 c 128,-1,9
 51 143 51 143 51 154 c 0,10,11
 51 165 51 165 58.5 172 c 128,-1,12
 66 179 66 179 77 179 c 2,13,-1
 102 179 l 2,0,1
102 282 m 2,14,15
 113 282 113 282 120.5 274.5 c 128,-1,16
 128 267 128 267 128 256 c 0,17,18
 128 246 128 246 121 238 c 128,-1,19
 114 230 114 230 102 230 c 2,20,-1
 77 230 l 2,21,22
 66 230 66 230 58.5 238 c 128,-1,23
 51 246 51 246 51 256 c 0,24,25
 51 267 51 267 58.5 274.5 c 128,-1,26
 66 282 66 282 77 282 c 2,27,-1
 102 282 l 2,14,15
102 384 m 2,28,29
 113 384 113 384 120.5 377 c 128,-1,30
 128 370 128 370 128 358 c 0,31,32
 128 348 128 348 121 340.5 c 128,-1,33
 114 333 114 333 102 333 c 2,34,-1
 77 333 l 2,35,36
 66 333 66 333 58.5 340.5 c 128,-1,37
 51 348 51 348 51 358 c 0,38,39
 51 369 51 369 58.5 376.5 c 128,-1,40
 66 384 66 384 77 384 c 2,41,-1
 102 384 l 2,28,29
205 333 m 2,42,43
 194 333 194 333 186.5 340.5 c 128,-1,44
 179 348 179 348 179 358 c 0,45,46
 179 369 179 369 186.5 376.5 c 128,-1,47
 194 384 194 384 205 384 c 2,48,-1
 384 384 l 2,49,50
 395 384 395 384 402.5 377 c 128,-1,51
 410 370 410 370 410 358 c 0,52,53
 410 348 410 348 402.5 340.5 c 128,-1,54
 395 333 395 333 384 333 c 2,55,-1
 205 333 l 2,42,43
384 282 m 2,56,57
 395 282 395 282 402.5 274.5 c 128,-1,58
 410 267 410 267 410 256 c 0,59,60
 410 246 410 246 402.5 238 c 128,-1,61
 395 230 395 230 384 230 c 2,62,-1
 205 230 l 2,63,64
 194 230 194 230 186.5 238 c 128,-1,65
 179 246 179 246 179 256 c 0,66,67
 179 267 179 267 186.5 274.5 c 128,-1,68
 194 282 194 282 205 282 c 2,69,-1
 384 282 l 2,56,57
384 179 m 2,70,71
 395 179 395 179 402.5 172 c 128,-1,72
 410 165 410 165 410 154 c 0,73,74
 410 144 410 144 402.5 136 c 128,-1,75
 395 128 395 128 384 128 c 2,76,-1
 205 128 l 2,77,78
 194 128 194 128 186.5 135.5 c 128,-1,79
 179 143 179 143 179 154 c 0,80,81
 179 165 179 165 186.5 172 c 128,-1,82
 194 179 194 179 205 179 c 2,83,-1
 384 179 l 2,70,71
EndSplineSet
EndChar

StartChar: left-bold
Encoding: 58541 58541 78
Width: 476
GlyphClass: 2
Flags: W
LayerCount: 2
Fore
SplineSet
245 451 m 1,0,-1
 245 353 l 1,1,-1
 425 353 l 1,2,-1
 425 160 l 1,3,-1
 245 160 l 1,4,-1
 245 61 l 1,5,-1
 51 256 l 1,6,-1
 245 451 l 1,7,-1
 245 451 l 1,0,-1
EndSplineSet
EndChar

StartChar: right-bold
Encoding: 58542 58542 79
Width: 476
GlyphClass: 2
Flags: W
LayerCount: 2
Fore
SplineSet
230 451 m 1,0,-1
 425 256 l 1,1,-1
 230 61 l 1,2,-1
 230 160 l 1,3,-1
 51 160 l 1,4,-1
 51 353 l 1,5,-1
 230 353 l 1,6,-1
 230 451 l 1,7,-1
 230 451 l 1,0,-1
EndSplineSet
EndChar

StartChar: up-bold
Encoding: 58543 58543 80
Width: 491
GlyphClass: 2
Flags: W
LayerCount: 2
Fore
SplineSet
440 249 m 1,0,-1
 342 249 l 1,1,-1
 342 70 l 1,2,-1
 150 70 l 1,3,-1
 150 249 l 1,4,-1
 51 249 l 1,5,-1
 246 443 l 1,6,-1
 440 249 l 1,7,-1
 440 249 l 1,0,-1
EndSplineSet
EndChar

StartChar: down-bold
Encoding: 58544 58544 81
Width: 491
GlyphClass: 2
Flags: W
LayerCount: 2
Fore
SplineSet
440 264 m 1,0,-1
 246 70 l 1,1,-1
 51 264 l 1,2,-1
 150 264 l 1,3,-1
 150 443 l 1,4,-1
 342 443 l 1,5,-1
 342 264 l 1,6,-1
 440 264 l 1,7,-1
 440 264 l 1,0,-1
EndSplineSet
EndChar

StartChar: add-user
Encoding: 59136 59136 82
Width: 614
GlyphClass: 2
Flags: W
LayerCount: 2
Fore
SplineSet
369 142 m 0,0,1
 417 125 417 125 439 108.5 c 128,-1,2
 461 92 461 92 461 80 c 2,3,-1
 461 26 l 1,4,-1
 51 26 l 1,5,-1
 51 129 l 1,6,7
 62 134 62 134 74.5 137 c 128,-1,8
 87 140 87 140 93 142 c 0,9,10
 141 159 141 159 159 177.5 c 128,-1,11
 177 196 177 196 177 226 c 0,12,13
 177 235 177 235 174 240 c 128,-1,14
 171 245 171 245 166.5 250 c 128,-1,15
 162 255 162 255 157.5 263 c 128,-1,16
 153 271 153 271 150 289 c 0,17,18
 148 296 148 296 144 298 c 128,-1,19
 140 300 140 300 136.5 302 c 128,-1,20
 133 304 133 304 129.5 310 c 128,-1,21
 126 316 126 316 125 333 c 0,22,23
 125 344 125 344 129 350 c 0,24,25
 131 353 131 353 134 354 c 1,26,27
 133 361 133 361 132 370 c 0,28,29
 131 377 131 377 130 384 c 128,-1,30
 129 391 129 391 128 399 c 0,31,32
 127 408 127 408 130.5 423 c 128,-1,33
 134 438 134 438 145.5 452 c 128,-1,34
 157 466 157 466 177.5 476 c 128,-1,35
 198 486 198 486 230 486 c 0,36,37
 264 486 264 486 284.5 476 c 128,-1,38
 305 466 305 466 316.5 452 c 128,-1,39
 328 438 328 438 331.5 423.5 c 128,-1,40
 335 409 335 409 334 399 c 0,41,42
 333 391 333 391 332 384 c 128,-1,43
 331 377 331 377 330 370 c 0,44,45
 328 362 328 362 327 354 c 1,46,47
 329 353 329 353 331 350 c 0,48,49
 333 348 333 348 334.5 343.5 c 128,-1,50
 336 339 336 339 336 333 c 0,51,52
 335 317 335 317 331.5 310.5 c 128,-1,53
 328 304 328 304 324.5 302 c 128,-1,54
 321 300 321 300 317 298 c 128,-1,55
 313 296 313 296 312 289 c 0,56,57
 309 272 309 272 304 263.5 c 128,-1,58
 299 255 299 255 294.5 250 c 128,-1,59
 290 245 290 245 287 240.5 c 128,-1,60
 284 236 284 236 284 226 c 0,61,62
 284 195 284 195 302 177 c 128,-1,63
 320 159 320 159 369 142 c 0,0,1
563 282 m 1,64,-1
 563 230 l 1,65,-1
 486 230 l 1,66,-1
 486 154 l 1,67,-1
 435 154 l 1,68,-1
 435 230 l 1,69,-1
 358 230 l 1,70,-1
 358 282 l 1,71,-1
 435 282 l 1,72,-1
 435 358 l 1,73,-1
 486 358 l 1,74,-1
 486 282 l 1,75,-1
 563 282 l 1,64,-1
EndSplineSet
EndChar

StartChar: circled-help
Encoding: 59140 59140 83
Width: 575
GlyphClass: 2
Flags: W
LayerCount: 2
Fore
SplineSet
285 492 m 0,0,1
 334 493 334 493 377 475 c 128,-1,2
 420 457 420 457 452 425.5 c 128,-1,3
 484 394 484 394 503 351.5 c 128,-1,4
 522 309 522 309 523 260 c 256,5,6
 524 211 524 211 506 168 c 128,-1,7
 488 125 488 125 456.5 92 c 128,-1,8
 425 59 425 59 382.5 40.5 c 128,-1,9
 340 22 340 22 291 20 c 0,10,11
 242 20 242 20 199 38 c 128,-1,12
 156 56 156 56 123.5 87.5 c 128,-1,13
 91 119 91 119 72 161.5 c 128,-1,14
 53 204 53 204 52 253 c 256,15,16
 51 302 51 302 69 345 c 128,-1,17
 87 388 87 388 119 420.5 c 128,-1,18
 151 453 151 453 193.5 472.5 c 128,-1,19
 236 492 236 492 285 492 c 0,0,1
284 113 m 2,20,21
 299 113 299 113 308.5 122.5 c 128,-1,22
 318 132 318 132 318 146 c 0,23,24
 319 161 319 161 309.5 171 c 128,-1,25
 300 181 300 181 285 181 c 2,26,-1
 284 181 l 2,27,28
 270 181 270 181 260 172 c 128,-1,29
 250 163 250 163 249 148 c 1,30,31
 249 133 249 133 258.5 123.5 c 128,-1,32
 268 114 268 114 283 113 c 1,33,-1
 284 113 l 2,20,21
369 281 m 0,34,35
 382 298 382 298 382 321 c 0,36,37
 382 360 382 360 354 380 c 0,38,39
 327 399 327 399 286 399 c 0,40,41
 253 399 253 399 232 386 c 0,42,43
 197 364 197 364 196 311 c 1,44,-1
 196 309 l 1,45,-1
 252 309 l 1,46,-1
 252 311 l 2,47,48
 252 324 252 324 260 339 c 0,49,50
 267 351 267 351 288 351 c 256,51,52
 308 351 308 351 314 341 c 1,53,54
 322 331 322 331 323 318 c 0,55,56
 323 309 323 309 314 298 c 0,57,58
 310 292 310 292 304 288 c 0,59,60
 303 287 303 287 287.5 276.5 c 128,-1,61
 272 266 272 266 263 255 c 0,62,63
 258 248 258 248 256.5 238.5 c 128,-1,64
 255 229 255 229 254 215 c 1,65,-1
 254 211 l 1,66,-1
 309 211 l 1,67,-1
 309 213 l 2,68,69
 309 220 309 220 309.5 222 c 128,-1,70
 310 224 310 224 311 227 c 0,71,72
 314 237 314 237 326 246 c 2,73,-1
 340 255 l 1,74,75
 350 263 350 263 357.5 269.5 c 128,-1,76
 365 276 365 276 369 281 c 0,34,35
EndSplineSet
EndChar

StartChar: circled-info
Encoding: 59141 59141 84
Width: 575
GlyphClass: 2
Flags: W
LayerCount: 2
Fore
SplineSet
285 492 m 0,0,1
 334 493 334 493 377 475 c 128,-1,2
 420 457 420 457 452 425.5 c 128,-1,3
 484 394 484 394 503 351.5 c 128,-1,4
 522 309 522 309 523 260 c 256,5,6
 524 211 524 211 506 168 c 128,-1,7
 488 125 488 125 456.5 92 c 128,-1,8
 425 59 425 59 382.5 40.5 c 128,-1,9
 340 22 340 22 291 20 c 0,10,11
 242 20 242 20 199 38 c 128,-1,12
 156 56 156 56 123.5 87.5 c 128,-1,13
 91 119 91 119 72 161.5 c 128,-1,14
 53 204 53 204 52 253 c 256,15,16
 51 302 51 302 69 345 c 128,-1,17
 87 388 87 388 119 420.5 c 128,-1,18
 151 453 151 453 193.5 472.5 c 128,-1,19
 236 492 236 492 285 492 c 0,0,1
311 414 m 0,20,21
 287 414 287 414 276.5 400.5 c 128,-1,22
 266 387 266 387 266 376 c 0,23,24
 265 362 265 362 273.5 353.5 c 128,-1,25
 282 345 282 345 299 345 c 0,26,27
 319 345 319 345 330.5 357 c 128,-1,28
 342 369 342 369 342 384 c 0,29,30
 342 395 342 395 335 404.5 c 128,-1,31
 328 414 328 414 311 414 c 0,20,21
250 110 m 256,32,33
 262 110 262 110 289.5 121.5 c 128,-1,34
 317 133 317 133 347 163 c 1,35,-1
 338 175 l 1,36,37
 326 166 326 166 315 161.5 c 128,-1,38
 304 157 304 157 301 157 c 0,39,40
 294 157 294 157 299 176 c 2,41,-1
 321 258 l 2,42,43
 327 281 327 281 324.5 294 c 128,-1,44
 322 307 322 307 309 307 c 0,45,46
 295 307 295 307 264.5 293.5 c 128,-1,47
 234 280 234 280 205 254 c 1,48,-1
 213 241 l 1,49,50
 222 247 222 247 235 252.5 c 128,-1,51
 248 258 248 258 251 258 c 0,52,53
 257 258 257 258 251 241 c 1,54,-1
 232 163 l 2,55,56
 224 130 224 130 231 120 c 128,-1,57
 238 110 238 110 250 110 c 256,32,33
EndSplineSet
EndChar

StartChar: eye
Encoding: 59146 59146 85
Width: 614
GlyphClass: 2
Flags: W
LayerCount: 2
Fore
SplineSet
307 399 m 0,0,1
 369 399 369 399 417.5 379.5 c 128,-1,2
 466 360 466 360 498 335 c 128,-1,3
 530 310 530 310 546.5 286.5 c 128,-1,4
 563 263 563 263 563 256 c 256,5,6
 563 249 563 249 546.5 225.5 c 128,-1,7
 530 202 530 202 498 177 c 128,-1,8
 466 152 466 152 418 132.5 c 128,-1,9
 370 113 370 113 307 113 c 0,10,11
 244 113 244 113 196 132.5 c 128,-1,12
 148 152 148 152 116 177 c 128,-1,13
 84 202 84 202 67.5 225.5 c 128,-1,14
 51 249 51 249 51 256 c 256,15,16
 51 263 51 263 67.5 286.5 c 128,-1,17
 84 310 84 310 116 335 c 128,-1,18
 148 360 148 360 196 379.5 c 128,-1,19
 244 399 244 399 307 399 c 0,0,1
307 146 m 256,20,21
 331 146 331 146 351.5 155 c 128,-1,22
 372 164 372 164 387 179 c 128,-1,23
 402 194 402 194 411.5 213.5 c 128,-1,24
 421 233 421 233 421 256 c 256,25,26
 421 279 421 279 411.5 299 c 128,-1,27
 402 319 402 319 387 334 c 128,-1,28
 372 349 372 349 351.5 358 c 128,-1,29
 331 367 331 367 307 367 c 256,30,31
 283 367 283 367 263 358 c 128,-1,32
 243 349 243 349 227.5 334 c 128,-1,33
 212 319 212 319 203 299 c 128,-1,34
 194 279 194 279 194 256 c 256,35,36
 194 233 194 233 203 213.5 c 128,-1,37
 212 194 212 194 227.5 179 c 128,-1,38
 243 164 243 164 263 155 c 128,-1,39
 283 146 283 146 307 146 c 256,20,21
307 256 m 0,40,41
 310 253 310 253 320 254.5 c 128,-1,42
 330 256 330 256 339.5 258 c 128,-1,43
 349 260 349 260 357 260.5 c 128,-1,44
 365 261 365 261 365 256 c 0,45,46
 365 233 365 233 348 217.5 c 128,-1,47
 331 202 331 202 307 202 c 256,48,49
 283 202 283 202 267 217.5 c 128,-1,50
 251 233 251 233 251 256 c 0,51,52
 251 280 251 280 267.5 295.5 c 128,-1,53
 284 311 284 311 307 311 c 0,54,55
 313 311 313 311 312.5 304 c 128,-1,56
 312 297 312 297 309.5 288 c 128,-1,57
 307 279 307 279 305 269.5 c 128,-1,58
 303 260 303 260 307 256 c 0,40,41
EndSplineSet
EndChar

StartChar: tag
Encoding: 59148 59148 86
Width: 593
GlyphClass: 2
Flags: W
LayerCount: 2
Fore
SplineSet
535 502 m 0,0,1
 545 472 545 472 542.5 445 c 128,-1,2
 540 418 540 418 528.5 395 c 128,-1,3
 517 372 517 372 500 352.5 c 128,-1,4
 483 333 483 333 465 319 c 1,5,-1
 474 307 l 2,6,7
 477 302 477 302 478 294 c 128,-1,8
 479 286 479 286 477 280 c 2,9,-1
 453 199 l 2,10,11
 451 194 451 194 445 186.5 c 128,-1,12
 439 179 439 179 434 175 c 2,13,-1
 197 7 l 2,14,15
 189 1 189 1 179.5 0.5 c 128,-1,16
 170 0 170 0 164 9 c 2,17,-1
 56 165 l 2,18,19
 50 174 50 174 51.5 185 c 128,-1,20
 53 196 53 196 62 202 c 2,21,-1
 300 370 l 2,22,23
 305 374 305 374 313.5 376.5 c 128,-1,24
 322 379 322 379 328 379 c 2,25,-1
 409 379 l 2,26,27
 415 379 415 379 422 375 c 128,-1,28
 429 371 429 371 433 366 c 2,29,-1
 447 345 l 1,30,31
 460 355 460 355 474.5 370 c 128,-1,32
 489 385 489 385 499 403.5 c 128,-1,33
 509 422 509 422 512 444 c 128,-1,34
 515 466 515 466 506 492 c 0,35,36
 504 498 504 498 507 504 c 128,-1,37
 510 510 510 510 515 512 c 0,38,39
 521 514 521 514 527 511 c 128,-1,40
 533 508 533 508 535 502 c 0,0,1
424 262 m 1,41,42
 444 278 444 278 441 303 c 1,43,44
 436 301 436 301 432.5 299 c 128,-1,45
 429 297 429 297 425 295 c 256,46,47
 421 293 421 293 419 293 c 0,48,49
 410 293 410 293 404 302 c 1,50,51
 402 308 402 308 404.5 314.5 c 128,-1,52
 407 321 407 321 413 323 c 1,53,54
 425 330 l 1,55,56
 414 338 414 338 401.5 338 c 128,-1,57
 389 338 389 338 378 330 c 0,58,59
 364 321 364 321 360.5 304 c 128,-1,60
 357 287 357 287 368 272 c 0,61,62
 377 258 377 258 393.5 255.5 c 128,-1,63
 410 253 410 253 424 262 c 1,41,42
EndSplineSet
EndChar

StartChar: upload-cloud
Encoding: 59153 59153 87
Width: 614
GlyphClass: 2
Flags: W
LayerCount: 2
Fore
SplineSet
440 330 m 0,0,1
 466 330 466 330 488.5 320.5 c 128,-1,2
 511 311 511 311 527.5 295 c 128,-1,3
 544 279 544 279 553.5 256.5 c 128,-1,4
 563 234 563 234 563 210 c 256,5,6
 563 185 563 185 553.5 163 c 128,-1,7
 544 141 544 141 527.5 125 c 128,-1,8
 511 109 511 109 488.5 99.5 c 128,-1,9
 466 90 466 90 440 90 c 2,10,-1
 343 90 l 1,11,-1
 343 187 l 1,12,-1
 397 187 l 1,13,-1
 307 305 l 1,14,-1
 218 187 l 1,15,-1
 271 187 l 1,16,-1
 271 90 l 1,17,-1
 144 90 l 2,18,19
 125 90 125 90 108 97 c 128,-1,20
 91 104 91 104 78.5 116.5 c 128,-1,21
 66 129 66 129 58.5 145.5 c 128,-1,22
 51 162 51 162 51 180 c 0,23,24
 51 218 51 218 78 244.5 c 128,-1,25
 105 271 105 271 144 271 c 0,26,27
 151 271 151 271 155 270 c 1,28,29
 154 275 154 275 154 280 c 128,-1,30
 154 285 154 285 154 290 c 0,31,32
 154 318 154 318 164.5 342 c 128,-1,33
 175 366 175 366 193.5 384 c 128,-1,34
 212 402 212 402 236.5 412.5 c 128,-1,35
 261 423 261 423 290 423 c 0,36,37
 336 423 336 423 372 396.5 c 128,-1,38
 408 370 408 370 420 328 c 1,39,40
 425 329 425 329 430 329.5 c 128,-1,41
 435 330 435 330 440 330 c 0,0,1
EndSplineSet
EndChar

StartChar: reply
Encoding: 59154 59154 88
Width: 563
GlyphClass: 2
Flags: W
LayerCount: 2
Fore
SplineSet
512 82 m 1,0,1
 488 124 488 124 459 148.5 c 128,-1,2
 430 173 430 173 395.5 186 c 128,-1,3
 361 199 361 199 322 202.5 c 128,-1,4
 283 206 283 206 237 206 c 1,5,-1
 237 94 l 1,6,-1
 51 265 l 1,7,-1
 237 430 l 1,8,-1
 237 332 l 1,9,10
 279 332 279 332 313 321 c 128,-1,11
 347 310 347 310 374 292.5 c 128,-1,12
 401 275 401 275 422 252.5 c 128,-1,13
 443 230 443 230 459 207 c 0,14,15
 495 152 495 152 512 82 c 1,0,1
EndSplineSet
EndChar

StartChar: reply-all
Encoding: 59155 59155 89
Width: 614
GlyphClass: 2
Flags: W
LayerCount: 2
Fore
SplineSet
128 265 m 1,0,-1
 237 165 l 1,1,-1
 237 94 l 1,2,-1
 51 265 l 1,3,-1
 237 430 l 1,4,-1
 237 361 l 1,5,-1
 128 265 l 1,0,-1
365 332 m 1,6,7
 400 332 400 332 427.5 321 c 128,-1,8
 455 310 455 310 475.5 292.5 c 128,-1,9
 496 275 496 275 510.5 252.5 c 128,-1,10
 525 230 525 230 535 207 c 0,11,12
 558 152 558 152 563 82 c 1,13,14
 539 124 539 124 517 148.5 c 128,-1,15
 495 173 495 173 472 186 c 128,-1,16
 449 199 449 199 422.5 202.5 c 128,-1,17
 396 206 396 206 365 206 c 1,18,-1
 365 94 l 1,19,-1
 179 265 l 1,20,-1
 365 430 l 1,21,-1
 365 332 l 1,6,7
EndSplineSet
EndChar

StartChar: code
Encoding: 59156 59156 90
Width: 614
GlyphClass: 2
Flags: W
LayerCount: 2
Fore
SplineSet
246 402 m 0,0,1
 254 395 254 395 254 386 c 128,-1,2
 254 377 254 377 246 371 c 2,3,-1
 120 256 l 1,4,-1
 246 140 l 2,5,6
 254 134 254 134 254 125 c 128,-1,7
 254 116 254 116 246 109 c 0,8,9
 231 94 231 94 215 109 c 1,10,-1
 51 256 l 1,11,-1
 215 402 l 1,12,13
 231 417 231 417 246 402 c 0,0,1
563 256 m 1,14,-1
 400 109 l 2,15,16
 384 94 384 94 369 109 c 0,17,18
 362 116 362 116 361.5 125 c 128,-1,19
 361 134 361 134 369 140 c 2,20,-1
 496 256 l 1,21,-1
 369 371 l 2,22,23
 362 377 362 377 361.5 386 c 128,-1,24
 361 395 361 395 369 402 c 0,25,26
 384 417 384 417 400 402 c 2,27,-1
 563 256 l 1,14,-1
EndSplineSet
EndChar

StartChar: export
Encoding: 59157 59157 91
Width: 614
GlyphClass: 2
Flags: W
LayerCount: 2
Fore
SplineSet
435 136 m 1,0,-1
 486 178 l 1,1,-1
 486 82 l 2,2,3
 486 72 486 72 479 64 c 128,-1,4
 472 56 472 56 461 56 c 2,5,-1
 77 56 l 2,6,7
 66 56 66 56 58.5 64 c 128,-1,8
 51 72 51 72 51 82 c 2,9,-1
 51 364 l 2,10,11
 51 375 51 375 58.5 382 c 128,-1,12
 66 389 66 389 77 389 c 2,13,-1
 224 389 l 1,14,15
 210 378 210 378 199.5 369 c 128,-1,16
 189 360 189 360 182 353 c 0,17,18
 174 345 174 345 169 338 c 1,19,-1
 102 338 l 1,20,-1
 102 108 l 1,21,-1
 435 108 l 1,22,-1
 435 136 l 1,0,-1
393 286 m 1,23,24
 351 286 351 286 322 282 c 128,-1,25
 293 278 293 278 270.5 265.5 c 128,-1,26
 248 253 248 253 228.5 230.5 c 128,-1,27
 209 208 209 208 187 172 c 1,28,29
 190 228 190 228 213 273 c 0,30,31
 222 292 222 292 237 311 c 128,-1,32
 252 330 252 330 274 344 c 128,-1,33
 296 358 296 358 325 367 c 128,-1,34
 354 376 354 376 393 376 c 1,35,-1
 393 456 l 1,36,-1
 563 328 l 1,37,-1
 393 195 l 1,38,-1
 393 286 l 1,23,24
EndSplineSet
EndChar

StartChar: print
Encoding: 59158 59158 92
Width: 604
GlyphClass: 2
Flags: W
LayerCount: 2
Fore
SplineSet
85 346 m 2,0,1
 74 346 74 346 74.5 354 c 128,-1,2
 75 362 75 362 80 365 c 0,3,4
 83 366 83 366 97.5 371 c 128,-1,5
 112 376 112 376 128.5 382 c 128,-1,6
 145 388 145 388 161 392.5 c 128,-1,7
 177 397 177 397 182 397 c 2,8,-1
 205 397 l 1,9,-1
 205 474 l 1,10,-1
 399 474 l 1,11,-1
 399 397 l 1,12,-1
 423 397 l 2,13,14
 428 397 428 397 443.5 392.5 c 128,-1,15
 459 388 459 388 476 382 c 128,-1,16
 493 376 493 376 507 371 c 128,-1,17
 521 366 521 366 524 365 c 0,18,19
 530 363 530 363 530.5 354.5 c 128,-1,20
 531 346 531 346 520 346 c 2,21,-1
 85 346 l 2,0,1
525 317 m 2,22,23
 535 317 535 317 544 307.5 c 128,-1,24
 553 298 553 298 553 287 c 2,25,-1
 553 198 l 2,26,27
 553 187 553 187 544.5 177 c 128,-1,28
 536 167 536 167 525 167 c 2,29,-1
 474 167 l 1,30,-1
 497 39 l 1,31,-1
 108 39 l 1,32,-1
 130 167 l 1,33,-1
 80 167 l 2,34,35
 69 167 69 167 60 176.5 c 128,-1,36
 51 186 51 186 51 198 c 2,37,-1
 51 287 l 2,38,39
 51 298 51 298 60 307.5 c 128,-1,40
 69 317 69 317 80 317 c 2,41,-1
 525 317 l 2,22,23
445 90 m 1,42,-1
 410 256 l 1,43,-1
 195 256 l 1,44,-1
 159 90 l 1,45,-1
 445 90 l 1,42,-1
EndSplineSet
EndChar

StartChar: retweet
Encoding: 59159 59159 93
Width: 614
GlyphClass: 2
Flags: W
LayerCount: 2
Fore
SplineSet
318 174 m 1,0,-1
 384 102 l 1,1,-1
 155 102 l 2,2,3
 133 102 133 102 118 117.5 c 128,-1,4
 103 133 103 133 103 154 c 2,5,-1
 103 308 l 1,6,-1
 51 308 l 1,7,-1
 141 410 l 1,8,-1
 230 308 l 1,9,-1
 179 308 l 1,10,-1
 179 174 l 1,11,-1
 318 174 l 1,0,-1
563 205 m 1,12,-1
 474 102 l 1,13,-1
 384 205 l 1,14,-1
 436 205 l 1,15,-1
 436 338 l 1,16,-1
 296 338 l 1,17,-1
 230 410 l 1,18,-1
 461 410 l 2,19,20
 481 410 481 410 496.5 395 c 128,-1,21
 512 380 512 380 512 358 c 2,22,-1
 512 205 l 1,23,-1
 563 205 l 1,12,-1
EndSplineSet
EndChar

StartChar: comment
Encoding: 59160 59160 94
Width: 512
GlyphClass: 2
Flags: W
LayerCount: 2
Fore
SplineSet
410 435 m 1,0,1
 432 435 432 435 446.5 420.5 c 128,-1,2
 461 406 461 406 461 384 c 2,3,-1
 461 205 l 2,4,5
 461 185 461 185 446 169.5 c 128,-1,6
 431 154 431 154 410 154 c 2,7,-1
 307 154 l 1,8,-1
 307 77 l 1,9,-1
 205 154 l 1,10,-1
 102 154 l 2,11,12
 82 154 82 154 66.5 169 c 128,-1,13
 51 184 51 184 51 205 c 2,14,-1
 51 384 l 2,15,16
 51 406 51 406 66.5 420.5 c 128,-1,17
 82 435 82 435 102 435 c 2,18,-1
 410 435 l 1,19,-1
 410 435 l 1,0,1
EndSplineSet
EndChar

StartChar: chat
Encoding: 59168 59168 95
Width: 614
GlyphClass: 2
Flags: W
LayerCount: 2
Fore
SplineSet
379 200 m 2,0,1
 381 200 381 200 382 200.5 c 128,-1,2
 383 201 383 201 384 201 c 1,3,-1
 384 154 l 2,4,5
 384 134 384 134 369 118 c 128,-1,6
 354 102 354 102 333 102 c 2,7,-1
 205 102 l 1,8,-1
 128 26 l 1,9,-1
 128 102 l 1,10,-1
 102 102 l 2,11,12
 82 102 82 102 66.5 117.5 c 128,-1,13
 51 133 51 133 51 154 c 2,14,-1
 51 307 l 2,15,16
 51 329 51 329 66.5 343.5 c 128,-1,17
 82 358 82 358 102 358 c 2,18,-1
 200 358 l 1,19,-1
 200 200 l 1,20,-1
 379 200 l 2,0,1
512 486 m 2,21,22
 534 486 534 486 548.5 471.5 c 128,-1,23
 563 457 563 457 563 435 c 2,24,-1
 563 282 l 2,25,26
 563 262 563 262 548.5 246 c 128,-1,27
 534 230 534 230 512 230 c 2,28,-1
 486 230 l 1,29,-1
 486 154 l 1,30,-1
 410 230 l 1,31,-1
 230 230 l 1,32,-1
 230 435 l 2,33,34
 230 457 230 457 245.5 471.5 c 128,-1,35
 261 486 261 486 282 486 c 2,36,-1
 512 486 l 2,21,22
EndSplineSet
EndChar

StartChar: vcard
Encoding: 59170 59170 96
Width: 614
GlyphClass: 2
Flags: W
LayerCount: 2
Fore
SplineSet
512 461 m 2,0,1
 534 461 534 461 548.5 446 c 128,-1,2
 563 431 563 431 563 410 c 2,3,-1
 563 102 l 2,4,5
 563 82 563 82 548.5 66.5 c 128,-1,6
 534 51 534 51 512 51 c 2,7,-1
 102 51 l 2,8,9
 82 51 82 51 66.5 66.5 c 128,-1,10
 51 82 51 82 51 102 c 2,11,-1
 51 410 l 2,12,13
 51 432 51 432 66.5 446.5 c 128,-1,14
 82 461 82 461 102 461 c 2,15,-1
 512 461 l 2,0,1
512 410 m 1,16,-1
 102 410 l 1,17,-1
 102 102 l 1,18,-1
 512 102 l 1,19,-1
 512 410 l 1,16,-1
282 157 m 1,20,-1
 154 157 l 1,21,-1
 154 203 l 1,22,-1
 282 203 l 1,23,-1
 282 157 l 1,20,-1
282 233 m 1,24,-1
 154 233 l 1,25,-1
 154 280 l 1,26,-1
 282 280 l 1,27,-1
 282 233 l 1,24,-1
282 310 m 1,28,-1
 154 310 l 1,29,-1
 154 356 l 1,30,-1
 282 356 l 1,31,-1
 282 310 l 1,28,-1
459 193 m 0,32,33
 460 193 460 193 460.5 187 c 128,-1,34
 461 181 461 181 461 174 c 2,35,-1
 461 157 l 1,36,-1
 333 157 l 1,37,-1
 333 174 l 2,38,39
 333 181 333 181 333.5 187 c 128,-1,40
 334 193 334 193 336 193 c 0,41,42
 347 196 347 196 357 201 c 0,43,44
 365 205 365 205 372 211.5 c 128,-1,45
 379 218 379 218 379 226 c 256,46,47
 379 234 379 234 375 240.5 c 128,-1,48
 371 247 371 247 365 254.5 c 128,-1,49
 359 262 359 262 355 273 c 128,-1,50
 351 284 351 284 351 300 c 0,51,52
 351 327 351 327 361 341.5 c 128,-1,53
 371 356 371 356 397 356 c 256,54,55
 424 356 424 356 433.5 341.5 c 128,-1,56
 443 327 443 327 443 300 c 0,57,58
 443 284 443 284 438.5 273 c 128,-1,59
 434 262 434 262 429 254.5 c 128,-1,60
 424 247 424 247 419.5 240.5 c 128,-1,61
 415 234 415 234 415 226 c 256,62,63
 415 218 415 218 421.5 211.5 c 128,-1,64
 428 205 428 205 436 201 c 0,65,66
 447 196 447 196 459 193 c 0,32,33
EndSplineSet
EndChar

StartChar: address
Encoding: 59171 59171 97
Width: 614
GlyphClass: 2
Flags: W
LayerCount: 2
Fore
SplineSet
269 486 m 2,0,1
 279 486 279 486 280 476 c 2,2,-1
 280 36 l 2,3,4
 280 26 280 26 269 26 c 2,5,-1
 246 26 l 2,6,7
 236 26 236 26 236 36 c 2,8,-1
 236 261 l 1,9,-1
 145 261 l 2,10,11
 137 261 137 261 131 264 c 0,12,13
 127 265 127 265 123.5 266.5 c 128,-1,14
 120 268 120 268 118 270 c 2,15,-1
 56 312 l 2,16,17
 51 315 51 315 51 321 c 256,18,19
 51 326 51 326 56 329 c 2,20,-1
 118 371 l 2,21,22
 120 373 120 373 123.5 374.5 c 128,-1,23
 127 376 127 376 131 377 c 1,24,25
 134 379 134 379 138 379 c 128,-1,26
 142 379 142 379 145 379 c 2,27,-1
 236 379 l 1,28,-1
 236 476 l 2,29,30
 236 486 236 486 246 486 c 2,31,-1
 269 486 l 2,0,1
558 380 m 2,32,33
 563 377 563 377 563 372 c 256,34,35
 563 367 563 367 558 364 c 2,36,-1
 498 322 l 2,37,38
 495 320 495 320 491.5 318 c 128,-1,39
 488 316 488 316 484 315 c 0,40,41
 476 312 476 312 470 312 c 2,42,-1
 315 312 l 1,43,-1
 295 430 l 1,44,-1
 470 430 l 2,45,46
 473 430 473 430 476.5 430 c 128,-1,47
 480 430 480 430 484 428 c 0,48,49
 489 426 489 426 498 422 c 1,50,-1
 558 380 l 2,32,33
EndSplineSet
EndChar

StartChar: location
Encoding: 59172 59172 98
Width: 358
GlyphClass: 2
Flags: W
LayerCount: 2
Fore
SplineSet
179 461 m 256,0,1
 206 461 206 461 229 450.5 c 128,-1,2
 252 440 252 440 269.5 423 c 128,-1,3
 287 406 287 406 297 382.5 c 128,-1,4
 307 359 307 359 307 333 c 0,5,6
 307 287 307 287 286.5 237.5 c 128,-1,7
 266 188 266 188 243 146 c 0,8,9
 215 97 215 97 179 51 c 1,10,11
 142 97 142 97 115 146 c 0,12,13
 91 188 91 188 71 237.5 c 128,-1,14
 51 287 51 287 51 333 c 0,15,16
 51 360 51 360 61.5 383 c 128,-1,17
 72 406 72 406 89 423 c 128,-1,18
 106 440 106 440 129 450.5 c 128,-1,19
 152 461 152 461 179 461 c 256,0,1
179 262 m 256,20,21
 208 262 208 262 228.5 282.5 c 128,-1,22
 249 303 249 303 249 332 c 256,23,24
 249 361 249 361 228.5 380.5 c 128,-1,25
 208 400 208 400 179 400 c 256,26,27
 150 400 150 400 130.5 380 c 128,-1,28
 111 360 111 360 111 332 c 256,29,30
 111 303 111 303 130.5 282.5 c 128,-1,31
 150 262 150 262 179 262 c 256,20,21
EndSplineSet
EndChar

StartChar: map
Encoding: 59175 59175 99
Width: 614
GlyphClass: 2
Flags: W
LayerCount: 2
Fore
SplineSet
555 384 m 2,0,1
 563 379 563 379 563 369 c 2,2,-1
 563 70 l 2,3,4
 563 60 563 60 555 54 c 0,5,6
 550 51 550 51 547 51 c 0,7,8
 542 51 542 51 538 54 c 2,9,-1
 427 124 l 1,10,-1
 316 54 l 2,11,12
 307 49 307 49 299 54 c 2,13,-1
 187 124 l 1,14,-1
 77 54 l 2,15,16
 69 49 69 49 59 54 c 0,17,18
 51 59 51 59 51 70 c 2,19,-1
 51 369 l 2,20,21
 51 379 51 379 59 384 c 2,22,-1
 179 459 l 2,23,24
 187 464 187 464 197 459 c 2,25,-1
 307 389 l 1,26,-1
 419 459 l 2,27,28
 427 464 427 464 435 459 c 2,29,-1
 555 384 l 2,0,1
171 413 m 1,30,-1
 85 359 l 1,31,-1
 85 100 l 1,32,-1
 171 154 l 1,33,-1
 171 413 l 1,30,-1
291 359 m 1,34,-1
 205 413 l 1,35,-1
 205 154 l 1,36,-1
 291 100 l 1,37,-1
 291 359 l 1,34,-1
411 413 m 1,38,-1
 324 359 l 1,39,-1
 324 100 l 1,40,-1
 411 154 l 1,41,-1
 411 413 l 1,38,-1
529 359 m 1,42,-1
 443 413 l 1,43,-1
 443 154 l 1,44,-1
 529 100 l 1,45,-1
 529 359 l 1,42,-1
EndSplineSet
EndChar

StartChar: compass
Encoding: 59176 59176 100
Width: 595
GlyphClass: 2
Flags: W
LayerCount: 2
Fore
SplineSet
295 502 m 1,0,1
 345 503 345 503 390 484 c 128,-1,2
 435 465 435 465 469 432 c 128,-1,3
 503 399 503 399 523 354.5 c 128,-1,4
 543 310 543 310 544 260 c 0,5,6
 545 209 545 209 526 164 c 128,-1,7
 507 119 507 119 474 85 c 128,-1,8
 441 51 441 51 396.5 31 c 128,-1,9
 352 11 352 11 301 10 c 0,10,11
 250 10 250 10 205.5 28.5 c 128,-1,12
 161 47 161 47 127 80.5 c 128,-1,13
 93 114 93 114 73 158 c 128,-1,14
 53 202 53 202 52 253 c 256,15,16
 51 304 51 304 70 349 c 128,-1,17
 89 394 89 394 122 428 c 128,-1,18
 155 462 155 462 199.5 482 c 128,-1,19
 244 502 244 502 295 502 c 1,0,1
301 62 m 256,20,21
 341 62 341 62 376 78 c 128,-1,22
 411 94 411 94 437 120.5 c 128,-1,23
 463 147 463 147 478 183 c 128,-1,24
 493 219 493 219 493 259 c 0,25,26
 492 299 492 299 476 334.5 c 128,-1,27
 460 370 460 370 433.5 396 c 128,-1,28
 407 422 407 422 371.5 436.5 c 128,-1,29
 336 451 336 451 296 451 c 256,30,31
 256 451 256 451 220.5 435 c 128,-1,32
 185 419 185 419 159 392.5 c 128,-1,33
 133 366 133 366 118 330 c 128,-1,34
 103 294 103 294 104 254 c 0,35,36
 104 214 104 214 120 178.5 c 128,-1,37
 136 143 136 143 162.5 117 c 128,-1,38
 189 91 189 91 225 76.5 c 128,-1,39
 261 62 261 62 301 62 c 256,20,21
181 141 m 1,40,41
 186 174 186 174 196 206 c 0,42,43
 204 233 204 233 216 261 c 128,-1,44
 228 289 228 289 248 308 c 0,45,46
 266 326 266 326 295 338.5 c 128,-1,47
 324 351 324 351 350 359 c 0,48,49
 382 368 382 368 415 374 c 1,50,51
 410 341 410 341 400 309 c 0,52,53
 392 282 392 282 379.5 253.5 c 128,-1,54
 367 225 367 225 348 207 c 256,55,56
 330 189 330 189 301 176.5 c 128,-1,57
 272 164 272 164 246 156 c 0,58,59
 214 146 214 146 181 141 c 1,40,41
273 283 m 1,60,61
 262 273 262 273 262 258.5 c 128,-1,62
 262 244 262 244 273 232 c 0,63,64
 283 221 283 221 297.5 221 c 128,-1,65
 312 221 312 221 324 232 c 0,66,67
 339 247 339 247 350 274.5 c 128,-1,68
 361 302 361 302 369 328 c 1,69,70
 342 321 342 321 315 310 c 128,-1,71
 288 299 288 299 273 283 c 1,60,61
EndSplineSet
EndChar

StartChar: trash
Encoding: 59177 59177 101
Width: 491
GlyphClass: 2
Flags: W
LayerCount: 2
Fore
SplineSet
77 311 m 1,0,1
 110 293 110 293 155 284 c 128,-1,2
 200 275 200 275 246 275 c 256,3,4
 292 275 292 275 337 284 c 128,-1,5
 382 293 382 293 415 311 c 1,6,-1
 387 62 l 2,7,8
 386 57 386 57 376 49 c 128,-1,9
 366 41 366 41 347.5 33 c 128,-1,10
 329 25 329 25 302.5 18 c 128,-1,11
 276 11 276 11 246 11 c 256,12,13
 215 11 215 11 189.5 18 c 128,-1,14
 164 25 164 25 145.5 33 c 128,-1,15
 127 41 127 41 116 49 c 128,-1,16
 105 57 105 57 104 62 c 2,17,-1
 77 311 l 1,0,1
327 465 m 1,18,19
 377 456 377 456 408.5 437 c 128,-1,20
 440 418 440 418 440 400 c 2,21,-1
 440 395 l 2,22,23
 440 381 440 381 425 367.5 c 128,-1,24
 410 354 410 354 383.5 344.5 c 128,-1,25
 357 335 357 335 321.5 329.5 c 128,-1,26
 286 324 286 324 246 324 c 256,27,28
 206 324 206 324 170 329.5 c 128,-1,29
 134 335 134 335 108 344.5 c 128,-1,30
 82 354 82 354 66.5 367.5 c 128,-1,31
 51 381 51 381 51 395 c 2,32,-1
 51 400 l 2,33,34
 51 417 51 417 83.5 436.5 c 128,-1,35
 116 456 116 456 165 465 c 1,36,-1
 186 489 l 2,37,38
 193 497 193 497 201 500 c 128,-1,39
 209 503 209 503 222 503 c 2,40,-1
 269 503 l 2,41,42
 283 503 283 503 291 500.5 c 128,-1,43
 299 498 299 498 305 489 c 2,44,-1
 327 465 l 1,18,19
342 408 m 1,45,46
 329 423 329 423 317 436 c 0,47,48
 308 447 308 447 299.5 458 c 128,-1,49
 291 469 291 469 289 472 c 0,50,51
 282 480 282 480 272 480 c 2,52,-1
 220 480 l 2,53,54
 209 480 209 480 204 472 c 0,55,56
 201 469 201 469 192 458 c 128,-1,57
 183 447 183 447 174 436 c 0,58,59
 163 423 163 423 150 408 c 1,60,-1
 193 408 l 1,61,-1
 225 441 l 1,62,-1
 267 441 l 1,63,-1
 299 408 l 1,64,-1
 342 408 l 1,45,46
EndSplineSet
EndChar

StartChar: doc
Encoding: 59184 59184 102
Width: 460
GlyphClass: 2
Flags: W
LayerCount: 2
Fore
SplineSet
358 486 m 2,0,1
 380 486 380 486 395 471.5 c 128,-1,2
 410 457 410 457 410 435 c 2,3,-1
 410 77 l 2,4,5
 410 57 410 57 395 41.5 c 128,-1,6
 380 26 380 26 358 26 c 2,7,-1
 102 26 l 2,8,9
 82 26 82 26 66.5 41 c 128,-1,10
 51 56 51 56 51 77 c 2,11,-1
 51 435 l 2,12,13
 51 457 51 457 66.5 471.5 c 128,-1,14
 82 486 82 486 102 486 c 2,15,-1
 358 486 l 2,0,1
358 435 m 1,16,-1
 102 435 l 1,17,-1
 102 77 l 1,18,-1
 358 77 l 1,19,-1
 358 435 l 1,16,-1
EndSplineSet
EndChar

StartChar: text-doc-inverted
Encoding: 59185 59185 103
Width: 460
GlyphClass: 2
Flags: W
LayerCount: 2
Fore
SplineSet
358 486 m 2,0,1
 380 486 380 486 395 471.5 c 128,-1,2
 410 457 410 457 410 435 c 2,3,-1
 410 77 l 2,4,5
 410 57 410 57 395 41.5 c 128,-1,6
 380 26 380 26 358 26 c 2,7,-1
 102 26 l 2,8,9
 82 26 82 26 66.5 41 c 128,-1,10
 51 56 51 56 51 77 c 2,11,-1
 51 435 l 2,12,13
 51 457 51 457 66.5 471.5 c 128,-1,14
 82 486 82 486 102 486 c 2,15,-1
 358 486 l 2,0,1
123 335 m 1,16,-1
 338 335 l 1,17,-1
 338 380 l 1,18,-1
 123 380 l 1,19,-1
 123 335 l 1,16,-1
338 179 m 1,20,-1
 123 179 l 1,21,-1
 123 134 l 1,22,-1
 338 134 l 1,23,-1
 338 179 l 1,20,-1
338 281 m 1,24,-1
 124 281 l 1,25,-1
 124 234 l 1,26,-1
 338 234 l 1,27,-1
 338 281 l 1,24,-1
EndSplineSet
EndChar

StartChar: docs
Encoding: 59190 59190 104
Width: 615
GlyphClass: 2
Flags: W
LayerCount: 2
Fore
SplineSet
548 323 m 2,0,1
 556 321 556 321 560.5 314 c 128,-1,2
 565 307 565 307 563 299 c 2,3,-1
 486 14 l 2,4,5
 484 6 484 6 477 2.5 c 128,-1,6
 470 -1 470 -1 462 1 c 2,7,-1
 254 57 l 2,8,9
 246 59 246 59 242 66 c 128,-1,10
 238 73 238 73 240 81 c 2,11,-1
 252 128 l 1,12,-1
 160 103 l 2,13,14
 152 101 152 101 144 105 c 128,-1,15
 136 109 136 109 134 117 c 2,16,-1
 52 425 l 2,17,18
 50 433 50 433 54 440 c 128,-1,19
 58 447 58 447 67 450 c 2,20,-1
 299 512 l 2,21,22
 307 514 307 514 314.5 510.5 c 128,-1,23
 322 507 322 507 324 499 c 2,24,-1
 357 374 l 1,25,-1
 548 323 l 2,0,1
167 142 m 1,26,-1
 368 197 l 1,27,-1
 294 473 l 1,28,-1
 93 420 l 1,29,-1
 167 142 l 1,26,-1
520 292 m 1,30,-1
 368 334 l 1,31,-1
 407 189 l 2,32,33
 409 181 409 181 404.5 174.5 c 128,-1,34
 400 168 400 168 392 166 c 2,35,-1
 292 139 l 1,36,-1
 279 87 l 1,37,-1
 453 40 l 1,38,-1
 520 292 l 1,30,-1
EndSplineSet
EndChar

StartChar: landscape-doc
Encoding: 59191 59191 105
Width: 614
GlyphClass: 2
Flags: W
LayerCount: 2
Fore
SplineSet
51 384 m 2,0,1
 51 406 51 406 66.5 420.5 c 128,-1,2
 82 435 82 435 102 435 c 2,3,-1
 512 435 l 2,4,5
 534 435 534 435 548.5 420.5 c 128,-1,6
 563 406 563 406 563 384 c 2,7,-1
 563 128 l 2,8,9
 563 108 563 108 548.5 92.5 c 128,-1,10
 534 77 534 77 512 77 c 2,11,-1
 102 77 l 2,12,13
 82 77 82 77 66.5 92.5 c 128,-1,14
 51 108 51 108 51 128 c 2,15,-1
 51 384 l 2,0,1
102 384 m 1,16,-1
 102 128 l 1,17,-1
 512 128 l 1,18,-1
 512 384 l 1,19,-1
 102 384 l 1,16,-1
EndSplineSet
EndChar

StartChar: rss
Encoding: 59194 59194 106
Width: 491
GlyphClass: 2
Flags: W
LayerCount: 2
Fore
SplineSet
51 451 m 1,0,1
 132 451 132 451 202.5 420 c 128,-1,2
 273 389 273 389 326 336.5 c 128,-1,3
 379 284 379 284 409.5 212.5 c 128,-1,4
 440 141 440 141 440 61 c 1,5,-1
 380 61 l 1,6,7
 380 129 380 129 354 189 c 128,-1,8
 328 249 328 249 283.5 293.5 c 128,-1,9
 239 338 239 338 179 363.5 c 128,-1,10
 119 389 119 389 51 389 c 1,11,-1
 51 451 l 1,0,1
51 329 m 1,12,13
 106 329 106 329 155.5 308 c 128,-1,14
 205 287 205 287 241.5 250.5 c 128,-1,15
 278 214 278 214 298.5 165.5 c 128,-1,16
 319 117 319 117 319 61 c 1,17,-1
 259 61 l 1,18,19
 259 104 259 104 242.5 141.5 c 128,-1,20
 226 179 226 179 198 207.5 c 128,-1,21
 170 236 170 236 132 252 c 128,-1,22
 94 268 94 268 51 268 c 1,23,-1
 51 329 l 1,12,13
110 177 m 256,24,25
 134 177 134 177 151 160 c 128,-1,26
 168 143 168 143 168 119 c 0,27,28
 168 95 168 95 150.5 78 c 128,-1,29
 133 61 133 61 110 61 c 256,30,31
 86 61 86 61 68.5 78 c 128,-1,32
 51 95 51 95 51 119 c 0,33,34
 51 144 51 144 68.5 160.5 c 128,-1,35
 86 177 86 177 110 177 c 256,24,25
EndSplineSet
EndChar

StartChar: share
Encoding: 59196 59196 107
Width: 512
GlyphClass: 2
Flags: W
LayerCount: 2
Fore
SplineSet
384 179 m 0,0,1
 417 179 417 179 439 157 c 128,-1,2
 461 135 461 135 461 102 c 0,3,4
 461 70 461 70 439 48 c 128,-1,5
 417 26 417 26 384 26 c 0,6,7
 352 26 352 26 329.5 48.5 c 128,-1,8
 307 71 307 71 307 102 c 0,9,10
 307 106 307 106 307.5 109.5 c 128,-1,11
 308 113 308 113 308 116 c 1,12,-1
 175 196 l 1,13,14
 153 180 153 180 128 179 c 0,15,16
 96 179 96 179 73.5 201.5 c 128,-1,17
 51 224 51 224 51 256 c 0,18,19
 51 289 51 289 73.5 311 c 128,-1,20
 96 333 96 333 128 333 c 0,21,22
 155 333 155 333 175 317 c 1,23,-1
 308 397 l 1,24,25
 308 400 308 400 307.5 403.5 c 128,-1,26
 307 407 307 407 307 410 c 0,27,28
 307 443 307 443 329.5 464.5 c 128,-1,29
 352 486 352 486 384 486 c 0,30,31
 417 486 417 486 439 464 c 128,-1,32
 461 442 461 442 461 410 c 0,33,34
 461 378 461 378 439 355.5 c 128,-1,35
 417 333 417 333 384 333 c 0,36,37
 357 333 357 333 338 349 c 1,38,-1
 204 269 l 1,39,40
 205 265 205 265 205 256 c 0,41,42
 205 248 205 248 204 244 c 1,43,-1
 338 164 l 1,44,45
 356 179 356 179 384 179 c 0,0,1
EndSplineSet
EndChar

StartChar: cart
Encoding: 59197 59197 108
Width: 563
GlyphClass: 2
Flags: W
LayerCount: 2
Fore
SplineSet
128 77 m 0,0,1
 128 97 128 97 143.5 112.5 c 128,-1,2
 159 128 159 128 179 128 c 0,3,4
 201 128 201 128 215.5 112.5 c 128,-1,5
 230 97 230 97 230 77 c 0,6,7
 230 55 230 55 215.5 40.5 c 128,-1,8
 201 26 201 26 179 26 c 0,9,10
 159 26 159 26 143.5 40.5 c 128,-1,11
 128 55 128 55 128 77 c 0,0,1
384 77 m 0,12,13
 384 97 384 97 399.5 112.5 c 128,-1,14
 415 128 415 128 435 128 c 0,15,16
 457 128 457 128 471.5 112.5 c 128,-1,17
 486 97 486 97 486 77 c 0,18,19
 486 55 486 55 471.5 40.5 c 128,-1,20
 457 26 457 26 435 26 c 0,21,22
 415 26 415 26 399.5 40.5 c 128,-1,23
 384 55 384 55 384 77 c 0,12,13
219 198 m 2,24,25
 201 193 201 193 201.5 186 c 128,-1,26
 202 179 202 179 224 179 c 2,27,-1
 512 179 l 1,28,-1
 512 140 l 2,29,30
 512 130 512 130 502 130 c 2,31,-1
 435 130 l 1,32,-1
 179 130 l 1,33,-1
 167 130 l 2,34,35
 157 130 157 130 157 140 c 2,36,-1
 157 179 l 1,37,-1
 152 203 l 1,38,-1
 101 435 l 1,39,-1
 51 435 l 1,40,-1
 51 476 l 2,41,42
 51 486 51 486 61 486 c 2,43,-1
 141 486 l 2,44,45
 151 486 151 486 152 476 c 2,46,-1
 152 432 l 1,47,-1
 512 432 l 1,48,-1
 512 292 l 2,49,50
 512 281 512 281 503 279 c 2,51,-1
 219 198 l 2,24,25
EndSplineSet
EndChar

StartChar: shareable
Encoding: 59198 59198 109
Width: 614
GlyphClass: 2
Flags: W
LayerCount: 2
Fore
SplineSet
225 256 m 0,0,1
 225 291 225 291 249 314.5 c 128,-1,2
 273 338 273 338 307 338 c 256,3,4
 341 338 341 338 365 314.5 c 128,-1,5
 389 291 389 291 389 256 c 0,6,7
 389 222 389 222 365 198 c 128,-1,8
 341 174 341 174 307 174 c 256,9,10
 273 174 273 174 249 198 c 128,-1,11
 225 222 225 222 225 256 c 0,0,1
167 287 m 0,12,13
 165 280 165 280 159 268 c 128,-1,14
 153 256 153 256 133 256 c 2,15,-1
 51 256 l 1,16,-1
 51 317 l 1,17,-1
 112 317 l 1,18,19
 122 349 122 349 141 375 c 128,-1,20
 160 401 160 401 185.5 420 c 128,-1,21
 211 439 211 439 242 450 c 128,-1,22
 273 461 273 461 307 461 c 0,23,24
 350 461 350 461 387 445 c 128,-1,25
 424 429 424 429 453 401 c 0,26,27
 461 392 461 392 461 379.5 c 128,-1,28
 461 367 461 367 453 357 c 1,29,30
 444 349 444 349 431 349 c 128,-1,31
 418 349 418 349 409 357 c 1,32,33
 369 399 369 399 307 399 c 0,34,35
 255 399 255 399 216.5 367.5 c 128,-1,36
 178 336 178 336 167 287 c 0,12,13
563 256 m 1,37,-1
 563 195 l 1,38,-1
 503 195 l 1,39,40
 493 164 493 164 474 137.5 c 128,-1,41
 455 111 455 111 429.5 92 c 128,-1,42
 404 73 404 73 373 62 c 128,-1,43
 342 51 342 51 307 51 c 0,44,45
 264 51 264 51 227 67.5 c 128,-1,46
 190 84 190 84 163 112 c 0,47,48
 154 121 154 121 154 133.5 c 128,-1,49
 154 146 154 146 163 155 c 1,50,51
 171 164 171 164 184 164 c 128,-1,52
 197 164 197 164 206 155 c 0,53,54
 225 136 225 136 251.5 124.5 c 128,-1,55
 278 113 278 113 307 113 c 0,56,57
 359 113 359 113 397.5 145 c 128,-1,58
 436 177 436 177 447 225 c 0,59,60
 449 233 449 233 455.5 244.5 c 128,-1,61
 462 256 462 256 481 256 c 2,62,-1
 563 256 l 1,37,-1
EndSplineSet
EndChar

StartChar: login
Encoding: 59200 59200 110
Width: 563
GlyphClass: 2
Flags: W
LayerCount: 2
Fore
SplineSet
461 486 m 2,0,1
 483 486 483 486 497.5 471.5 c 128,-1,2
 512 457 512 457 512 435 c 2,3,-1
 512 77 l 2,4,5
 512 57 512 57 497 41.5 c 128,-1,6
 482 26 482 26 461 26 c 2,7,-1
 230 26 l 2,8,9
 210 26 210 26 195 41 c 128,-1,10
 180 56 180 56 180 77 c 2,11,-1
 180 128 l 1,12,-1
 230 128 l 1,13,-1
 230 77 l 1,14,-1
 461 77 l 1,15,-1
 461 435 l 1,16,-1
 230 435 l 1,17,-1
 230 358 l 1,18,-1
 180 358 l 1,19,-1
 180 435 l 2,20,21
 180 457 180 457 195 471.5 c 128,-1,22
 210 486 210 486 230 486 c 2,23,-1
 461 486 l 2,0,1
282 205 m 1,24,-1
 51 205 l 1,25,-1
 51 282 l 1,26,-1
 282 282 l 1,27,-1
 282 343 l 1,28,-1
 384 244 l 1,29,-1
 282 143 l 1,30,-1
 282 205 l 1,24,-1
EndSplineSet
EndChar

StartChar: logout
Encoding: 59201 59201 111
Width: 563
GlyphClass: 2
Flags: W
LayerCount: 2
Fore
SplineSet
308 128 m 1,0,-1
 358 128 l 1,1,-1
 358 77 l 2,2,3
 358 57 358 57 343.5 41.5 c 128,-1,4
 329 26 329 26 307 26 c 2,5,-1
 102 26 l 2,6,7
 82 26 82 26 66.5 41 c 128,-1,8
 51 56 51 56 51 77 c 2,9,-1
 51 435 l 2,10,11
 51 457 51 457 66.5 471.5 c 128,-1,12
 82 486 82 486 102 486 c 2,13,-1
 307 486 l 2,14,15
 329 486 329 486 343.5 471.5 c 128,-1,16
 358 457 358 457 358 435 c 2,17,-1
 358 358 l 1,18,-1
 308 358 l 1,19,-1
 308 435 l 1,20,-1
 102 435 l 1,21,-1
 102 77 l 1,22,-1
 308 77 l 1,23,-1
 308 128 l 1,0,-1
411 143 m 1,24,-1
 411 205 l 1,25,-1
 180 205 l 1,26,-1
 180 282 l 1,27,-1
 411 282 l 1,28,-1
 411 343 l 1,29,-1
 512 244 l 1,30,-1
 411 143 l 1,24,-1
EndSplineSet
EndChar

StartChar: resize-full
Encoding: 59204 59204 112
Width: 507
GlyphClass: 2
Flags: W
LayerCount: 2
Fore
SplineSet
295 459 m 1,0,-1
 457 459 l 1,1,-1
 457 297 l 1,2,-1
 406 360 l 1,3,-1
 331 283 l 1,4,-1
 280 334 l 1,5,-1
 357 409 l 1,6,-1
 295 459 l 1,0,-1
177 231 m 1,7,-1
 228 180 l 1,8,-1
 151 105 l 1,9,-1
 213 54 l 1,10,-1
 51 54 l 1,11,-1
 51 216 l 1,12,-1
 102 154 l 1,13,-1
 177 231 l 1,7,-1
EndSplineSet
EndChar

StartChar: resize-small
Encoding: 59206 59206 113
Width: 563
GlyphClass: 2
Flags: W
LayerCount: 2
Fore
SplineSet
131 152 m 1,0,-1
 77 203 l 1,1,-1
 228 203 l 1,2,-1
 228 51 l 1,3,-1
 177 105 l 1,4,-1
 102 26 l 1,5,-1
 51 77 l 1,6,-1
 131 152 l 1,0,-1
512 435 m 1,7,-1
 433 361 l 1,8,-1
 486 310 l 1,9,-1
 336 310 l 1,10,-1
 336 461 l 1,11,-1
 387 408 l 1,12,-1
 461 486 l 1,13,-1
 512 435 l 1,7,-1
EndSplineSet
EndChar

StartChar: popup
Encoding: 59212 59212 114
Width: 512
GlyphClass: 2
Flags: W
LayerCount: 2
Fore
SplineSet
410 461 m 2,0,1
 432 461 432 461 446.5 446 c 128,-1,2
 461 431 461 431 461 410 c 2,3,-1
 461 205 l 2,4,5
 461 185 461 185 446 169.5 c 128,-1,6
 431 154 431 154 410 154 c 2,7,-1
 205 154 l 2,8,9
 185 154 185 154 169.5 169 c 128,-1,10
 154 184 154 184 154 205 c 2,11,-1
 154 411 l 2,12,13
 154 431 154 431 168.5 446 c 128,-1,14
 183 461 183 461 205 461 c 2,15,-1
 410 461 l 2,0,1
410 410 m 1,16,-1
 205 410 l 1,17,-1
 205 205 l 1,18,-1
 410 205 l 1,19,-1
 410 410 l 1,16,-1
102 102 m 1,20,-1
 256 102 l 1,21,-1
 256 51 l 1,22,-1
 102 51 l 2,23,24
 82 51 82 51 66.5 66.5 c 128,-1,25
 51 82 51 82 51 102 c 2,26,-1
 51 256 l 1,27,-1
 102 256 l 1,28,-1
 102 102 l 1,20,-1
EndSplineSet
EndChar

StartChar: publish
Encoding: 59213 59213 115
Width: 614
GlyphClass: 2
Flags: W
LayerCount: 2
Fore
SplineSet
512 486 m 2,0,1
 534 486 534 486 548.5 471 c 128,-1,2
 563 456 563 456 563 435 c 2,3,-1
 563 128 l 2,4,5
 563 106 563 106 548.5 91.5 c 128,-1,6
 534 77 534 77 512 77 c 2,7,-1
 411 77 l 1,8,-1
 411 127 l 1,9,-1
 513 127 l 1,10,-1
 513 364 l 1,11,-1
 102 364 l 1,12,-1
 102 127 l 1,13,-1
 205 127 l 1,14,-1
 205 77 l 1,15,-1
 102 77 l 2,16,17
 82 77 82 77 66.5 91.5 c 128,-1,18
 51 106 51 106 51 128 c 2,19,-1
 51 435 l 2,20,21
 51 455 51 455 66.5 470.5 c 128,-1,22
 82 486 82 486 102 486 c 2,23,-1
 512 486 l 2,0,1
118 400 m 0,24,25
 137 400 137 400 137 420 c 0,26,27
 137 428 137 428 131.5 433 c 128,-1,28
 126 438 126 438 118 438 c 256,29,30
 110 438 110 438 104 433 c 128,-1,31
 98 428 98 428 98 420 c 256,32,33
 98 412 98 412 104 406 c 128,-1,34
 110 400 110 400 118 400 c 0,24,25
169 400 m 0,35,36
 188 400 188 400 188 420 c 0,37,38
 188 428 188 428 182.5 433 c 128,-1,39
 177 438 177 438 169 438 c 256,40,41
 161 438 161 438 155.5 433 c 128,-1,42
 150 428 150 428 150 420 c 256,43,44
 150 412 150 412 155.5 406 c 128,-1,45
 161 400 161 400 169 400 c 0,35,36
513 435 m 1,46,-1
 205 435 l 1,47,-1
 205 403 l 1,48,-1
 513 403 l 1,49,-1
 513 435 l 1,46,-1
430 179 m 1,50,-1
 353 179 l 1,51,-1
 353 26 l 1,52,-1
 259 26 l 1,53,-1
 259 179 l 1,54,-1
 182 179 l 1,55,-1
 306 302 l 1,56,-1
 430 179 l 1,50,-1
EndSplineSet
EndChar

StartChar: browser
Encoding: 59214 59214 116
Width: 614
GlyphClass: 2
Flags: W
LayerCount: 2
Fore
SplineSet
512 461 m 2,0,1
 534 461 534 461 548.5 445.5 c 128,-1,2
 563 430 563 430 563 410 c 2,3,-1
 563 102 l 2,4,5
 563 80 563 80 548.5 65.5 c 128,-1,6
 534 51 534 51 512 51 c 2,7,-1
 102 51 l 2,8,9
 82 51 82 51 66.5 66 c 128,-1,10
 51 81 51 81 51 102 c 2,11,-1
 51 410 l 2,12,13
 51 430 51 430 66.5 445.5 c 128,-1,14
 82 461 82 461 102 461 c 2,15,-1
 512 461 l 2,0,1
169 413 m 256,16,17
 161 413 161 413 155.5 407.5 c 128,-1,18
 150 402 150 402 150 394 c 256,19,20
 150 386 150 386 155.5 380.5 c 128,-1,21
 161 375 161 375 169 375 c 0,22,23
 188 375 188 375 188 394 c 0,24,25
 188 402 188 402 182.5 407.5 c 128,-1,26
 177 413 177 413 169 413 c 256,16,17
98 394 m 256,27,28
 98 386 98 386 104 380.5 c 128,-1,29
 110 375 110 375 118 375 c 0,30,31
 137 375 137 375 137 394 c 0,32,33
 137 402 137 402 131.5 407.5 c 128,-1,34
 126 413 126 413 118 413 c 256,35,36
 110 413 110 413 104 407.5 c 128,-1,37
 98 402 98 402 98 394 c 256,27,28
513 338 m 1,38,-1
 102 338 l 1,39,-1
 102 102 l 1,40,-1
 513 102 l 1,41,-1
 513 338 l 1,38,-1
513 410 m 1,42,-1
 205 410 l 1,43,-1
 205 379 l 1,44,-1
 513 379 l 1,45,-1
 513 410 l 1,42,-1
EndSplineSet
EndChar

StartChar: circled-down
Encoding: 59224 59224 117
Width: 573
GlyphClass: 2
Flags: W
LayerCount: 2
Fore
SplineSet
287 492 m 256,0,1
 336 492 336 492 378.5 473.5 c 128,-1,2
 421 455 421 455 453 422.5 c 128,-1,3
 485 390 485 390 503.5 347.5 c 128,-1,4
 522 305 522 305 522 256 c 256,5,6
 522 207 522 207 503.5 164.5 c 128,-1,7
 485 122 485 122 453 89.5 c 128,-1,8
 421 57 421 57 378.5 38.5 c 128,-1,9
 336 20 336 20 287 20 c 256,10,11
 238 20 238 20 195.5 38.5 c 128,-1,12
 153 57 153 57 120.5 89.5 c 128,-1,13
 88 122 88 122 69.5 164.5 c 128,-1,14
 51 207 51 207 51 256 c 256,15,16
 51 305 51 305 69.5 347.5 c 128,-1,17
 88 390 88 390 120.5 422.5 c 128,-1,18
 153 455 153 455 195.5 473.5 c 128,-1,19
 238 492 238 492 287 492 c 256,0,1
287 72 m 256,20,21
 325 72 325 72 358.5 86 c 128,-1,22
 392 100 392 100 417 125.5 c 128,-1,23
 442 151 442 151 456.5 184.5 c 128,-1,24
 471 218 471 218 471 256 c 256,25,26
 471 294 471 294 456.5 327.5 c 128,-1,27
 442 361 442 361 417 386.5 c 128,-1,28
 392 412 392 412 358.5 426 c 128,-1,29
 325 440 325 440 287 440 c 256,30,31
 249 440 249 440 215 426 c 128,-1,32
 181 412 181 412 156 386.5 c 128,-1,33
 131 361 131 361 116.5 327.5 c 128,-1,34
 102 294 102 294 102 256 c 256,35,36
 102 218 102 218 116.5 184.5 c 128,-1,37
 131 151 131 151 156 125.5 c 128,-1,38
 181 100 181 100 215 86 c 128,-1,39
 249 72 249 72 287 72 c 256,20,21
333 250 m 1,40,-1
 390 250 l 1,41,-1
 287 153 l 1,42,-1
 183 250 l 1,43,-1
 241 250 l 1,44,-1
 241 355 l 1,45,-1
 333 355 l 1,46,-1
 333 250 l 1,40,-1
EndSplineSet
EndChar

StartChar: circled-left
Encoding: 59225 59225 118
Width: 573
GlyphClass: 2
Flags: W
LayerCount: 2
Fore
SplineSet
522 256 m 256,0,1
 522 207 522 207 503.5 164.5 c 128,-1,2
 485 122 485 122 453 89.5 c 128,-1,3
 421 57 421 57 378.5 38.5 c 128,-1,4
 336 20 336 20 287 20 c 256,5,6
 238 20 238 20 195.5 38.5 c 128,-1,7
 153 57 153 57 120.5 89.5 c 128,-1,8
 88 122 88 122 69.5 164.5 c 128,-1,9
 51 207 51 207 51 256 c 256,10,11
 51 305 51 305 69.5 348 c 128,-1,12
 88 391 88 391 120.5 423 c 128,-1,13
 153 455 153 455 195.5 473.5 c 128,-1,14
 238 492 238 492 287 492 c 256,15,16
 336 492 336 492 378.5 473.5 c 128,-1,17
 421 455 421 455 453 423 c 128,-1,18
 485 391 485 391 503.5 348 c 128,-1,19
 522 305 522 305 522 256 c 256,0,1
102 256 m 256,20,21
 102 218 102 218 116.5 184.5 c 128,-1,22
 131 151 131 151 156 125.5 c 128,-1,23
 181 100 181 100 215 86 c 128,-1,24
 249 72 249 72 287 72 c 256,25,26
 325 72 325 72 358.5 86 c 128,-1,27
 392 100 392 100 417 125.5 c 128,-1,28
 442 151 442 151 456.5 184.5 c 128,-1,29
 471 218 471 218 471 256 c 256,30,31
 471 294 471 294 456.5 327.5 c 128,-1,32
 442 361 442 361 417 386.5 c 128,-1,33
 392 412 392 412 358.5 426 c 128,-1,34
 325 440 325 440 287 440 c 256,35,36
 249 440 249 440 215 426 c 128,-1,37
 181 412 181 412 156 386.5 c 128,-1,38
 131 361 131 361 116.5 327.5 c 128,-1,39
 102 294 102 294 102 256 c 256,20,21
281 210 m 1,40,-1
 281 153 l 1,41,-1
 183 256 l 1,42,-1
 281 360 l 1,43,-1
 281 302 l 1,44,-1
 385 302 l 1,45,-1
 385 210 l 1,46,-1
 281 210 l 1,40,-1
EndSplineSet
EndChar

StartChar: circled-right
Encoding: 59226 59226 119
Width: 573
GlyphClass: 2
Flags: W
LayerCount: 2
Fore
SplineSet
51 256 m 256,0,1
 51 305 51 305 69.5 347.5 c 128,-1,2
 88 390 88 390 120.5 422.5 c 128,-1,3
 153 455 153 455 195.5 473.5 c 128,-1,4
 238 492 238 492 287 492 c 256,5,6
 336 492 336 492 378.5 473.5 c 128,-1,7
 421 455 421 455 453 422.5 c 128,-1,8
 485 390 485 390 503.5 347.5 c 128,-1,9
 522 305 522 305 522 256 c 256,10,11
 522 207 522 207 503.5 164.5 c 128,-1,12
 485 122 485 122 453 89.5 c 128,-1,13
 421 57 421 57 378.5 38.5 c 128,-1,14
 336 20 336 20 287 20 c 256,15,16
 238 20 238 20 195.5 38.5 c 128,-1,17
 153 57 153 57 120.5 89.5 c 128,-1,18
 88 122 88 122 69.5 164.5 c 128,-1,19
 51 207 51 207 51 256 c 256,0,1
471 256 m 256,20,21
 471 294 471 294 456.5 327.5 c 128,-1,22
 442 361 442 361 417 386.5 c 128,-1,23
 392 412 392 412 358.5 426 c 128,-1,24
 325 440 325 440 287 440 c 256,25,26
 249 440 249 440 215 426 c 128,-1,27
 181 412 181 412 156 386.5 c 128,-1,28
 131 361 131 361 116.5 327.5 c 128,-1,29
 102 294 102 294 102 256 c 256,30,31
 102 218 102 218 116.5 184.5 c 128,-1,32
 131 151 131 151 156 125.5 c 128,-1,33
 181 100 181 100 215 86 c 128,-1,34
 249 72 249 72 287 72 c 256,35,36
 325 72 325 72 358.5 86 c 128,-1,37
 392 100 392 100 417 125.5 c 128,-1,38
 442 151 442 151 456.5 184.5 c 128,-1,39
 471 218 471 218 471 256 c 256,20,21
293 302 m 1,40,-1
 293 360 l 1,41,-1
 390 256 l 1,42,-1
 293 153 l 1,43,-1
 293 210 l 1,44,-1
 188 210 l 1,45,-1
 188 302 l 1,46,-1
 293 302 l 1,40,-1
EndSplineSet
EndChar

StartChar: circled-up
Encoding: 59227 59227 120
Width: 573
GlyphClass: 2
Flags: W
LayerCount: 2
Fore
SplineSet
287 20 m 256,0,1
 238 20 238 20 195.5 38.5 c 128,-1,2
 153 57 153 57 120.5 89.5 c 128,-1,3
 88 122 88 122 69.5 164.5 c 128,-1,4
 51 207 51 207 51 256 c 256,5,6
 51 305 51 305 69.5 348 c 128,-1,7
 88 391 88 391 120.5 423 c 128,-1,8
 153 455 153 455 195.5 473.5 c 128,-1,9
 238 492 238 492 287 492 c 256,10,11
 336 492 336 492 378.5 473.5 c 128,-1,12
 421 455 421 455 453 423 c 128,-1,13
 485 391 485 391 503.5 348 c 128,-1,14
 522 305 522 305 522 256 c 256,15,16
 522 207 522 207 503.5 164.5 c 128,-1,17
 485 122 485 122 453 89.5 c 128,-1,18
 421 57 421 57 378.5 38.5 c 128,-1,19
 336 20 336 20 287 20 c 256,0,1
287 440 m 256,20,21
 249 440 249 440 215 426 c 128,-1,22
 181 412 181 412 156 386.5 c 128,-1,23
 131 361 131 361 116.5 327.5 c 128,-1,24
 102 294 102 294 102 256 c 256,25,26
 102 218 102 218 116.5 184.5 c 128,-1,27
 131 151 131 151 156 125.5 c 128,-1,28
 181 100 181 100 215 86 c 128,-1,29
 249 72 249 72 287 72 c 256,30,31
 325 72 325 72 358.5 86 c 128,-1,32
 392 100 392 100 417 125.5 c 128,-1,33
 442 151 442 151 456.5 184.5 c 128,-1,34
 471 218 471 218 471 256 c 256,35,36
 471 294 471 294 456.5 327.5 c 128,-1,37
 442 361 442 361 417 386.5 c 128,-1,38
 392 412 392 412 358.5 426 c 128,-1,39
 325 440 325 440 287 440 c 256,20,21
241 262 m 1,40,-1
 183 262 l 1,41,-1
 287 360 l 1,42,-1
 390 262 l 1,43,-1
 333 262 l 1,44,-1
 333 158 l 1,45,-1
 241 158 l 1,46,-1
 241 262 l 1,40,-1
EndSplineSet
EndChar

StartChar: chevron-down
Encoding: 59228 59228 121
Width: 399
GlyphClass: 2
Flags: W
LayerCount: 2
Fore
SplineSet
340 293 m 0,0,1
 336 289 336 289 317 270.5 c 128,-1,2
 298 252 298 252 276 231 c 0,3,4
 250 206 250 206 220 178 c 0,5,6
 211 169 211 169 200 169 c 256,7,8
 189 169 189 169 179 178 c 0,9,10
 148 207 148 207 123 231 c 0,11,12
 101 251 101 251 82 270 c 128,-1,13
 63 289 63 289 59 293 c 0,14,15
 51 301 51 301 51 314 c 128,-1,16
 51 327 51 327 59 335 c 256,17,18
 67 343 67 343 78 343.5 c 128,-1,19
 89 344 89 344 99 335 c 2,20,-1
 200 239 l 1,21,-1
 300 335 l 2,22,23
 310 344 310 344 321 343.5 c 128,-1,24
 332 343 332 343 340 335 c 256,25,26
 348 327 348 327 348 314 c 128,-1,27
 348 301 348 301 340 293 c 0,0,1
EndSplineSet
EndChar

StartChar: chevron-left
Encoding: 59229 59229 122
Width: 276
GlyphClass: 2
Flags: W
LayerCount: 2
Fore
SplineSet
175 397 m 0,0,1
 183 405 183 405 195.5 405.5 c 128,-1,2
 208 406 208 406 216 397 c 0,3,4
 235 379 235 379 216 356 c 1,5,-1
 121 256 l 1,6,-1
 216 157 l 1,7,8
 235 134 235 134 216 116 c 0,9,10
 208 108 208 108 195.5 108 c 128,-1,11
 183 108 183 108 175 116 c 0,12,13
 171 120 171 120 152.5 139.5 c 128,-1,14
 134 159 134 159 114 180 c 0,15,16
 89 206 89 206 59 237 c 0,17,18
 51 245 51 245 51 256 c 0,19,20
 51 268 51 268 59 276 c 0,21,22
 89 307 89 307 114 333 c 0,23,24
 134 355 134 355 152.5 373.5 c 128,-1,25
 171 392 171 392 175 397 c 0,0,1
EndSplineSet
EndChar

StartChar: chevron-right
Encoding: 59230 59230 123
Width: 276
GlyphClass: 2
Flags: W
LayerCount: 2
Fore
SplineSet
101 397 m 0,0,1
 105 392 105 392 124 373 c 128,-1,2
 143 354 143 354 164 333 c 0,3,4
 189 307 189 307 217 276 c 0,5,6
 225 268 225 268 225 256 c 0,7,8
 225 245 225 245 217 237 c 0,9,10
 188 206 188 206 164 180 c 0,11,12
 144 158 144 158 124.5 139 c 128,-1,13
 105 120 105 120 101 116 c 0,14,15
 93 108 93 108 81 108 c 128,-1,16
 69 108 69 108 60 116 c 0,17,18
 42 134 42 134 60 157 c 1,19,-1
 156 256 l 1,20,-1
 60 356 l 1,21,22
 42 379 42 379 60 397 c 0,23,24
 68 405 68 405 80.5 405 c 128,-1,25
 93 405 93 405 101 397 c 0,0,1
EndSplineSet
EndChar

StartChar: chevron-up
Encoding: 59231 59231 124
Width: 399
GlyphClass: 2
Flags: W
LayerCount: 2
Fore
SplineSet
340 220 m 0,0,1
 348 212 348 212 348 199 c 128,-1,2
 348 186 348 186 340 178 c 256,3,4
 332 170 332 170 321 169.5 c 128,-1,5
 310 169 310 169 300 178 c 2,6,-1
 200 274 l 1,7,-1
 99 178 l 2,8,9
 89 169 89 169 78.5 169.5 c 128,-1,10
 68 170 68 170 59 178 c 256,11,12
 51 186 51 186 51 199 c 128,-1,13
 51 212 51 212 59 220 c 0,14,15
 63 224 63 224 82 242.5 c 128,-1,16
 101 261 101 261 123 282 c 0,17,18
 149 307 149 307 179 335 c 0,19,20
 187 343 187 343 200 343 c 256,21,22
 212 343 212 343 220 335 c 0,23,24
 251 306 251 306 276 282 c 0,25,26
 298 262 298 262 317 243 c 128,-1,27
 336 224 336 224 340 220 c 0,0,1
EndSplineSet
EndChar

StartChar: chevron-small-down
Encoding: 59232 59232 125
Width: 339
GlyphClass: 2
Flags: W
LayerCount: 2
Fore
SplineSet
258 317 m 2,0,1
 263 322 263 322 270.5 322.5 c 128,-1,2
 278 323 278 323 283 317 c 256,3,4
 288 312 288 312 288 305 c 128,-1,5
 288 298 288 298 283 293 c 2,6,-1
 182 195 l 2,7,8
 177 190 177 190 170 189.5 c 128,-1,9
 163 189 163 189 158 195 c 2,10,-1
 57 293 l 2,11,12
 52 298 52 298 52 305 c 128,-1,13
 52 312 52 312 57 317 c 256,14,15
 62 322 62 322 70 322.5 c 128,-1,16
 78 323 78 323 83 317 c 2,17,-1
 170 238 l 1,18,-1
 258 317 l 2,0,1
EndSplineSet
EndChar

StartChar: chevron-small-left
Encoding: 59233 59233 126
Width: 237
GlyphClass: 2
Flags: W
LayerCount: 2
Fore
SplineSet
180 169 m 2,0,1
 185 164 185 164 185 157 c 128,-1,2
 185 150 185 150 180 144 c 256,3,4
 175 139 175 139 168 139 c 128,-1,5
 161 139 161 139 156 144 c 2,6,-1
 57 244 l 2,7,8
 52 249 52 249 52 256.5 c 128,-1,9
 52 264 52 264 57 269 c 2,10,-1
 156 369 l 2,11,12
 161 374 161 374 168 374 c 128,-1,13
 175 374 175 374 180 369 c 256,14,15
 185 364 185 364 185 356.5 c 128,-1,16
 185 349 185 349 180 344 c 2,17,-1
 100 256 l 1,18,-1
 180 169 l 2,0,1
EndSplineSet
EndChar

StartChar: chevron-small-right
Encoding: 59234 59234 127
Width: 237
GlyphClass: 2
Flags: W
LayerCount: 2
Fore
SplineSet
138 256 m 1,0,-1
 57 344 l 2,1,2
 52 349 52 349 52 356.5 c 128,-1,3
 52 364 52 364 57 369 c 256,4,5
 62 374 62 374 69.5 374 c 128,-1,6
 77 374 77 374 82 369 c 2,7,-1
 180 269 l 2,8,9
 185 264 185 264 185 256.5 c 128,-1,10
 185 249 185 249 180 244 c 2,11,-1
 82 144 l 2,12,13
 77 139 77 139 69.5 139 c 128,-1,14
 62 139 62 139 57 144 c 256,15,16
 52 149 52 149 52 156.5 c 128,-1,17
 52 164 52 164 57 169 c 2,18,-1
 138 256 l 1,0,-1
EndSplineSet
EndChar

StartChar: chevron-small-up
Encoding: 59235 59235 128
Width: 339
GlyphClass: 2
Flags: W
LayerCount: 2
Fore
SplineSet
83 195 m 2,0,1
 78 190 78 190 70 189.5 c 128,-1,2
 62 189 62 189 57 195 c 256,3,4
 52 200 52 200 52 207.5 c 128,-1,5
 52 215 52 215 57 220 c 2,6,-1
 158 317 l 2,7,8
 163 322 163 322 170 322.5 c 128,-1,9
 177 323 177 323 182 317 c 2,10,-1
 283 220 l 2,11,12
 288 215 288 215 288 207.5 c 128,-1,13
 288 200 288 200 283 195 c 256,14,15
 278 190 278 190 270 189.5 c 128,-1,16
 262 189 262 189 257 195 c 2,17,-1
 170 275 l 1,18,-1
 83 195 l 2,0,1
EndSplineSet
EndChar

StartChar: chevron-thin-down
Encoding: 59236 59236 129
Width: 544
GlyphClass: 2
Flags: W
LayerCount: 2
Fore
SplineSet
272 186 m 1,0,-1
 463 369 l 2,1,2
 468 374 468 374 475 374 c 128,-1,3
 482 374 482 374 487 369 c 256,4,5
 492 364 492 364 492.5 356.5 c 128,-1,6
 493 349 493 349 487 344 c 2,7,-1
 285 143 l 2,8,9
 280 138 280 138 272.5 138 c 128,-1,10
 265 138 265 138 260 143 c 2,11,-1
 57 344 l 2,12,13
 52 349 52 349 52 356.5 c 128,-1,14
 52 364 52 364 57 369 c 256,15,16
 62 374 62 374 70 374 c 128,-1,17
 78 374 78 374 83 369 c 2,18,-1
 272 186 l 1,0,-1
EndSplineSet
EndChar

StartChar: chevron-thin-left
Encoding: 59237 59237 130
Width: 339
GlyphClass: 2
Flags: W
LayerCount: 2
Fore
SplineSet
283 67 m 2,0,1
 288 62 288 62 288 54.5 c 128,-1,2
 288 47 288 47 283 42 c 256,3,4
 278 37 278 37 270.5 37 c 128,-1,5
 263 37 263 37 258 42 c 2,6,-1
 57 244 l 2,7,8
 52 249 52 249 52 256.5 c 128,-1,9
 52 264 52 264 57 269 c 2,10,-1
 258 471 l 2,11,12
 263 476 263 476 270.5 476 c 128,-1,13
 278 476 278 476 283 471 c 256,14,15
 288 466 288 466 288 459 c 128,-1,16
 288 452 288 452 283 446 c 2,17,-1
 99 256 l 1,18,-1
 283 67 l 2,0,1
EndSplineSet
EndChar

StartChar: chevron-thin-right
Encoding: 59238 59238 131
Width: 339
GlyphClass: 2
Flags: W
LayerCount: 2
Fore
SplineSet
241 256 m 1,0,-1
 57 446 l 2,1,2
 52 451 52 451 52 458.5 c 128,-1,3
 52 466 52 466 57 471 c 256,4,5
 62 476 62 476 69.5 476 c 128,-1,6
 77 476 77 476 82 471 c 2,7,-1
 283 269 l 2,8,9
 288 264 288 264 288 256.5 c 128,-1,10
 288 249 288 249 283 244 c 2,11,-1
 82 42 l 2,12,13
 77 37 77 37 69.5 37 c 128,-1,14
 62 37 62 37 57 42 c 256,15,16
 52 47 52 47 52 54 c 128,-1,17
 52 61 52 61 57 67 c 2,18,-1
 241 256 l 1,0,-1
EndSplineSet
EndChar

StartChar: chevron-thin-up
Encoding: 59239 59239 132
Width: 544
GlyphClass: 2
Flags: W
LayerCount: 2
Fore
SplineSet
272 327 m 1,0,-1
 83 143 l 2,1,2
 78 138 78 138 70 138 c 128,-1,3
 62 138 62 138 57 143 c 256,4,5
 52 148 52 148 52 156 c 128,-1,6
 52 164 52 164 57 169 c 2,7,-1
 260 369 l 2,8,9
 265 374 265 374 272.5 374 c 128,-1,10
 280 374 280 374 285 369 c 2,11,-1
 487 169 l 2,12,13
 492 164 492 164 492.5 156 c 128,-1,14
 493 148 493 148 487 143 c 256,15,16
 482 138 482 138 475 138 c 128,-1,17
 468 138 468 138 463 143 c 2,18,-1
 272 327 l 1,0,-1
EndSplineSet
EndChar

StartChar: progress-0
Encoding: 59240 59240 133
Width: 614
GlyphClass: 2
Flags: W
LayerCount: 2
Fore
SplineSet
563 179 m 2,0,1
 563 157 563 157 548.5 142.5 c 128,-1,2
 534 128 534 128 512 128 c 2,3,-1
 102 128 l 2,4,5
 82 128 82 128 66.5 143 c 128,-1,6
 51 158 51 158 51 179 c 2,7,-1
 51 333 l 2,8,9
 51 353 51 353 66.5 368.5 c 128,-1,10
 82 384 82 384 102 384 c 2,11,-1
 512 384 l 2,12,13
 534 384 534 384 548.5 368.5 c 128,-1,14
 563 353 563 353 563 333 c 2,15,-1
 563 307 l 1,16,-1
 563 179 l 2,0,1
512 333 m 1,17,-1
 102 333 l 1,18,-1
 102 179 l 1,19,-1
 512 179 l 1,20,-1
 512 333 l 1,17,-1
EndSplineSet
EndChar

StartChar: progress-1
Encoding: 59241 59241 134
Width: 614
GlyphClass: 2
Flags: W
LayerCount: 2
Fore
SplineSet
563 179 m 2,0,1
 563 157 563 157 548.5 142.5 c 128,-1,2
 534 128 534 128 512 128 c 2,3,-1
 102 128 l 2,4,5
 82 128 82 128 66.5 143 c 128,-1,6
 51 158 51 158 51 179 c 2,7,-1
 51 333 l 2,8,9
 51 353 51 353 66.5 368.5 c 128,-1,10
 82 384 82 384 102 384 c 2,11,-1
 512 384 l 2,12,13
 534 384 534 384 548.5 368.5 c 128,-1,14
 563 353 563 353 563 333 c 2,15,-1
 563 307 l 1,16,-1
 563 179 l 2,0,1
512 333 m 1,17,-1
 102 333 l 1,18,-1
 102 179 l 1,19,-1
 512 179 l 1,20,-1
 512 333 l 1,17,-1
128 306 m 1,21,-1
 230 306 l 1,22,-1
 230 205 l 1,23,-1
 128 205 l 1,24,-1
 128 306 l 1,21,-1
EndSplineSet
EndChar

StartChar: progress-2
Encoding: 59242 59242 135
Width: 614
GlyphClass: 2
Flags: W
LayerCount: 2
Fore
SplineSet
563 179 m 2,0,1
 563 157 563 157 548.5 142.5 c 128,-1,2
 534 128 534 128 512 128 c 2,3,-1
 102 128 l 2,4,5
 82 128 82 128 66.5 143 c 128,-1,6
 51 158 51 158 51 179 c 2,7,-1
 51 333 l 2,8,9
 51 353 51 353 66.5 368.5 c 128,-1,10
 82 384 82 384 102 384 c 2,11,-1
 512 384 l 2,12,13
 534 384 534 384 548.5 368.5 c 128,-1,14
 563 353 563 353 563 333 c 2,15,-1
 563 307 l 1,16,-1
 563 179 l 2,0,1
512 333 m 1,17,-1
 102 333 l 1,18,-1
 102 179 l 1,19,-1
 512 179 l 1,20,-1
 512 333 l 1,17,-1
128 306 m 1,21,-1
 230 306 l 1,22,-1
 230 205 l 1,23,-1
 128 205 l 1,24,-1
 128 306 l 1,21,-1
256 306 m 1,25,-1
 358 306 l 1,26,-1
 358 205 l 1,27,-1
 256 205 l 1,28,-1
 256 306 l 1,25,-1
EndSplineSet
EndChar

StartChar: progress-3
Encoding: 59243 59243 136
Width: 614
GlyphClass: 2
Flags: W
LayerCount: 2
Fore
SplineSet
563 179 m 2,0,1
 563 157 563 157 548.5 142.5 c 128,-1,2
 534 128 534 128 512 128 c 2,3,-1
 102 128 l 2,4,5
 82 128 82 128 66.5 143 c 128,-1,6
 51 158 51 158 51 179 c 2,7,-1
 51 333 l 2,8,9
 51 353 51 353 66.5 368.5 c 128,-1,10
 82 384 82 384 102 384 c 2,11,-1
 512 384 l 2,12,13
 534 384 534 384 548.5 368.5 c 128,-1,14
 563 353 563 353 563 333 c 2,15,-1
 563 307 l 1,16,-1
 563 179 l 2,0,1
512 333 m 1,17,-1
 102 333 l 1,18,-1
 102 179 l 1,19,-1
 512 179 l 1,20,-1
 512 333 l 1,17,-1
128 306 m 1,21,-1
 230 306 l 1,22,-1
 230 205 l 1,23,-1
 128 205 l 1,24,-1
 128 306 l 1,21,-1
256 306 m 1,25,-1
 358 306 l 1,26,-1
 358 205 l 1,27,-1
 256 205 l 1,28,-1
 256 306 l 1,25,-1
486 306 m 1,29,-1
 486 205 l 1,30,-1
 384 205 l 1,31,-1
 384 306 l 1,32,-1
 486 306 l 1,29,-1
EndSplineSet
EndChar

StartChar: back-in-time
Encoding: 59249 59249 137
Width: 583
GlyphClass: 2
Flags: W
LayerCount: 2
Fore
SplineSet
324 466 m 256,0,1
 367 466 367 466 405 449.5 c 128,-1,2
 443 433 443 433 471.5 404.5 c 128,-1,3
 500 376 500 376 516 338 c 128,-1,4
 532 300 532 300 532 256 c 0,5,6
 532 213 532 213 516 174.5 c 128,-1,7
 500 136 500 136 471.5 107.5 c 128,-1,8
 443 79 443 79 405 62.5 c 128,-1,9
 367 46 367 46 324 46 c 0,10,11
 287 46 287 46 254 58.5 c 128,-1,12
 221 71 221 71 195 91 c 1,13,-1
 230 130 l 1,14,15
 272 99 272 99 324 99 c 0,16,17
 356 99 356 99 384.5 111.5 c 128,-1,18
 413 124 413 124 434.5 145.5 c 128,-1,19
 456 167 456 167 468 195 c 128,-1,20
 480 223 480 223 480 256 c 256,21,22
 480 289 480 289 468 317.5 c 128,-1,23
 456 346 456 346 434.5 367.5 c 128,-1,24
 413 389 413 389 384 401.5 c 128,-1,25
 355 414 355 414 324 414 c 256,26,27
 292 414 292 414 264 402 c 128,-1,28
 236 390 236 390 214.5 369.5 c 128,-1,29
 193 349 193 349 180.5 321.5 c 128,-1,30
 168 294 168 294 167 262 c 1,31,-1
 240 262 l 1,32,-1
 145 157 l 1,33,-1
 51 262 l 1,34,-1
 115 262 l 1,35,36
 116 304 116 304 132 341.5 c 128,-1,37
 148 379 148 379 177 406.5 c 128,-1,38
 206 434 206 434 243.5 450 c 128,-1,39
 281 466 281 466 324 466 c 256,0,1
341 369 m 1,40,-1
 341 264 l 1,41,-1
 408 198 l 1,42,-1
 382 172 l 1,43,-1
 305 249 l 1,44,-1
 305 369 l 1,45,-1
 341 369 l 1,40,-1
EndSplineSet
EndChar

StartChar: uniE772
Encoding: 59250 59250 138
Width: 583
GlyphClass: 2
Flags: W
LayerCount: 2
Fore
SplineSet
260 466 m 256,0,1
 217 466 217 466 178.5 449.5 c 128,-1,2
 140 433 140 433 112 404.5 c 128,-1,3
 84 376 84 376 67.5 338 c 128,-1,4
 51 300 51 300 51 256 c 0,5,6
 51 213 51 213 67.5 174.5 c 128,-1,7
 84 136 84 136 112 107.5 c 128,-1,8
 140 79 140 79 178.5 62.5 c 128,-1,9
 217 46 217 46 260 46 c 0,10,11
 297 46 297 46 329.5 58.5 c 128,-1,12
 362 71 362 71 389 91 c 1,13,-1
 353 130 l 1,14,15
 311 99 311 99 260 99 c 0,16,17
 228 99 228 99 199.5 111.5 c 128,-1,18
 171 124 171 124 149.5 145.5 c 128,-1,19
 128 167 128 167 115.5 195 c 128,-1,20
 103 223 103 223 103 256 c 256,21,22
 103 289 103 289 115.5 317.5 c 128,-1,23
 128 346 128 346 149.5 367.5 c 128,-1,24
 171 389 171 389 199.5 401.5 c 128,-1,25
 228 414 228 414 260 414 c 256,26,27
 292 414 292 414 320 402 c 128,-1,28
 348 390 348 390 369.5 369.5 c 128,-1,29
 391 349 391 349 403.5 321.5 c 128,-1,30
 416 294 416 294 417 262 c 1,31,-1
 344 262 l 1,32,-1
 438 157 l 1,33,-1
 532 262 l 1,34,-1
 469 262 l 1,35,36
 468 304 468 304 451.5 341.5 c 128,-1,37
 435 379 435 379 406.5 406.5 c 128,-1,38
 378 434 378 434 340.5 450 c 128,-1,39
 303 466 303 466 260 466 c 256,0,1
262 367 m 1,40,-1
 262 262 l 1,41,-1
 329 197 l 1,42,-1
 303 170 l 1,43,-1
 226 248 l 1,44,-1
 226 367 l 1,45,-1
 262 367 l 1,40,-1
EndSplineSet
EndChar

StartChar: network
Encoding: 59254 59254 139
Width: 573
GlyphClass: 2
Flags: W
LayerCount: 2
Fore
SplineSet
166 335 m 0,0,1
 155 335 155 335 144 330 c 1,2,3
 130 344 130 344 119 361 c 128,-1,4
 108 378 108 378 97 395 c 1,5,6
 110 412 110 412 126.5 428 c 128,-1,7
 143 444 143 444 163 456 c 1,8,9
 183 448 183 448 203 437.5 c 128,-1,10
 223 427 223 427 241 414 c 1,11,12
 238 406 238 406 238 397 c 0,13,14
 238 394 238 394 238.5 391.5 c 128,-1,15
 239 389 239 389 240 386 c 1,16,17
 208 361 208 361 180 333 c 1,18,19
 172 335 172 335 166 335 c 0,0,1
116 285 m 0,20,21
 116 268 116 268 126 254 c 1,22,23
 112 226 112 226 101 196.5 c 128,-1,24
 90 167 90 167 85 135 c 1,25,26
 51 189 51 189 51 256 c 0,27,28
 51 312 51 312 77 361 c 1,29,30
 96 329 96 329 120 304 c 1,31,32
 118 299 118 299 117 294.5 c 128,-1,33
 116 290 116 290 116 285 c 0,20,21
288 447 m 0,34,35
 274 447 274 447 262 440 c 1,36,37
 232 462 232 462 204 476 c 1,38,39
 223 483 223 483 244 487.5 c 128,-1,40
 265 492 265 492 287 492 c 0,41,42
 320 492 320 492 349 483 c 128,-1,43
 378 474 378 474 404 460 c 1,44,45
 382 456 382 456 362 449 c 128,-1,46
 342 442 342 442 322 434 c 1,47,48
 308 447 308 447 288 447 c 0,34,35
362 212 m 1,49,50
 280 224 280 224 214 269 c 1,51,52
 216 279 216 279 216 285 c 0,53,54
 216 297 216 297 209 311 c 1,55,56
 220 323 220 323 232.5 334.5 c 128,-1,57
 245 346 245 346 259 357 c 1,58,59
 272 347 272 347 288 347 c 0,60,61
 293 347 293 347 297.5 348 c 128,-1,62
 302 349 302 349 307 351 c 1,63,64
 355 296 355 296 376 228 c 1,65,66
 367 221 367 221 362 212 c 1,49,50
428 144 m 1,67,68
 447 151 447 151 456 175 c 1,69,70
 486 177 486 177 511 184 c 1,71,72
 487 109 487 109 426 66 c 1,73,74
 429 91 429 91 429 116 c 0,75,76
 429 123 429 123 428.5 130 c 128,-1,77
 428 137 428 137 428 144 c 1,67,68
351 178 m 1,78,79
 302 153 302 153 263 118 c 128,-1,80
 224 83 224 83 196 39 c 1,81,82
 150 57 150 57 115 95 c 1,83,84
 121 169 121 169 156 236 c 1,85,86
 159 235 159 235 166 234 c 0,87,88
 181 234 181 234 193 242 c 1,89,90
 228 218 228 218 267.5 201.5 c 128,-1,91
 307 185 307 185 351 178 c 1,78,79
445 430 m 1,92,93
 481 397 481 397 501.5 352.5 c 128,-1,94
 522 308 522 308 522 256 c 0,95,96
 522 248 522 248 521.5 239 c 128,-1,97
 521 230 521 230 520 222 c 1,98,99
 487 213 487 213 454 210 c 1,100,101
 449 223 449 223 436.5 231.5 c 128,-1,102
 424 240 424 240 409 241 c 1,103,104
 384 316 384 316 333 376 c 1,105,106
 338 386 338 386 338 397 c 2,107,-1
 338 402 l 1,108,109
 388 424 388 424 445 430 c 1,92,93
376 152 m 1,110,111
 382 147 382 147 392 142 c 1,112,113
 393 135 393 135 393 129 c 128,-1,114
 393 123 393 123 393 116 c 0,115,116
 393 75 393 75 386 42 c 1,117,118
 341 20 341 20 287 20 c 0,119,120
 257 20 257 20 229 27 c 1,121,122
 286 109 286 109 376 152 c 1,110,111
EndSplineSet
EndChar

StartChar: inbox
Encoding: 59255 59255 140
Width: 615
GlyphClass: 2
Flags: W
LayerCount: 2
Fore
SplineSet
547 281 m 0,0,1
 556 271 556 271 560.5 262.5 c 128,-1,2
 565 254 565 254 562 244 c 1,3,-1
 548 165 l 2,4,5
 546 155 546 155 536.5 148 c 128,-1,6
 527 141 527 141 516 141 c 2,7,-1
 98 141 l 2,8,9
 87 141 87 141 78 148 c 128,-1,10
 69 155 69 155 67 165 c 2,11,-1
 52 244 l 2,12,13
 50 254 50 254 54 262 c 128,-1,14
 58 270 58 270 69 281 c 0,15,16
 72 285 72 285 82 295 c 128,-1,17
 92 305 92 305 104 317 c 128,-1,18
 116 329 116 329 128 340.5 c 128,-1,19
 140 352 140 352 148 360 c 0,20,21
 159 371 159 371 175 372 c 2,22,-1
 307 372 l 1,23,-1
 439 372 l 2,24,25
 454 372 454 372 466 360 c 0,26,27
 474 352 474 352 486.5 340.5 c 128,-1,28
 499 329 499 329 511 317 c 128,-1,29
 523 305 523 305 533 295 c 128,-1,30
 543 285 543 285 547 281 c 0,0,1
502 264 m 1,31,-1
 450 323 l 1,32,-1
 165 323 l 1,33,-1
 113 264 l 1,34,-1
 204 264 l 2,35,36
 208 264 208 264 210 260 c 2,37,-1
 230 209 l 1,38,-1
 384 209 l 1,39,-1
 404 260 l 2,40,41
 406 264 406 264 411 264 c 2,42,-1
 502 264 l 1,31,-1
EndSplineSet
EndChar

StartChar: install
Encoding: 59256 59256 141
Width: 564
GlyphClass: 2
Flags: W
LayerCount: 2
Fore
SplineSet
504 233 m 2,0,1
 509 223 509 223 511 209.5 c 128,-1,2
 513 196 513 196 511 184 c 2,3,-1
 494 90 l 2,4,5
 492 79 492 79 483.5 72 c 128,-1,6
 475 65 475 65 464 65 c 2,7,-1
 99 65 l 2,8,9
 88 65 88 65 80 72 c 128,-1,10
 72 79 72 79 70 90 c 2,11,-1
 52 184 l 2,12,13
 50 195 50 195 52 209 c 128,-1,14
 54 223 54 223 59 233 c 2,15,-1
 140 425 l 2,16,17
 145 435 145 435 155.5 442 c 128,-1,18
 166 449 166 449 177 449 c 2,19,-1
 230 449 l 1,20,-1
 220 344 l 1,21,-1
 152 344 l 1,22,-1
 282 237 l 1,23,-1
 413 344 l 1,24,-1
 343 344 l 1,25,-1
 334 449 l 1,26,-1
 386 449 l 2,27,28
 397 449 397 449 408 442 c 128,-1,29
 419 435 419 435 424 425 c 2,30,-1
 504 233 l 2,0,1
469 166 m 2,31,32
 471 177 471 177 464.5 185.5 c 128,-1,33
 458 194 458 194 446 194 c 2,34,-1
 117 194 l 2,35,36
 106 194 106 194 99 185.5 c 128,-1,37
 92 177 92 177 94 166 c 2,38,-1
 101 128 l 2,39,40
 103 117 103 117 111.5 109 c 128,-1,41
 120 101 120 101 130 101 c 2,42,-1
 433 101 l 2,43,44
 444 101 444 101 452.5 109 c 128,-1,45
 461 117 461 117 463 128 c 2,46,-1
 469 166 l 2,31,32
EndSplineSet
EndChar

StartChar: lifebuoy
Encoding: 59272 59272 142
Width: 575
GlyphClass: 2
Flags: W
LayerCount: 2
Fore
SplineSet
285 492 m 0,0,1
 334 493 334 493 377 475 c 128,-1,2
 420 457 420 457 452 425.5 c 128,-1,3
 484 394 484 394 503 351.5 c 128,-1,4
 522 309 522 309 523 260 c 256,5,6
 524 211 524 211 506 168 c 128,-1,7
 488 125 488 125 456.5 92 c 128,-1,8
 425 59 425 59 382.5 40.5 c 128,-1,9
 340 22 340 22 291 20 c 0,10,11
 242 20 242 20 199 38 c 128,-1,12
 156 56 156 56 123.5 87.5 c 128,-1,13
 91 119 91 119 72 161.5 c 128,-1,14
 53 204 53 204 52 253 c 256,15,16
 51 302 51 302 69 345 c 128,-1,17
 87 388 87 388 119 420.5 c 128,-1,18
 151 453 151 453 193.5 472.5 c 128,-1,19
 236 492 236 492 285 492 c 0,0,1
285 461 m 0,20,21
 237 461 237 461 194 438 c 1,22,-1
 225 385 l 1,23,24
 254 399 254 399 288 399 c 256,25,26
 322 399 322 399 350 385 c 1,27,-1
 382 438 l 1,28,29
 337 462 337 462 285 461 c 0,20,21
159 194 m 1,30,31
 145 225 145 225 144 256 c 0,32,33
 144 289 144 289 159 319 c 1,34,-1
 106 351 l 1,35,36
 82 306 82 306 83 254 c 1,37,38
 84 205 84 205 106 162 c 1,39,-1
 159 194 l 1,30,31
291 51 m 1,40,41
 341 53 341 53 382 75 c 1,42,-1
 350 128 l 1,43,44
 336 121 336 121 320.5 117 c 128,-1,45
 305 113 305 113 288 113 c 256,46,47
 271 113 271 113 255.5 117 c 128,-1,48
 240 121 240 121 225 128 c 1,49,-1
 194 75 l 1,50,51
 238 51 238 51 291 51 c 1,40,41
288 143 m 256,52,53
 312 143 312 143 332 152 c 128,-1,54
 352 161 352 161 367.5 176 c 128,-1,55
 383 191 383 191 391.5 211.5 c 128,-1,56
 400 232 400 232 400 256 c 256,57,58
 400 280 400 280 391.5 300.5 c 128,-1,59
 383 321 383 321 367.5 336 c 128,-1,60
 352 351 352 351 331.5 360 c 128,-1,61
 311 369 311 369 288 369 c 256,62,63
 264 369 264 369 243.5 360 c 128,-1,64
 223 351 223 351 208 336 c 128,-1,65
 193 321 193 321 184 300.5 c 128,-1,66
 175 280 175 280 175 256 c 256,67,68
 175 232 175 232 184 211.5 c 128,-1,69
 193 191 193 191 208 176 c 128,-1,70
 223 161 223 161 243.5 152 c 128,-1,71
 264 143 264 143 288 143 c 256,52,53
470 162 m 1,72,73
 481 185 481 185 487.5 208.5 c 128,-1,74
 494 232 494 232 493 259 c 1,75,76
 493 308 493 308 470 351 c 1,77,-1
 417 319 l 1,78,79
 431 288 431 288 431 256 c 0,80,81
 431 224 431 224 417 194 c 1,82,-1
 470 162 l 1,72,73
EndSplineSet
EndChar

StartChar: mouse
Encoding: 59273 59273 143
Width: 390
GlyphClass: 2
Flags: W
LayerCount: 2
Fore
SplineSet
333 143 m 2,0,1
 340 123 340 123 337.5 102 c 128,-1,2
 335 81 335 81 324 62.5 c 128,-1,3
 313 44 313 44 294.5 29 c 128,-1,4
 276 14 276 14 253 6 c 0,5,6
 229 -1 229 -1 206 0.5 c 128,-1,7
 183 2 183 2 163.5 10.5 c 128,-1,8
 144 19 144 19 130.5 34.5 c 128,-1,9
 117 50 117 50 111 71 c 2,10,-1
 56 267 l 2,11,12
 46 303 46 303 59.5 336.5 c 128,-1,13
 73 370 73 370 102 390 c 1,14,-1
 53 485 l 2,15,16
 50 492 50 492 52 499.5 c 128,-1,17
 54 507 54 507 60 510 c 0,18,19
 67 514 67 514 74 512 c 128,-1,20
 81 510 81 510 85 503 c 2,21,-1
 135 404 l 1,22,23
 155 409 155 409 175.5 407.5 c 128,-1,24
 196 406 196 406 213.5 396.5 c 128,-1,25
 231 387 231 387 245 371.5 c 128,-1,26
 259 356 259 356 266 337 c 2,27,-1
 333 143 l 2,0,1
167 284 m 256,28,29
 181 289 181 289 188 302 c 128,-1,30
 195 315 195 315 189 330 c 256,31,32
 184 344 184 344 171.5 351 c 128,-1,33
 159 358 159 358 144 353 c 256,34,35
 130 348 130 348 123.5 335 c 128,-1,36
 117 322 117 322 122 307 c 256,37,38
 127 293 127 293 140 286 c 128,-1,39
 153 279 153 279 167 284 c 256,28,29
EndSplineSet
EndChar

StartChar: brush
Encoding: 59290 59290 144
Width: 594
GlyphClass: 2
Flags: W
LayerCount: 2
Fore
SplineSet
112 164 m 0,0,1
 131 182 131 182 155 179 c 128,-1,2
 179 176 179 176 200 156 c 256,3,4
 220 136 220 136 223.5 111.5 c 128,-1,5
 227 87 227 87 209 69 c 0,6,7
 187 47 187 47 157 35 c 128,-1,8
 127 23 127 23 101 18 c 128,-1,9
 75 13 75 13 60 16 c 128,-1,10
 45 19 45 19 54 29 c 0,11,12
 73 51 73 51 79 69.5 c 128,-1,13
 85 88 85 88 87.5 104 c 128,-1,14
 90 120 90 120 94 135 c 128,-1,15
 98 150 98 150 112 164 c 0,0,1
542 495 m 256,16,17
 547 490 547 490 536.5 470.5 c 128,-1,18
 526 451 526 451 506.5 422.5 c 128,-1,19
 487 394 487 394 461 361.5 c 128,-1,20
 435 329 435 329 408.5 297 c 128,-1,21
 382 265 382 265 357.5 238 c 128,-1,22
 333 211 333 211 316 195 c 0,23,24
 291 170 291 170 277 160 c 128,-1,25
 263 150 263 150 253 141 c 0,26,27
 249 138 249 138 247.5 140.5 c 128,-1,28
 246 143 246 143 245 145 c 0,29,30
 240 155 240 155 234 162.5 c 128,-1,31
 228 170 228 170 220 178 c 0,32,33
 204 194 204 194 186 203 c 0,34,35
 184 204 184 204 181.5 205.5 c 128,-1,36
 179 207 179 207 182 211 c 0,37,38
 190 221 190 221 200.5 235.5 c 128,-1,39
 211 250 211 250 236 273 c 0,40,41
 252 289 252 289 279.5 313.5 c 128,-1,42
 307 338 307 338 339.5 364 c 128,-1,43
 372 390 372 390 405.5 415.5 c 128,-1,44
 439 441 439 441 468 460 c 128,-1,45
 497 479 497 479 517 489.5 c 128,-1,46
 537 500 537 500 542 495 c 256,16,17
EndSplineSet
EndChar

StartChar: magnet
Encoding: 59297 59297 145
Width: 522
GlyphClass: 2
Flags: W
LayerCount: 2
Fore
SplineSet
325 138 m 1,0,-1
 458 128 l 1,1,-1
 450 43 l 2,2,3
 449 38 449 38 444 34 c 128,-1,4
 439 30 439 30 433 31 c 2,5,-1
 331 39 l 2,6,7
 325 39 325 39 320.5 43.5 c 128,-1,8
 316 48 316 48 316 54 c 2,9,-1
 325 138 l 1,0,-1
198 138 m 1,10,-1
 206 54 l 2,11,12
 207 48 207 48 203 43.5 c 128,-1,13
 199 39 199 39 191 39 c 2,14,-1
 90 31 l 2,15,16
 84 30 84 30 79 34 c 128,-1,17
 74 38 74 38 74 43 c 2,18,-1
 66 128 l 1,19,-1
 198 138 l 1,10,-1
52 266 m 2,20,21
 51 271 51 271 51 275 c 128,-1,22
 51 279 51 279 51 284 c 0,23,24
 51 325 51 325 67.5 360.5 c 128,-1,25
 84 396 84 396 112.5 423 c 128,-1,26
 141 450 141 450 179.5 465.5 c 128,-1,27
 218 481 218 481 261 481 c 256,28,29
 304 481 304 481 342.5 465.5 c 128,-1,30
 381 450 381 450 409.5 423 c 128,-1,31
 438 396 438 396 454.5 360.5 c 128,-1,32
 471 325 471 325 471 284 c 0,33,34
 471 279 471 279 471 275 c 128,-1,35
 471 271 471 271 470 266 c 2,36,-1
 462 179 l 1,37,-1
 330 190 l 1,38,-1
 338 278 l 1,39,-1
 338 284 l 2,40,41
 338 314 338 314 316 334.5 c 128,-1,42
 294 355 294 355 261 355 c 0,43,44
 229 355 229 355 206.5 334 c 128,-1,45
 184 313 184 313 184 284 c 2,46,-1
 184 278 l 1,47,-1
 193 190 l 1,48,-1
 60 179 l 1,49,-1
 52 266 l 2,20,21
EndSplineSet
EndChar

StartChar: archive
Encoding: 59392 59392 146
Width: 604
GlyphClass: 2
Flags: W
LayerCount: 2
Fore
SplineSet
480 358 m 1,0,-1
 124 358 l 1,1,-1
 124 384 l 2,2,3
 124 393 124 393 127.5 398.5 c 128,-1,4
 131 404 131 404 136 407 c 0,5,6
 141 410 141 410 150 410 c 2,7,-1
 455 410 l 2,8,9
 462 410 462 410 467 407 c 0,10,11
 472 405 472 405 476 399 c 128,-1,12
 480 393 480 393 480 384 c 2,13,-1
 480 358 l 1,0,-1
404 461 m 2,14,15
 411 461 411 461 417 458 c 0,16,17
 422 456 422 456 426 450 c 128,-1,18
 430 444 430 444 430 435 c 1,19,-1
 175 435 l 1,20,21
 175 444 175 444 178.5 450 c 128,-1,22
 182 456 182 456 187 458 c 0,23,24
 192 461 192 461 201 461 c 2,25,-1
 404 461 l 2,14,15
531 358 m 2,26,27
 537 353 537 353 542 349 c 128,-1,28
 547 345 547 345 549.5 340 c 128,-1,29
 552 335 552 335 552.5 327 c 128,-1,30
 553 319 553 319 551 307 c 256,31,32
 549 295 549 295 543.5 261 c 128,-1,33
 538 227 538 227 531 189.5 c 128,-1,34
 524 152 524 152 518.5 119 c 128,-1,35
 513 86 513 86 512 77 c 0,36,37
 510 67 510 67 505 61.5 c 128,-1,38
 500 56 500 56 495 54 c 0,39,40
 489 51 489 51 480 51 c 2,41,-1
 124 51 l 2,42,43
 116 51 116 51 110 54 c 0,44,45
 105 56 105 56 100 61.5 c 128,-1,46
 95 67 95 67 93 77 c 0,47,48
 91 86 91 86 85.5 119 c 128,-1,49
 80 152 80 152 74 189.5 c 128,-1,50
 68 227 68 227 61.5 261 c 128,-1,51
 55 295 55 295 53 307 c 256,52,53
 51 319 51 319 51.5 327 c 128,-1,54
 52 335 52 335 54.5 340 c 128,-1,55
 57 345 57 345 62 349 c 128,-1,56
 67 353 67 353 73 358 c 2,57,-1
 88 374 l 1,58,-1
 88 333 l 1,59,-1
 516 333 l 1,60,-1
 516 374 l 1,61,-1
 531 358 l 2,26,27
404 271 m 1,62,-1
 369 271 l 1,63,-1
 369 230 l 1,64,-1
 236 230 l 1,65,-1
 236 271 l 1,66,-1
 201 271 l 1,67,-1
 201 220 l 2,68,69
 201 212 201 212 204 207 c 0,70,71
 206 202 206 202 211 198.5 c 128,-1,72
 216 195 216 195 225 195 c 2,73,-1
 379 195 l 2,74,75
 388 195 388 195 393.5 198.5 c 128,-1,76
 399 202 399 202 401 207 c 0,77,78
 404 212 404 212 404 220 c 2,79,-1
 404 271 l 1,62,-1
EndSplineSet
EndChar

StartChar: sweden
Encoding: 62977 62977 148
Width: 563
GlyphClass: 2
Flags: W
LayerCount: 2
Fore
SplineSet
486 410 m 2,0,1
 497 410 497 410 504.5 402 c 128,-1,2
 512 394 512 394 512 384 c 2,3,-1
 512 282 l 1,4,-1
 256 282 l 1,5,-1
 256 410 l 1,6,-1
 486 410 l 2,0,1
51 230 m 1,7,-1
 205 230 l 1,8,-1
 205 102 l 1,9,-1
 72 102 l 2,10,11
 61 102 61 102 56 109.5 c 128,-1,12
 51 117 51 117 51 128 c 2,13,-1
 51 230 l 1,7,-1
256 230 m 1,14,-1
 512 230 l 1,15,-1
 512 128 l 2,16,17
 512 117 512 117 505 109.5 c 128,-1,18
 498 102 498 102 486 102 c 2,19,-1
 256 102 l 1,20,-1
 256 230 l 1,14,-1
51 384 m 2,21,22
 51 394 51 394 55.5 402 c 128,-1,23
 60 410 60 410 72 410 c 2,24,-1
 205 410 l 1,25,-1
 205 282 l 1,26,-1
 51 282 l 1,27,-1
 51 384 l 2,21,22
EndSplineSet
EndChar

StartChar: picture
Encoding: 127748 127748 149
Width: 614
GlyphClass: 2
Flags: W
LayerCount: 2
Fore
SplineSet
438 342 m 1,0,-1
 375 419 l 1,1,-1
 265 342 l 1,2,-1
 173 342 l 2,3,4
 146 342 146 342 127 322 c 128,-1,5
 108 302 108 302 108 275 c 2,6,-1
 108 194 l 1,7,-1
 52 345 l 1,8,9
 47 364 47 364 63 372 c 1,10,-1
 412 499 l 2,11,12
 420 501 420 501 427 498 c 128,-1,13
 434 495 434 495 437 486 c 2,14,-1
 489 342 l 1,15,-1
 438 342 l 1,0,-1
544 296 m 2,16,17
 552 296 552 296 557.5 290 c 128,-1,18
 563 284 563 284 563 275 c 2,19,-1
 563 34 l 2,20,21
 563 26 563 26 557.5 19.5 c 128,-1,22
 552 13 552 13 544 13 c 2,23,-1
 173 13 l 2,24,25
 165 13 165 13 159.5 19.5 c 128,-1,26
 154 26 154 26 154 34 c 2,27,-1
 154 275 l 2,28,29
 154 283 154 283 159.5 289.5 c 128,-1,30
 165 296 165 296 173 296 c 2,31,-1
 544 296 l 2,16,17
515 147 m 1,32,-1
 478 229 l 1,33,-1
 393 199 l 1,34,-1
 327 131 l 1,35,-1
 256 218 l 1,36,-1
 209 109 l 1,37,-1
 209 65 l 1,38,-1
 515 65 l 1,39,-1
 515 147 l 1,32,-1
EndSplineSet
EndChar

StartChar: globe
Encoding: 127758 127758 150
Width: 593
GlyphClass: 2
Flags: W
LayerCount: 2
Fore
SplineSet
297 502 m 256,0,1
 348 502 348 502 392.5 482.5 c 128,-1,2
 437 463 437 463 470.5 429.5 c 128,-1,3
 504 396 504 396 523.5 351 c 128,-1,4
 543 306 543 306 543 256 c 0,5,6
 543 205 543 205 523.5 160.5 c 128,-1,7
 504 116 504 116 470.5 82.5 c 128,-1,8
 437 49 437 49 392.5 29.5 c 128,-1,9
 348 10 348 10 297 10 c 256,10,11
 246 10 246 10 201.5 29.5 c 128,-1,12
 157 49 157 49 123.5 82.5 c 128,-1,13
 90 116 90 116 70.5 160.5 c 128,-1,14
 51 205 51 205 51 256 c 0,15,16
 51 306 51 306 70.5 351 c 128,-1,17
 90 396 90 396 123.5 429.5 c 128,-1,18
 157 463 157 463 201.5 482.5 c 128,-1,19
 246 502 246 502 297 502 c 256,0,1
507 256 m 0,20,21
 507 291 507 291 496 322 c 128,-1,22
 485 353 485 353 466 379.5 c 128,-1,23
 447 406 447 406 420.5 424.5 c 128,-1,24
 394 443 394 443 364 455 c 1,25,26
 355 443 355 443 355 438 c 0,27,28
 357 416 357 416 364.5 412 c 128,-1,29
 372 408 372 408 380 409.5 c 128,-1,30
 388 411 388 411 395.5 415 c 128,-1,31
 403 419 403 419 407 416 c 0,32,33
 417 405 417 405 410.5 396.5 c 128,-1,34
 404 388 404 388 394.5 378.5 c 128,-1,35
 385 369 385 369 379 356 c 128,-1,36
 373 343 373 343 383 324 c 256,37,38
 393 305 393 305 404.5 298 c 128,-1,39
 416 291 416 291 432 291 c 0,40,41
 440 291 440 291 446 285 c 128,-1,42
 452 279 452 279 455.5 270 c 128,-1,43
 459 261 459 261 461 252.5 c 128,-1,44
 463 244 463 244 463 239 c 0,45,46
 464 233 464 233 464 223.5 c 128,-1,47
 464 214 464 214 463 204 c 128,-1,48
 462 194 462 194 460.5 183.5 c 128,-1,49
 459 173 459 173 456 167 c 0,50,51
 450 155 450 155 454 144 c 128,-1,52
 458 133 458 133 463 128 c 1,53,54
 483 155 483 155 495 187.5 c 128,-1,55
 507 220 507 220 507 256 c 0,20,21
268 463 m 1,56,57
 210 455 210 455 166 419 c 128,-1,58
 122 383 122 383 101 331 c 1,59,60
 107 330 107 330 116 329.5 c 128,-1,61
 125 329 125 329 133.5 327.5 c 128,-1,62
 142 326 142 326 149.5 323.5 c 128,-1,63
 157 321 157 321 159 315 c 256,64,65
 161 310 161 310 158.5 305 c 128,-1,66
 156 300 156 300 152 294 c 128,-1,67
 148 288 148 288 145 279.5 c 128,-1,68
 142 271 142 271 142 261 c 0,69,70
 142 250 142 250 148.5 244 c 128,-1,71
 155 238 155 238 162 232.5 c 128,-1,72
 169 227 169 227 175 222 c 128,-1,73
 181 217 181 217 181 209 c 0,74,75
 181 192 181 192 185 174.5 c 128,-1,76
 189 157 189 157 189 152 c 0,77,78
 189 149 189 149 194.5 141 c 128,-1,79
 200 133 200 133 207.5 124.5 c 128,-1,80
 215 116 215 116 222 109 c 128,-1,81
 229 102 229 102 234 102 c 0,82,83
 238 102 238 102 239.5 109.5 c 128,-1,84
 241 117 241 117 240.5 127 c 128,-1,85
 240 137 240 137 239 147 c 128,-1,86
 238 157 238 157 238 162 c 0,87,88
 238 165 238 165 239 170 c 128,-1,89
 240 175 240 175 241 181 c 128,-1,90
 242 187 242 187 243 192.5 c 128,-1,91
 244 198 244 198 245 200 c 0,92,93
 249 214 249 214 257 221.5 c 128,-1,94
 265 229 265 229 274.5 235 c 128,-1,95
 284 241 284 241 292 245.5 c 128,-1,96
 300 250 300 250 303 259 c 0,97,98
 313 287 313 287 305 302.5 c 128,-1,99
 297 318 297 318 281.5 326.5 c 128,-1,100
 266 335 266 335 250 337.5 c 128,-1,101
 234 340 234 340 230 342 c 0,102,103
 222 345 222 345 209.5 345.5 c 128,-1,104
 197 346 197 346 190 344 c 0,105,106
 185 342 185 342 176.5 349 c 128,-1,107
 168 356 168 356 168 365 c 0,108,109
 168 369 168 369 172.5 375 c 128,-1,110
 177 381 177 381 183.5 387.5 c 128,-1,111
 190 394 190 394 197 401 c 128,-1,112
 204 408 204 408 208 413 c 0,113,114
 215 424 215 424 221.5 427 c 128,-1,115
 228 430 228 430 242 442 c 0,116,117
 248 447 248 447 256 451.5 c 128,-1,118
 264 456 264 456 268 463 c 1,56,57
231 56 m 1,119,120
 246 51 246 51 263 48.5 c 128,-1,121
 280 46 280 46 297 46 c 0,122,123
 363 46 363 46 413 81 c 1,124,125
 406 93 406 93 386 96.5 c 128,-1,126
 366 100 366 100 352 98 c 0,127,128
 337 96 337 96 321 89.5 c 128,-1,129
 305 83 305 83 295 81 c 0,130,131
 284 79 284 79 275 76 c 128,-1,132
 266 73 266 73 256 73 c 1,133,134
 248 72 248 72 244 66.5 c 128,-1,135
 240 61 240 61 231 56 c 1,119,120
EndSplineSet
EndChar

StartChar: leaf
Encoding: 127810 127810 151
Width: 583
GlyphClass: 2
Flags: W
LayerCount: 2
Fore
SplineSet
172 408 m 0,0,1
 205 427 205 427 246.5 435.5 c 128,-1,2
 288 444 288 444 330 445.5 c 128,-1,3
 372 447 372 447 411.5 443 c 128,-1,4
 451 439 451 439 479.5 433 c 128,-1,5
 508 427 508 427 522.5 420.5 c 128,-1,6
 537 414 537 414 530 411 c 0,7,8
 487 387 487 387 464 354.5 c 128,-1,9
 441 322 441 322 424.5 287 c 128,-1,10
 408 252 408 252 391 219.5 c 128,-1,11
 374 187 374 187 343 166 c 0,12,13
 320 151 320 151 293.5 145.5 c 128,-1,14
 267 140 267 140 241 142 c 128,-1,15
 215 144 215 144 190.5 150.5 c 128,-1,16
 166 157 166 157 147 164 c 1,17,18
 137 153 137 153 127 138 c 0,19,20
 119 126 119 126 108.5 109.5 c 128,-1,21
 98 93 98 93 89 74 c 0,22,23
 86 68 86 68 79 67.5 c 128,-1,24
 72 67 72 67 65 70.5 c 128,-1,25
 58 74 58 74 54 79.5 c 128,-1,26
 50 85 50 85 52 90 c 0,27,28
 66 125 66 125 89.5 155 c 128,-1,29
 113 185 113 185 140 211 c 128,-1,30
 167 237 167 237 196.5 258.5 c 128,-1,31
 226 280 226 280 255 297 c 0,32,33
 323 338 323 338 398 367 c 1,34,35
 343 366 343 366 288 351 c 0,36,37
 240 338 240 338 185.5 309.5 c 128,-1,38
 131 281 131 281 83 224 c 1,39,40
 82 236 82 236 82 259 c 128,-1,41
 82 282 82 282 89.5 307.5 c 128,-1,42
 97 333 97 333 116 359.5 c 128,-1,43
 135 386 135 386 172 408 c 0,0,1
EndSplineSet
EndChar

StartChar: graduation-cap
Encoding: 127891 127891 152
Width: 614
GlyphClass: 2
Flags: W
LayerCount: 2
Fore
SplineSet
307 113 m 1,0,-1
 449 182 l 1,1,2
 445 164 445 164 443.5 152.5 c 128,-1,3
 442 141 442 141 439 133.5 c 128,-1,4
 436 126 436 126 427.5 120 c 128,-1,5
 419 114 419 114 400 105 c 0,6,7
 361 88 361 88 341.5 74.5 c 128,-1,8
 322 61 322 61 307 61 c 256,9,10
 293 61 293 61 272 76 c 128,-1,11
 251 91 251 91 213 108 c 256,12,13
 175 124 175 124 159.5 143.5 c 128,-1,14
 144 163 144 163 136 199 c 1,15,-1
 307 113 l 1,0,-1
551 325 m 2,16,17
 563 318 563 318 563 308 c 128,-1,18
 563 298 563 298 551 291 c 2,19,-1
 511 268 l 1,20,-1
 353 321 l 1,21,22
 342 339 342 339 307 339 c 0,23,24
 287 339 287 339 273 331 c 128,-1,25
 259 323 259 323 259 310 c 256,26,27
 259 298 259 298 273 290 c 128,-1,28
 287 282 287 282 307 282 c 0,29,30
 320 282 320 282 326 284 c 1,31,-1
 475 249 l 1,32,-1
 338 171 l 2,33,34
 325 164 325 164 307.5 164 c 128,-1,35
 290 164 290 164 276 171 c 2,36,-1
 63 291 l 2,37,38
 51 298 51 298 51 307.5 c 128,-1,39
 51 317 51 317 63 325 c 2,40,-1
 276 444 l 2,41,42
 289 451 289 451 307 451.5 c 128,-1,43
 325 452 325 452 338 444 c 2,44,-1
 551 325 l 2,16,17
485 98 m 0,45,46
 493 144 493 144 492.5 173 c 128,-1,47
 492 202 492 202 487 219 c 0,48,49
 483 238 483 238 475 249 c 1,50,-1
 511 268 l 1,51,52
 518 256 518 256 522 233 c 0,53,54
 525 214 525 214 526 182.5 c 128,-1,55
 527 151 527 151 522 101 c 0,56,57
 520 90 520 90 514.5 87 c 128,-1,58
 509 84 509 84 502.5 85.5 c 128,-1,59
 496 87 496 87 490.5 91 c 128,-1,60
 485 95 485 95 485 98 c 0,45,46
EndSplineSet
EndChar

StartChar: language
Encoding: 127892 127892 153
Width: 615
GlyphClass: 2
Flags: W
LayerCount: 2
Fore
SplineSet
557 233 m 0,0,1
 572 190 572 190 552 142.5 c 128,-1,2
 532 95 532 95 483 61 c 0,3,4
 482 61 482 61 480.5 60.5 c 128,-1,5
 479 60 479 60 477 62 c 256,6,7
 475 64 475 64 469 72 c 128,-1,8
 463 80 463 80 461 82 c 1,9,10
 460 85 460 85 462 87 c 0,11,12
 485 102 485 102 500 122.5 c 128,-1,13
 515 143 515 143 522 164.5 c 128,-1,14
 529 186 529 186 527.5 206 c 128,-1,15
 526 226 526 226 516 241 c 1,16,17
 510 225 510 225 497 202.5 c 128,-1,18
 484 180 484 180 465.5 160 c 128,-1,19
 447 140 447 140 422.5 128 c 128,-1,20
 398 116 398 116 368 120 c 0,21,22
 341 123 341 123 324.5 140.5 c 128,-1,23
 308 158 308 158 308 188 c 0,24,25
 308 231 308 231 339 264 c 0,26,27
 348 273 348 273 362.5 283 c 128,-1,28
 377 293 377 293 397 298 c 1,29,-1
 396 349 l 1,30,31
 377 346 377 346 360 343 c 0,32,33
 346 341 346 341 334.5 339 c 128,-1,34
 323 337 323 337 322 337 c 0,35,36
 319 336 319 336 316 339 c 0,37,38
 316 340 316 340 315 344 c 128,-1,39
 314 348 314 348 313.5 353.5 c 128,-1,40
 313 359 313 359 312 364 c 128,-1,41
 311 369 311 369 311 370 c 0,42,43
 310 372 310 372 311.5 372.5 c 128,-1,44
 313 373 313 373 315 373 c 0,45,46
 316 373 316 373 329 375.5 c 128,-1,47
 342 378 342 378 356 380 c 0,48,49
 373 383 373 383 395 387 c 1,50,-1
 395 416 l 2,51,52
 395 427 395 427 394.5 435.5 c 128,-1,53
 394 444 394 444 394 445 c 0,54,55
 394 449 394 449 398 450 c 0,56,57
 400 450 400 450 411.5 450 c 128,-1,58
 423 450 423 450 425 451 c 1,59,60
 430 451 430 451 430 446 c 2,61,-1
 430 393 l 1,62,63
 453 395 453 395 471 398 c 0,64,65
 486 400 486 400 499 402 c 128,-1,66
 512 404 512 404 514 404 c 0,67,68
 518 406 518 406 519 401 c 0,69,70
 519 399 519 399 521 389 c 128,-1,71
 523 379 523 379 523 377 c 0,72,73
 525 372 525 372 521 371 c 0,74,75
 519 371 519 371 506 368.5 c 128,-1,76
 493 366 493 366 475 362 c 0,77,78
 456 358 456 358 431 355 c 1,79,-1
 431 303 l 1,80,-1
 437 303 l 2,81,82
 482 303 482 303 513.5 284.5 c 128,-1,83
 545 266 545 266 557 233 c 0,0,1
368 152 m 1,84,85
 376 150 376 150 384 151.5 c 128,-1,86
 392 153 392 153 399 155 c 1,87,-1
 397 264 l 1,88,89
 380 258 380 258 367 244 c 0,90,91
 356 233 356 233 350 218 c 128,-1,92
 344 203 344 203 344 188 c 0,93,94
 344 178 344 178 347 166 c 128,-1,95
 350 154 350 154 368 152 c 1,84,85
430 166 m 1,96,97
 441 176 441 176 452.5 191.5 c 128,-1,98
 464 207 464 207 472.5 222 c 128,-1,99
 481 237 481 237 485 248.5 c 128,-1,100
 489 260 489 260 486 262 c 0,101,102
 478 266 478 266 465.5 268.5 c 128,-1,103
 453 271 453 271 437 271 c 0,104,105
 435 271 435 271 434 270.5 c 128,-1,106
 433 270 433 270 431 270 c 1,107,-1
 430 166 l 1,96,97
201 361 m 1,108,109
 204 353 204 353 211.5 329 c 128,-1,110
 219 305 219 305 229 274 c 128,-1,111
 239 243 239 243 249.5 208.5 c 128,-1,112
 260 174 260 174 269.5 145.5 c 128,-1,113
 279 117 279 117 285 98 c 0,114,-1
 291 79 l 2,115,116
 291 77 291 77 289 77 c 2,117,-1
 245 77 l 2,118,119
 242 77 242 77 242 79 c 0,120,121
 240 85 240 85 238 92 c 0,122,123
 234 103 234 103 228 122 c 256,124,125
 223 140 223 140 216 164 c 1,126,-1
 126 164 l 1,127,128
 119 140 119 140 114 122 c 0,129,130
 112 114 112 114 109 106 c 128,-1,131
 106 98 106 98 104 92 c 0,132,133
 101 85 101 85 100 79 c 0,134,135
 100 77 100 77 97 77 c 2,136,-1
 53 77 l 2,137,138
 51 77 51 77 51 79 c 2,139,140
 57 98 l 0,141,142
 63 117 63 117 72.5 145.5 c 128,-1,143
 82 174 82 174 92.5 208.5 c 128,-1,144
 103 243 103 243 113.5 274 c 128,-1,145
 124 305 124 305 131 329 c 128,-1,146
 138 353 138 353 141 361 c 0,147,148
 142 365 142 365 146 366 c 2,149,-1
 196 366 l 2,150,151
 201 365 201 365 201 361 c 1,108,109
208 200 m 1,152,-1
 171 335 l 1,153,-1
 134 200 l 1,154,-1
 208 200 l 1,152,-1
EndSplineSet
EndChar

StartChar: mic
Encoding: 127908 127908 154
Width: 430
GlyphClass: 2
Flags: W
LayerCount: 2
Fore
SplineSet
369 327 m 2,0,1
 379 327 379 327 379 316 c 2,2,-1
 379 246 l 2,3,4
 379 224 379 224 370.5 203 c 128,-1,5
 362 182 362 182 345.5 164 c 128,-1,6
 329 146 329 146 302.5 134 c 128,-1,7
 276 122 276 122 241 119 c 1,8,-1
 241 51 l 1,9,-1
 307 51 l 2,10,11
 317 51 317 51 317 41 c 2,12,-1
 317 10 l 2,13,14
 317 0 317 0 307 0 c 2,15,-1
 123 0 l 2,16,17
 113 0 113 0 113 10 c 2,18,-1
 113 41 l 2,19,20
 113 51 113 51 123 51 c 2,21,-1
 189 51 l 1,22,-1
 189 119 l 1,23,24
 153 122 153 122 127 134 c 128,-1,25
 101 146 101 146 84.5 164 c 128,-1,26
 68 182 68 182 59.5 203 c 128,-1,27
 51 224 51 224 51 246 c 2,28,-1
 51 316 l 2,29,30
 51 326 51 326 61 327 c 2,31,-1
 77 327 l 2,32,33
 87 327 87 327 87 316 c 2,34,-1
 87 246 l 2,35,36
 87 234 87 234 92.5 217.5 c 128,-1,37
 98 201 98 201 113 187 c 128,-1,38
 128 173 128 173 152.5 163.5 c 128,-1,39
 177 154 177 154 215 154 c 256,40,41
 253 154 253 154 277.5 163.5 c 128,-1,42
 302 173 302 173 317 187 c 128,-1,43
 332 201 332 201 337.5 217 c 128,-1,44
 343 233 343 233 343 246 c 2,45,-1
 343 316 l 2,46,47
 343 326 343 326 353 327 c 2,48,-1
 369 327 l 2,0,1
215 205 m 256,49,50
 192 205 192 205 177.5 209 c 128,-1,51
 163 213 163 213 154 219 c 128,-1,52
 145 225 145 225 141.5 232.5 c 128,-1,53
 138 240 138 240 138 246 c 2,54,-1
 138 327 l 1,55,-1
 292 327 l 1,56,-1
 292 246 l 2,57,58
 292 240 292 240 288.5 232.5 c 128,-1,59
 285 225 285 225 276 219 c 128,-1,60
 267 213 267 213 252.5 209 c 128,-1,61
 238 205 238 205 215 205 c 256,49,50
292 362 m 1,62,-1
 138 362 l 1,63,-1
 138 471 l 2,64,65
 138 483 138 483 154 497.5 c 128,-1,66
 170 512 170 512 215 512 c 256,67,68
 260 512 260 512 276 497.5 c 128,-1,69
 292 483 292 483 292 471 c 2,70,-1
 292 362 l 1,62,-1
EndSplineSet
EndChar

StartChar: palette
Encoding: 127912 127912 155
Width: 605
GlyphClass: 2
Flags: W
LayerCount: 2
Fore
SplineSet
490 395 m 0,0,1
 521 375 521 375 535 352.5 c 128,-1,2
 549 330 549 330 552 310.5 c 128,-1,3
 555 291 555 291 549.5 277 c 128,-1,4
 544 263 544 263 535 261 c 256,5,6
 526 259 526 259 514 263.5 c 128,-1,7
 502 268 502 268 487.5 270.5 c 128,-1,8
 473 273 473 273 457 269.5 c 128,-1,9
 441 266 441 266 425 248 c 0,10,11
 412 234 412 234 413.5 219.5 c 128,-1,12
 415 205 415 205 421.5 192 c 128,-1,13
 428 179 428 179 436 168.5 c 128,-1,14
 444 158 444 158 443 151 c 1,15,16
 443 143 443 143 432.5 128.5 c 128,-1,17
 422 114 422 114 399 99 c 128,-1,18
 376 84 376 84 339 72.5 c 128,-1,19
 302 61 302 61 250 61 c 0,20,21
 201 61 201 61 163 75.5 c 128,-1,22
 125 90 125 90 99.5 114 c 128,-1,23
 74 138 74 138 61.5 170.5 c 128,-1,24
 49 203 49 203 52 239 c 0,25,26
 54 269 54 269 68.5 300 c 128,-1,27
 83 331 83 331 105 358.5 c 128,-1,28
 127 386 127 386 156 406.5 c 128,-1,29
 185 427 185 427 216 436 c 0,30,31
 296 460 296 460 363 447.5 c 128,-1,32
 430 435 430 435 490 395 c 0,0,1
328 157 m 0,33,34
 343 157 343 157 354.5 168 c 128,-1,35
 366 179 366 179 366 196 c 256,36,37
 366 212 366 212 354.5 222.5 c 128,-1,38
 343 233 343 233 328 233 c 0,39,40
 312 233 312 233 300.5 222.5 c 128,-1,41
 289 212 289 212 289 196 c 256,42,43
 289 180 289 180 300.5 168.5 c 128,-1,44
 312 157 312 157 328 157 c 0,33,34
EndSplineSet
EndChar

StartChar: ticket
Encoding: 127915 127915 156
Width: 584
GlyphClass: 2
Flags: W
LayerCount: 2
Fore
SplineSet
329 383 m 1,0,-1
 420 292 l 1,1,-1
 253 125 l 1,2,-1
 162 216 l 1,3,-1
 329 383 l 1,0,-1
525 341 m 2,4,5
 533 333 533 333 533.5 322.5 c 128,-1,6
 534 312 534 312 525 304 c 2,7,-1
 244 23 l 2,8,9
 236 15 236 15 225.5 14.5 c 128,-1,10
 215 14 215 14 207 23 c 2,11,-1
 168 61 l 1,12,13
 174 71 174 71 174 86 c 0,14,15
 174 108 174 108 159 123 c 128,-1,16
 144 138 144 138 123 138 c 0,17,18
 112 138 112 138 97 131 c 1,19,-1
 59 170 l 2,20,21
 51 178 51 178 51 188.5 c 128,-1,22
 51 199 51 199 59 207 c 2,23,-1
 341 488 l 2,24,25
 349 496 349 496 359.5 496.5 c 128,-1,26
 370 497 370 497 378 488 c 2,27,-1
 416 450 l 1,28,29
 410 439 410 439 410 425 c 0,30,31
 410 403 410 403 425 388.5 c 128,-1,32
 440 374 440 374 462 374 c 0,33,34
 475 374 475 374 486 380 c 1,35,-1
 525 341 l 2,4,5
461 292 m 1,36,-1
 329 424 l 1,37,-1
 120 216 l 1,38,-1
 253 84 l 1,39,-1
 461 292 l 1,36,-1
EndSplineSet
EndChar

StartChar: video
Encoding: 127916 127916 157
Width: 604
GlyphClass: 2
Flags: W
LayerCount: 2
Fore
SplineSet
502 384 m 1,0,-1
 502 333 l 1,1,-1
 553 333 l 1,2,-1
 553 282 l 1,3,-1
 502 282 l 1,4,-1
 502 230 l 1,5,-1
 553 230 l 1,6,-1
 553 179 l 1,7,-1
 502 179 l 1,8,-1
 502 128 l 1,9,-1
 553 128 l 1,10,-1
 553 97 l 2,11,12
 553 89 553 89 547 83 c 128,-1,13
 541 77 541 77 532 77 c 2,14,-1
 72 77 l 2,15,16
 64 77 64 77 57.5 83 c 128,-1,17
 51 89 51 89 51 97 c 2,18,-1
 51 128 l 1,19,-1
 102 128 l 1,20,-1
 102 179 l 1,21,-1
 51 179 l 1,22,-1
 51 230 l 1,23,-1
 102 230 l 1,24,-1
 102 282 l 1,25,-1
 51 282 l 1,26,-1
 51 333 l 1,27,-1
 102 333 l 1,28,-1
 102 384 l 1,29,-1
 51 384 l 1,30,-1
 51 415 l 2,31,32
 51 424 51 424 57 429.5 c 128,-1,33
 63 435 63 435 72 435 c 2,34,-1
 532 435 l 2,35,36
 540 435 540 435 546.5 429.5 c 128,-1,37
 553 424 553 424 553 415 c 2,38,-1
 553 384 l 1,39,-1
 502 384 l 1,0,-1
374 256 m 1,40,-1
 246 333 l 1,41,-1
 246 179 l 1,42,-1
 374 256 l 1,40,-1
EndSplineSet
EndChar

StartChar: hair-cross
Encoding: 127919 127919 158
Width: 542
GlyphClass: 2
Flags: W
LayerCount: 2
Fore
SplineSet
271 476 m 256,0,1
 317 476 317 476 357 458.5 c 128,-1,2
 397 441 397 441 427 411.5 c 128,-1,3
 457 382 457 382 474.5 342 c 128,-1,4
 492 302 492 302 492 256 c 0,5,6
 492 211 492 211 474.5 170.5 c 128,-1,7
 457 130 457 130 427 100.5 c 128,-1,8
 397 71 397 71 357 53.5 c 128,-1,9
 317 36 317 36 271 36 c 256,10,11
 225 36 225 36 185 53.5 c 128,-1,12
 145 71 145 71 115.5 100.5 c 128,-1,13
 86 130 86 130 68.5 170.5 c 128,-1,14
 51 211 51 211 51 256 c 0,15,16
 51 302 51 302 68.5 342 c 128,-1,17
 86 382 86 382 115.5 411.5 c 128,-1,18
 145 441 145 441 185 458.5 c 128,-1,19
 225 476 225 476 271 476 c 256,0,1
290 78 m 1,20,21
 322 81 322 81 349.5 95 c 128,-1,22
 377 109 377 109 398.5 130.5 c 128,-1,23
 420 152 420 152 433 179.5 c 128,-1,24
 446 207 446 207 450 239 c 1,25,-1
 351 239 l 1,26,-1
 351 274 l 1,27,-1
 450 274 l 1,28,29
 447 306 447 306 433.5 333.5 c 128,-1,30
 420 361 420 361 398.5 382.5 c 128,-1,31
 377 404 377 404 349.5 418 c 128,-1,32
 322 432 322 432 290 435 c 1,33,-1
 290 336 l 1,34,-1
 254 336 l 1,35,-1
 254 435 l 1,36,37
 222 432 222 432 194 418 c 128,-1,38
 166 404 166 404 144.5 382.5 c 128,-1,39
 123 361 123 361 109.5 333.5 c 128,-1,40
 96 306 96 306 93 274 c 1,41,-1
 193 274 l 1,42,-1
 193 239 l 1,43,-1
 93 239 l 1,44,45
 96 207 96 207 109.5 179.5 c 128,-1,46
 123 152 123 152 144.5 130.5 c 128,-1,47
 166 109 166 109 194 95 c 128,-1,48
 222 81 222 81 254 78 c 1,49,-1
 254 177 l 1,50,-1
 290 177 l 1,51,-1
 290 78 l 1,20,21
EndSplineSet
EndChar

StartChar: music
Encoding: 127925 127925 159
Width: 460
GlyphClass: 2
Flags: W
LayerCount: 2
Fore
SplineSet
358 486 m 2,0,1
 380 486 380 486 395 471.5 c 128,-1,2
 410 457 410 457 410 435 c 2,3,-1
 410 77 l 2,4,5
 410 57 410 57 395 41.5 c 128,-1,6
 380 26 380 26 358 26 c 2,7,-1
 102 26 l 2,8,9
 82 26 82 26 66.5 41 c 128,-1,10
 51 56 51 56 51 77 c 2,11,-1
 51 435 l 2,12,13
 51 457 51 457 66.5 471.5 c 128,-1,14
 82 486 82 486 102 486 c 2,15,-1
 358 486 l 2,0,1
302 243 m 0,16,17
 318 269 318 269 313.5 290.5 c 128,-1,18
 309 312 309 312 297 330.5 c 128,-1,19
 285 349 285 349 272 364.5 c 128,-1,20
 259 380 259 380 259 392 c 1,21,-1
 228 392 l 1,22,-1
 228 204 l 1,23,24
 206 212 206 212 182 203 c 0,25,26
 160 195 160 195 149 178 c 128,-1,27
 138 161 138 161 143 145 c 0,28,29
 149 129 149 129 170 122.5 c 128,-1,30
 191 116 191 116 214 123 c 0,31,32
 259 138 259 138 259 173 c 2,33,-1
 259 307 l 1,34,35
 274 305 274 305 282 296.5 c 128,-1,36
 290 288 290 288 293.5 278 c 128,-1,37
 297 268 297 268 296.5 258 c 128,-1,38
 296 248 296 248 295 243 c 1,39,40
 293 239 293 239 295 237.5 c 128,-1,41
 297 236 297 236 302 243 c 0,16,17
EndSplineSet
EndChar

StartChar: trophy
Encoding: 127942 127942 160
Width: 563
GlyphClass: 2
Flags: W
LayerCount: 2
Fore
SplineSet
312 112 m 1,0,1
 348 108 348 108 371.5 95.5 c 128,-1,2
 395 83 395 83 395 67 c 0,3,4
 395 49 395 49 362.5 34.5 c 128,-1,5
 330 20 330 20 282 20 c 0,6,7
 235 20 235 20 201.5 34 c 128,-1,8
 168 48 168 48 168 67 c 0,9,10
 168 83 168 83 192 95.5 c 128,-1,11
 216 108 216 108 252 112 c 1,12,-1
 252 145 l 2,13,14
 252 173 252 173 232 191.5 c 128,-1,15
 212 210 212 210 177 233 c 0,16,17
 155 246 155 246 133.5 263.5 c 128,-1,18
 112 281 112 281 93.5 303 c 128,-1,19
 75 325 75 325 63 355 c 128,-1,20
 51 385 51 385 51 427 c 0,21,22
 51 434 51 434 56 439 c 128,-1,23
 61 444 61 444 70 444 c 2,24,-1
 158 444 l 1,25,26
 167 461 167 461 196 476.5 c 128,-1,27
 225 492 225 492 282 492 c 256,28,29
 338 492 338 492 367.5 477 c 128,-1,30
 397 462 397 462 407 444 c 1,31,-1
 494 444 l 2,32,33
 502 444 502 444 507 439 c 128,-1,34
 512 434 512 434 512 427 c 0,35,36
 512 385 512 385 500 355 c 128,-1,37
 488 325 488 325 470 303 c 128,-1,38
 452 281 452 281 430 264 c 128,-1,39
 408 247 408 247 386 233 c 0,40,41
 351 209 351 209 331.5 191 c 128,-1,42
 312 173 312 173 312 145 c 2,43,-1
 312 112 l 1,0,1
383 274 m 1,44,45
 399 285 399 285 415 298 c 128,-1,46
 431 311 431 311 443.5 327 c 128,-1,47
 456 343 456 343 464.5 363 c 128,-1,48
 473 383 473 383 475 409 c 1,49,-1
 411 409 l 1,50,51
 409 363 409 363 401.5 330.5 c 128,-1,52
 394 298 394 298 383 274 c 1,44,45
282 461 m 0,53,54
 255 461 255 461 236.5 456.5 c 128,-1,55
 218 452 218 452 207 445.5 c 128,-1,56
 196 439 196 439 190 432.5 c 128,-1,57
 184 426 184 426 184 422 c 256,58,59
 184 418 184 418 190 411 c 128,-1,60
 196 404 196 404 207 397.5 c 128,-1,61
 218 391 218 391 236.5 386.5 c 128,-1,62
 255 382 255 382 282 382 c 0,63,64
 308 382 308 382 326.5 386.5 c 128,-1,65
 345 391 345 391 356.5 397.5 c 128,-1,66
 368 404 368 404 373.5 411 c 128,-1,67
 379 418 379 418 379 422 c 256,68,69
 379 426 379 426 373.5 432.5 c 128,-1,70
 368 439 368 439 356.5 445.5 c 128,-1,71
 345 452 345 452 326.5 456.5 c 128,-1,72
 308 461 308 461 282 461 c 0,53,54
88 409 m 1,73,74
 90 383 90 383 99 363 c 128,-1,75
 108 343 108 343 120 327 c 128,-1,76
 132 311 132 311 148 298.5 c 128,-1,77
 164 286 164 286 180 274 c 1,78,79
 169 298 169 298 162 330 c 128,-1,80
 155 362 155 362 153 409 c 1,81,-1
 88 409 l 1,73,74
EndSplineSet
EndChar

StartChar: thumbs-up
Encoding: 128077 128077 161
Width: 512
GlyphClass: 2
Flags: W
LayerCount: 2
Fore
SplineSet
349 323 m 256,0,1
 350 320 350 320 368 317.5 c 128,-1,2
 386 315 386 315 406.5 311 c 128,-1,3
 427 307 427 307 444 300 c 128,-1,4
 461 293 461 293 461 280 c 0,5,6
 461 271 461 271 457 248.5 c 128,-1,7
 453 226 453 226 446.5 198 c 128,-1,8
 440 170 440 170 431.5 139.5 c 128,-1,9
 423 109 423 109 413 83.5 c 128,-1,10
 403 58 403 58 393.5 42 c 128,-1,11
 384 26 384 26 375 26 c 0,12,13
 339 26 339 26 300 31.5 c 128,-1,14
 261 37 261 37 228.5 46.5 c 128,-1,15
 196 56 196 56 175 68 c 128,-1,16
 154 80 154 80 154 92 c 2,17,-1
 154 267 l 2,18,19
 154 277 154 277 166.5 290.5 c 128,-1,20
 179 304 179 304 197.5 318 c 128,-1,21
 216 332 216 332 235.5 344.5 c 128,-1,22
 255 357 255 357 267 367 c 0,23,24
 290 382 290 382 310 404.5 c 128,-1,25
 330 427 330 427 344.5 446.5 c 128,-1,26
 359 466 359 466 369.5 478 c 128,-1,27
 380 490 380 490 385 484 c 0,28,29
 405 458 405 458 402 431 c 128,-1,30
 399 404 399 404 387 381 c 128,-1,31
 375 358 375 358 361.5 342 c 128,-1,32
 348 326 348 326 349 323 c 256,0,1
128 321 m 256,33,34
 134 321 134 321 131 317.5 c 128,-1,35
 128 314 128 314 122 307 c 128,-1,36
 116 300 116 300 109 288 c 128,-1,37
 102 276 102 276 102 260 c 2,38,-1
 102 97 l 2,39,40
 102 81 102 81 109 69.5 c 128,-1,41
 116 58 116 58 122 51.5 c 128,-1,42
 128 45 128 45 131 42 c 128,-1,43
 134 39 134 39 128 39 c 256,44,45
 122 39 122 39 109 41.5 c 128,-1,46
 96 44 96 44 83.5 51.5 c 128,-1,47
 71 59 71 59 61 74.5 c 128,-1,48
 51 90 51 90 51 117 c 2,49,-1
 51 241 l 2,50,51
 51 267 51 267 61 282.5 c 128,-1,52
 71 298 71 298 83.5 306.5 c 128,-1,53
 96 315 96 315 109 318 c 128,-1,54
 122 321 122 321 128 321 c 256,33,34
EndSplineSet
EndChar

StartChar: thumbs-down
Encoding: 128078 128078 162
Width: 512
GlyphClass: 2
Flags: W
LayerCount: 2
Fore
SplineSet
163 188 m 256,0,1
 162 191 162 191 144.5 193.5 c 128,-1,2
 127 196 127 196 106 200 c 128,-1,3
 85 204 85 204 68 211 c 128,-1,4
 51 218 51 218 51 231 c 0,5,6
 51 239 51 239 55 262 c 128,-1,7
 59 285 59 285 66 313 c 128,-1,8
 73 341 73 341 81.5 371.5 c 128,-1,9
 90 402 90 402 99.5 428 c 128,-1,10
 109 454 109 454 118.5 470 c 128,-1,11
 128 486 128 486 137 486 c 0,12,13
 173 486 173 486 212 480 c 128,-1,14
 251 474 251 474 283.5 465 c 128,-1,15
 316 456 316 456 337 443.5 c 128,-1,16
 358 431 358 431 358 419 c 2,17,-1
 358 244 l 2,18,19
 358 234 358 234 345.5 220.5 c 128,-1,20
 333 207 333 207 315 193 c 128,-1,21
 297 179 297 179 277.5 166.5 c 128,-1,22
 258 154 258 154 245 144 c 0,23,24
 221 129 221 129 202 106.5 c 128,-1,25
 183 84 183 84 168 64.5 c 128,-1,26
 153 45 153 45 142.5 32.5 c 128,-1,27
 132 20 132 20 127 27 c 0,28,29
 107 53 107 53 110 79.5 c 128,-1,30
 113 106 113 106 125 129.5 c 128,-1,31
 137 153 137 153 150.5 169 c 128,-1,32
 164 185 164 185 163 188 c 256,0,1
384 190 m 256,33,34
 378 190 378 190 381 193.5 c 128,-1,35
 384 197 384 197 390.5 204 c 128,-1,36
 397 211 397 211 403.5 222 c 128,-1,37
 410 233 410 233 410 251 c 2,38,-1
 410 414 l 2,39,40
 410 430 410 430 403.5 441 c 128,-1,41
 397 452 397 452 390.5 459 c 128,-1,42
 384 466 384 466 381 469 c 128,-1,43
 378 472 378 472 384 472 c 256,44,45
 390 472 390 472 403 469.5 c 128,-1,46
 416 467 416 467 428.5 459.5 c 128,-1,47
 441 452 441 452 451 436 c 128,-1,48
 461 420 461 420 461 394 c 2,49,-1
 461 270 l 2,50,51
 461 243 461 243 451 228 c 128,-1,52
 441 213 441 213 428.5 204.5 c 128,-1,53
 416 196 416 196 403 193 c 128,-1,54
 390 190 390 190 384 190 c 256,33,34
EndSplineSet
EndChar

StartChar: bag
Encoding: 128092 128092 163
Width: 543
GlyphClass: 2
Flags: W
LayerCount: 2
Fore
SplineSet
479 419 m 0,0,1
 485 414 485 414 489.5 406.5 c 128,-1,2
 494 399 494 399 492 388 c 0,3,4
 492 385 492 385 489 369.5 c 128,-1,5
 486 354 486 354 482.5 330 c 128,-1,6
 479 306 479 306 474.5 277 c 128,-1,7
 470 248 470 248 466 217 c 0,8,9
 455 145 455 145 441 56 c 1,10,11
 439 50 439 50 433.5 45.5 c 128,-1,12
 428 41 428 41 422 41 c 2,13,-1
 122 41 l 2,14,15
 115 41 115 41 109 45.5 c 128,-1,16
 103 50 103 50 101 56 c 1,17,18
 88 145 88 145 77 217 c 0,19,20
 72 248 72 248 67.5 277 c 128,-1,21
 63 306 63 306 59.5 330 c 128,-1,22
 56 354 56 354 54 369.5 c 128,-1,23
 52 385 52 385 52 388 c 0,24,25
 50 399 50 399 54 406.5 c 128,-1,26
 58 414 58 414 63 419 c 0,27,28
 66 421 66 421 74 427.5 c 128,-1,29
 82 434 82 434 91 440.5 c 128,-1,30
 100 447 100 447 108.5 454 c 128,-1,31
 117 461 117 461 120 463 c 0,32,33
 126 468 126 468 134 469.5 c 128,-1,34
 142 471 142 471 148 471 c 2,35,-1
 394 471 l 2,36,37
 401 471 401 471 409 469.5 c 128,-1,38
 417 468 417 468 423 463 c 0,39,40
 426 461 426 461 434 454 c 128,-1,41
 442 447 442 447 451.5 440.5 c 128,-1,42
 461 434 461 434 468.5 427.5 c 128,-1,43
 476 421 476 421 479 419 c 0,0,1
271 196 m 256,44,45
 302 196 302 196 322 214.5 c 128,-1,46
 342 233 342 233 353.5 257.5 c 128,-1,47
 365 282 365 282 370 305.5 c 128,-1,48
 375 329 375 329 376 338 c 1,49,-1
 329 338 l 1,50,51
 326 325 326 325 321.5 308 c 128,-1,52
 317 291 317 291 310 276.5 c 128,-1,53
 303 262 303 262 294 252 c 128,-1,54
 285 242 285 242 271 242 c 0,55,56
 259 242 259 242 249.5 252 c 128,-1,57
 240 262 240 262 232.5 276.5 c 128,-1,58
 225 291 225 291 221 308 c 128,-1,59
 217 325 217 325 214 338 c 1,60,-1
 167 338 l 1,61,62
 168 329 168 329 173 305.5 c 128,-1,63
 178 282 178 282 189.5 257.5 c 128,-1,64
 201 233 201 233 220.5 214.5 c 128,-1,65
 240 196 240 196 271 196 c 256,44,45
452 384 m 1,66,-1
 395 443 l 1,67,-1
 147 443 l 1,68,-1
 91 384 l 1,69,-1
 452 384 l 1,66,-1
EndSplineSet
EndChar

StartChar: user
Encoding: 128100 128100 164
Width: 583
GlyphClass: 2
Flags: W
LayerCount: 2
Fore
SplineSet
428 142 m 0,0,1
 476 125 476 125 504 108.5 c 128,-1,2
 532 92 532 92 532 80 c 2,3,-1
 532 26 l 1,4,-1
 292 26 l 1,5,-1
 51 26 l 1,6,-1
 51 80 l 2,7,8
 51 92 51 92 79.5 108.5 c 128,-1,9
 108 125 108 125 156 142 c 256,10,11
 204 159 204 159 221.5 177.5 c 128,-1,12
 239 196 239 196 239 226 c 0,13,14
 239 235 239 235 235.5 240 c 128,-1,15
 232 245 232 245 228 250 c 128,-1,16
 224 255 224 255 219 263 c 128,-1,17
 214 271 214 271 211 289 c 0,18,19
 210 296 210 296 206.5 298 c 128,-1,20
 203 300 203 300 199.5 302 c 128,-1,21
 196 304 196 304 192 310 c 128,-1,22
 188 316 188 316 187 333 c 0,23,24
 187 344 187 344 191 350 c 0,25,26
 193 353 193 353 197 354 c 1,27,28
 196 361 196 361 195 370 c 0,29,30
 194 377 194 377 192.5 384 c 128,-1,31
 191 391 191 391 190 399 c 0,32,33
 189 408 189 408 193 423 c 128,-1,34
 197 438 197 438 208 452 c 128,-1,35
 219 466 219 466 239 476 c 128,-1,36
 259 486 259 486 292 486 c 256,37,38
 325 486 325 486 345.5 476 c 128,-1,39
 366 466 366 466 377 452 c 128,-1,40
 388 438 388 438 391 423.5 c 128,-1,41
 394 409 394 409 393 399 c 0,42,43
 392 391 392 391 391.5 384 c 128,-1,44
 391 377 391 377 390 370 c 0,45,46
 389 362 389 362 387 354 c 1,47,48
 389 353 389 353 391 350 c 0,49,50
 393 348 393 348 394.5 343.5 c 128,-1,51
 396 339 396 339 396 333 c 0,52,53
 395 317 395 317 391.5 310.5 c 128,-1,54
 388 304 388 304 384.5 302 c 128,-1,55
 381 300 381 300 377.5 298 c 128,-1,56
 374 296 374 296 373 289 c 0,57,58
 370 272 370 272 365 263.5 c 128,-1,59
 360 255 360 255 355.5 250 c 128,-1,60
 351 245 351 245 348 240.5 c 128,-1,61
 345 236 345 236 345 226 c 0,62,63
 345 195 345 195 363 177 c 128,-1,64
 381 159 381 159 428 142 c 0,0,1
EndSplineSet
EndChar

StartChar: users
Encoding: 128101 128101 165
Width: 614
GlyphClass: 2
Flags: W
LayerCount: 2
Fore
SplineSet
449 31 m 1,0,-1
 449 108 l 2,1,2
 449 121 449 121 445.5 130.5 c 128,-1,3
 442 140 442 140 432.5 149 c 128,-1,4
 423 158 423 158 404 168.5 c 128,-1,5
 385 179 385 179 354 195 c 1,6,7
 365 203 365 203 370 213 c 128,-1,8
 375 223 375 223 375 238 c 0,9,10
 375 244 375 244 373 247 c 128,-1,11
 371 250 371 250 368.5 253.5 c 128,-1,12
 366 257 366 257 363 262.5 c 128,-1,13
 360 268 360 268 358 281 c 0,14,15
 357 286 357 286 355 287 c 128,-1,16
 353 288 353 288 351 289.5 c 128,-1,17
 349 291 349 291 347 295 c 128,-1,18
 345 299 345 299 344 310 c 0,19,20
 344 319 344 319 347 323 c 0,21,22
 348 325 348 325 350 326 c 1,23,24
 349 331 349 331 348 336 c 256,25,26
 347 341 347 341 346.5 346 c 128,-1,27
 346 351 346 351 346 356 c 0,28,29
 345 362 345 362 347 372.5 c 128,-1,30
 349 383 349 383 355.5 392.5 c 128,-1,31
 362 402 362 402 374.5 409.5 c 128,-1,32
 387 417 387 417 407 417 c 256,33,34
 426 417 426 417 439 409.5 c 128,-1,35
 452 402 452 402 458.5 392.5 c 128,-1,36
 465 383 465 383 467 372.5 c 128,-1,37
 469 362 469 362 468 356 c 0,38,39
 467 351 467 351 467 346 c 128,-1,40
 467 341 467 341 466 336 c 256,41,42
 465 331 465 331 464 326 c 1,43,-1
 467 323 l 2,44,45
 468 321 468 321 469 318 c 128,-1,46
 470 315 470 315 470 310 c 0,47,48
 469 299 469 299 467 295 c 128,-1,49
 465 291 465 291 463 289.5 c 128,-1,50
 461 288 461 288 459 287 c 128,-1,51
 457 286 457 286 456 281 c 0,52,53
 454 269 454 269 451.5 263 c 128,-1,54
 449 257 449 257 446 253.5 c 128,-1,55
 443 250 443 250 441 247 c 128,-1,56
 439 244 439 244 439 238 c 0,57,58
 439 216 439 216 449.5 203.5 c 128,-1,59
 460 191 460 191 489 179 c 0,60,61
 518 168 518 168 534 159 c 128,-1,62
 550 150 550 150 556 138 c 0,63,64
 558 134 558 134 559.5 117 c 128,-1,65
 561 100 561 100 562 81 c 0,66,67
 563 58 563 58 563 31 c 1,68,-1
 449 31 l 1,0,-1
313 165 m 0,69,70
 351 149 351 149 379 133.5 c 128,-1,71
 407 118 407 118 407 101 c 2,72,-1
 407 31 l 1,73,-1
 51 31 l 1,74,-1
 51 125 l 2,75,76
 51 134 51 134 55.5 140 c 128,-1,77
 60 146 60 146 67 151 c 128,-1,78
 74 156 74 156 81 159.5 c 128,-1,79
 88 163 88 163 94 165 c 0,80,81
 133 181 133 181 147.5 197 c 128,-1,82
 162 213 162 213 162 243 c 0,83,84
 162 251 162 251 159.5 255 c 128,-1,85
 157 259 157 259 153.5 263.5 c 128,-1,86
 150 268 150 268 145.5 276.5 c 128,-1,87
 141 285 141 285 139 300 c 0,88,89
 138 306 138 306 135 307.5 c 128,-1,90
 132 309 132 309 129 311 c 128,-1,91
 126 313 126 313 123.5 319 c 128,-1,92
 121 325 121 325 120 340 c 0,93,94
 120 350 120 350 123 355 c 0,95,96
 125 358 125 358 127 359 c 1,97,98
 126 366 126 366 125 374 c 0,99,100
 124 380 124 380 123.5 387 c 128,-1,101
 123 394 123 394 122 401 c 0,102,103
 121 409 121 409 124 423 c 128,-1,104
 127 437 127 437 135.5 450 c 128,-1,105
 144 463 144 463 160.5 472 c 128,-1,106
 177 481 177 481 204 481 c 256,107,108
 231 481 231 481 247 472 c 128,-1,109
 263 463 263 463 272 450 c 128,-1,110
 281 437 281 437 284 423.5 c 128,-1,111
 287 410 287 410 286 401 c 0,112,113
 285 394 285 394 284.5 387 c 128,-1,114
 284 380 284 380 283 374 c 0,115,116
 282 367 282 367 281 359 c 1,117,118
 282 358 282 358 284 355 c 0,119,120
 288 349 288 349 288 340 c 0,121,122
 287 325 287 325 284 319 c 128,-1,123
 281 313 281 313 277.5 311 c 128,-1,124
 274 309 274 309 271.5 307.5 c 128,-1,125
 269 306 269 306 268 300 c 0,126,127
 266 285 266 285 262 276.5 c 128,-1,128
 258 268 258 268 254.5 263.5 c 128,-1,129
 251 259 251 259 248.5 255 c 128,-1,130
 246 251 246 251 246 243 c 0,131,132
 246 213 246 213 260 197 c 128,-1,133
 274 181 274 181 313 165 c 0,69,70
EndSplineSet
EndChar

StartChar: light-bulb
Encoding: 128161 128161 166
Width: 461
GlyphClass: 2
Flags: W
LayerCount: 2
Fore
SplineSet
159 74 m 1,0,-1
 303 74 l 1,1,-1
 303 20 l 1,2,3
 288 11 288 11 270 5 c 128,-1,4
 252 -1 252 -1 230 0 c 1,5,6
 208 -1 208 -1 191 5 c 128,-1,7
 174 11 174 11 159 20 c 1,8,-1
 159 74 l 1,0,-1
162 104 m 1,9,10
 162 146 162 146 143.5 176 c 128,-1,11
 125 206 125 206 103.5 233.5 c 128,-1,12
 82 261 82 261 65.5 291 c 128,-1,13
 49 321 49 321 52 362 c 0,14,15
 54 389 54 389 64.5 415.5 c 128,-1,16
 75 442 75 442 96.5 463.5 c 128,-1,17
 118 485 118 485 150.5 498.5 c 128,-1,18
 183 512 183 512 230 512 c 256,19,20
 277 512 277 512 310.5 498.5 c 128,-1,21
 344 485 344 485 365 463.5 c 128,-1,22
 386 442 386 442 397 415.5 c 128,-1,23
 408 389 408 389 410 362 c 0,24,25
 412 334 412 334 404.5 312.5 c 128,-1,26
 397 291 397 291 385 271.5 c 128,-1,27
 373 252 373 252 358 234 c 128,-1,28
 343 216 343 216 330 196.5 c 128,-1,29
 317 177 317 177 308.5 154.5 c 128,-1,30
 300 132 300 132 300 104 c 1,31,-1
 162 104 l 1,9,10
106 358 m 0,32,33
 104 331 104 331 117.5 309.5 c 128,-1,34
 131 288 131 288 153 258 c 0,35,36
 168 236 168 236 184.5 209.5 c 128,-1,37
 201 183 201 183 210 150 c 1,38,-1
 252 150 l 1,39,40
 260 184 260 184 276.5 210.5 c 128,-1,41
 293 237 293 237 309 258 c 1,42,43
 329 288 329 288 343 310 c 128,-1,44
 357 332 357 332 355 358 c 0,45,46
 351 408 351 408 318.5 433.5 c 128,-1,47
 286 459 286 459 230 459 c 256,48,49
 175 459 175 459 142.5 433.5 c 128,-1,50
 110 408 110 408 106 358 c 0,32,33
EndSplineSet
EndChar

StartChar: new
Encoding: 128165 128165 167
Width: 565
GlyphClass: 2
Flags: W
LayerCount: 2
Fore
SplineSet
505 197 m 2,0,1
 515 189 515 189 513 180 c 128,-1,2
 511 171 511 171 499 168 c 2,3,-1
 459 157 l 2,4,5
 447 154 447 154 438.5 142.5 c 128,-1,6
 430 131 430 131 431 118 c 2,7,-1
 433 76 l 2,8,9
 434 64 434 64 426 58.5 c 128,-1,10
 418 53 418 53 407 58 c 2,11,-1
 362 81 l 2,12,13
 351 87 351 87 338.5 83 c 128,-1,14
 326 79 326 79 321 68 c 2,15,-1
 297 23 l 2,16,17
 291 12 291 12 282 10.5 c 128,-1,18
 273 9 273 9 265 20 c 2,19,-1
 240 60 l 2,20,21
 232 71 232 71 219 74 c 128,-1,22
 206 77 206 77 195 71 c 2,23,-1
 132 35 l 2,24,25
 121 28 121 28 116 32 c 128,-1,26
 111 36 111 36 115 48 c 2,27,-1
 142 132 l 2,28,29
 146 144 146 144 140 154 c 128,-1,30
 134 164 134 164 122 166 c 2,31,-1
 68 172 l 2,32,33
 56 174 56 174 53 181 c 128,-1,34
 50 188 50 188 60 197 c 2,35,-1
 104 236 l 2,36,37
 114 244 114 244 114.5 256.5 c 128,-1,38
 115 269 115 269 104 278 c 2,39,-1
 60 316 l 2,40,41
 50 324 50 324 52 333 c 128,-1,42
 54 342 54 342 67 345 c 2,43,-1
 106 356 l 2,44,45
 118 359 118 359 127 370.5 c 128,-1,46
 136 382 136 382 135 395 c 2,47,-1
 132 437 l 2,48,49
 132 450 132 450 139.5 455.5 c 128,-1,50
 147 461 147 461 159 456 c 2,51,-1
 200 436 l 2,52,53
 212 431 212 431 225 435 c 128,-1,54
 238 439 238 439 244 451 c 2,55,-1
 267 492 l 2,56,57
 273 503 273 503 282.5 502.5 c 128,-1,58
 292 502 292 502 298 490 c 2,59,-1
 324 446 l 2,60,61
 330 435 330 435 341.5 431.5 c 128,-1,62
 353 428 353 428 365 435 c 2,63,-1
 434 478 l 2,64,65
 445 485 445 485 450 481 c 128,-1,66
 455 477 455 477 450 465 c 2,67,-1
 419 378 l 1,68,69
 414 367 414 367 420 357 c 128,-1,70
 426 347 426 347 439 346 c 2,71,-1
 498 340 l 2,72,73
 511 339 511 339 513 332 c 128,-1,74
 515 325 515 325 505 316 c 2,75,-1
 461 278 l 2,76,77
 452 270 452 270 452 257 c 128,-1,78
 452 244 452 244 461 236 c 2,79,-1
 505 197 l 2,0,1
308 203 m 1,80,-1
 257 203 l 1,81,-1
 257 150 l 1,82,-1
 308 150 l 1,83,-1
 308 203 l 1,80,-1
308 365 m 1,84,-1
 257 365 l 1,85,-1
 257 231 l 1,86,-1
 308 231 l 1,87,-1
 308 365 l 1,84,-1
EndSplineSet
EndChar

StartChar: water
Encoding: 128166 128166 168
Width: 583
GlyphClass: 2
Flags: W
LayerCount: 2
Fore
SplineSet
137 509 m 0,0,1
 142 469 142 469 155 443.5 c 128,-1,2
 168 418 168 418 182 397 c 128,-1,3
 196 376 196 376 206.5 356.5 c 128,-1,4
 217 337 217 337 217 309 c 0,5,6
 217 274 217 274 192.5 250.5 c 128,-1,7
 168 227 168 227 134 227 c 256,8,9
 100 227 100 227 75.5 250.5 c 128,-1,10
 51 274 51 274 51 309 c 0,11,12
 51 337 51 337 62 356.5 c 128,-1,13
 73 376 73 376 86.5 397 c 128,-1,14
 100 418 100 418 113 443.5 c 128,-1,15
 126 469 126 469 131 509 c 0,16,17
 132 511 132 511 134.5 511 c 128,-1,18
 137 511 137 511 137 509 c 0,0,1
453 509 m 0,19,20
 458 469 458 469 470.5 443.5 c 128,-1,21
 483 418 483 418 497 397 c 128,-1,22
 511 376 511 376 521.5 356.5 c 128,-1,23
 532 337 532 337 532 309 c 0,24,25
 532 274 532 274 507.5 250.5 c 128,-1,26
 483 227 483 227 450 227 c 256,27,28
 416 227 416 227 391.5 250.5 c 128,-1,29
 367 274 367 274 367 309 c 0,30,31
 367 337 367 337 377.5 356.5 c 128,-1,32
 388 376 388 376 402 397 c 128,-1,33
 416 418 416 418 428.5 443.5 c 128,-1,34
 441 469 441 469 446 509 c 0,35,36
 447 511 447 511 450 511 c 128,-1,37
 453 511 453 511 453 509 c 0,19,20
289 282 m 0,38,39
 290 284 290 284 292.5 284 c 128,-1,40
 295 284 295 284 295 282 c 0,41,42
 300 242 300 242 313 216 c 128,-1,43
 326 190 326 190 339.5 169 c 128,-1,44
 353 148 353 148 364 129 c 128,-1,45
 375 110 375 110 375 82 c 0,46,47
 375 47 375 47 350.5 23.5 c 128,-1,48
 326 0 326 0 292 0 c 256,49,50
 258 0 258 0 233.5 23.5 c 128,-1,51
 209 47 209 47 209 82 c 0,52,53
 209 110 209 110 219.5 129 c 128,-1,54
 230 148 230 148 244 169 c 128,-1,55
 258 190 258 190 271 216 c 128,-1,56
 284 242 284 242 289 282 c 0,38,39
EndSplineSet
EndChar

StartChar: droplet
Encoding: 128167 128167 169
Width: 389
GlyphClass: 2
Flags: W
LayerCount: 2
Fore
SplineSet
200 498 m 0,0,1
 208 430 208 430 230.5 385 c 128,-1,2
 253 340 253 340 277 304 c 128,-1,3
 301 268 301 268 319.5 234 c 128,-1,4
 338 200 338 200 338 153 c 0,5,6
 338 123 338 123 326.5 97 c 128,-1,7
 315 71 315 71 295 52 c 128,-1,8
 275 33 275 33 249 21.5 c 128,-1,9
 223 10 223 10 195 10 c 0,10,11
 165 10 165 10 139.5 21.5 c 128,-1,12
 114 33 114 33 94 52 c 128,-1,13
 74 71 74 71 62.5 97 c 128,-1,14
 51 123 51 123 51 153 c 0,15,16
 51 200 51 200 69.5 234 c 128,-1,17
 88 268 88 268 111.5 304 c 128,-1,18
 135 340 135 340 158 385 c 128,-1,19
 181 430 181 430 189 498 c 0,20,21
 190 503 190 503 195 503 c 128,-1,22
 200 503 200 503 200 498 c 0,0,1
178 297 m 0,23,24
 179 299 179 299 177 304 c 1,25,26
 174 307 174 307 170 307 c 128,-1,27
 166 307 166 307 164 304 c 0,28,29
 159 297 159 297 153.5 290 c 128,-1,30
 148 283 148 283 143 274 c 0,31,32
 126 249 126 249 109 220 c 128,-1,33
 92 191 92 191 92 148 c 0,34,35
 92 136 92 136 101 127.5 c 128,-1,36
 110 119 110 119 122 119 c 0,37,38
 133 119 133 119 142.5 126.5 c 128,-1,39
 152 134 152 134 152 154 c 0,40,41
 152 190 152 190 158.5 221 c 128,-1,42
 165 252 165 252 173 280 c 0,43,44
 175 285 175 285 175.5 289 c 128,-1,45
 176 293 176 293 178 297 c 0,23,24
EndSplineSet
EndChar

StartChar: air
Encoding: 128168 128168 170
Width: 565
GlyphClass: 2
Flags: W
LayerCount: 2
Fore
SplineSet
94 350 m 0,0,1
 86 342 86 342 76 343.5 c 128,-1,2
 66 345 66 345 58 353 c 256,3,4
 51 361 51 361 52 372 c 128,-1,5
 53 383 53 383 61 390 c 0,6,7
 79 405 79 405 100.5 420 c 128,-1,8
 122 435 122 435 149 442 c 128,-1,9
 176 449 176 449 212 442.5 c 128,-1,10
 248 436 248 436 295 410 c 0,11,12
 331 390 331 390 356.5 384.5 c 128,-1,13
 382 379 382 379 402 383 c 128,-1,14
 422 387 422 387 438 399 c 128,-1,15
 454 411 454 411 471 425 c 0,16,17
 479 432 479 432 489.5 431 c 128,-1,18
 500 430 500 430 507 422 c 256,19,20
 514 414 514 414 513 403 c 128,-1,21
 512 392 512 392 504 385 c 0,22,23
 481 365 481 365 453 347 c 128,-1,24
 425 329 425 329 384 329 c 0,25,26
 360 329 360 329 332.5 336.5 c 128,-1,27
 305 344 305 344 270 365 c 0,28,29
 234 385 234 385 208.5 390.5 c 128,-1,30
 183 396 183 396 163 392 c 128,-1,31
 143 388 143 388 126.5 376 c 128,-1,32
 110 364 110 364 94 350 c 0,0,1
471 294 m 0,33,34
 479 301 479 301 489.5 300 c 128,-1,35
 500 299 500 299 507 291 c 256,36,37
 514 283 514 283 513 272 c 128,-1,38
 512 261 512 261 504 254 c 0,39,40
 481 235 481 235 453 216.5 c 128,-1,41
 425 198 425 198 384 198 c 0,42,43
 360 198 360 198 332.5 206 c 128,-1,44
 305 214 305 214 270 233 c 0,45,46
 234 253 234 253 208.5 259 c 128,-1,47
 183 265 183 265 163 261 c 128,-1,48
 143 257 143 257 127 245 c 128,-1,49
 111 233 111 233 94 219 c 0,50,51
 86 212 86 212 76 213 c 128,-1,52
 66 214 66 214 58 222 c 256,53,54
 51 230 51 230 52 241 c 128,-1,55
 53 252 53 252 61 259 c 0,56,57
 79 274 79 274 100.5 289.5 c 128,-1,58
 122 305 122 305 149 311.5 c 128,-1,59
 176 318 176 318 212 312 c 128,-1,60
 248 306 248 306 295 280 c 0,61,62
 331 260 331 260 356.5 254 c 128,-1,63
 382 248 382 248 402 252 c 128,-1,64
 422 256 422 256 438 268 c 128,-1,65
 454 280 454 280 471 294 c 0,33,34
471 163 m 0,66,67
 479 170 479 170 489.5 169 c 128,-1,68
 500 168 500 168 507 160 c 256,69,70
 514 152 514 152 513 141 c 128,-1,71
 512 130 512 130 504 123 c 0,72,73
 481 104 481 104 453 85.5 c 128,-1,74
 425 67 425 67 384 67 c 0,75,76
 360 67 360 67 332.5 75 c 128,-1,77
 305 83 305 83 270 102 c 0,78,79
 234 122 234 122 208.5 128 c 128,-1,80
 183 134 183 134 163 130 c 128,-1,81
 143 126 143 126 127 114 c 128,-1,82
 111 102 111 102 94 88 c 0,83,84
 86 81 86 81 76 82 c 128,-1,85
 66 83 66 83 58 91 c 256,86,87
 51 99 51 99 52 110 c 128,-1,88
 53 121 53 121 61 128 c 0,89,90
 79 143 79 143 100.5 158.5 c 128,-1,91
 122 174 122 174 149 180.5 c 128,-1,92
 176 187 176 187 212 181 c 128,-1,93
 248 175 248 175 295 148 c 0,94,95
 331 128 331 128 356.5 122.5 c 128,-1,96
 382 117 382 117 402 121 c 128,-1,97
 422 125 422 125 438 137 c 128,-1,98
 454 149 454 149 471 163 c 0,66,67
EndSplineSet
EndChar

StartChar: credit-card
Encoding: 128179 128179 171
Width: 614
GlyphClass: 2
Flags: W
LayerCount: 2
Fore
SplineSet
512 435 m 2,0,1
 534 435 534 435 548.5 419.5 c 128,-1,2
 563 404 563 404 563 384 c 2,3,-1
 563 128 l 2,4,5
 563 106 563 106 548.5 91.5 c 128,-1,6
 534 77 534 77 512 77 c 2,7,-1
 102 77 l 2,8,9
 82 77 82 77 66.5 91.5 c 128,-1,10
 51 106 51 106 51 128 c 2,11,-1
 51 384 l 2,12,13
 51 404 51 404 66.5 419.5 c 128,-1,14
 82 435 82 435 102 435 c 2,15,-1
 512 435 l 2,0,1
512 282 m 1,16,-1
 102 282 l 1,17,-1
 102 128 l 1,18,-1
 512 128 l 1,19,-1
 512 282 l 1,16,-1
512 384 m 1,20,-1
 102 384 l 1,21,-1
 102 358 l 1,22,-1
 512 358 l 1,23,-1
 512 384 l 1,20,-1
169 227 m 1,24,-1
 169 212 l 1,25,-1
 154 212 l 1,26,-1
 154 227 l 1,27,-1
 169 227 l 1,24,-1
261 197 m 1,28,-1
 261 212 l 1,29,-1
 276 212 l 1,30,-1
 276 227 l 1,31,-1
 307 227 l 1,32,-1
 307 212 l 1,33,-1
 292 212 l 1,34,-1
 292 197 l 1,35,-1
 276 197 l 1,36,-1
 276 181 l 1,37,-1
 246 181 l 1,38,-1
 246 197 l 1,39,-1
 261 197 l 1,28,-1
292 181 m 1,40,-1
 292 197 l 1,41,-1
 307 197 l 1,42,-1
 307 181 l 1,43,-1
 292 181 l 1,40,-1
200 181 m 1,44,-1
 200 197 l 1,45,-1
 230 197 l 1,46,-1
 230 181 l 1,47,-1
 200 181 l 1,44,-1
246 197 m 1,48,-1
 230 197 l 1,49,-1
 230 227 l 1,50,-1
 261 227 l 1,51,-1
 261 212 l 1,52,-1
 246 212 l 1,53,-1
 246 197 l 1,48,-1
184 181 m 1,54,-1
 154 181 l 1,55,-1
 154 197 l 1,56,-1
 169 197 l 1,57,-1
 169 212 l 1,58,-1
 184 212 l 1,59,-1
 184 227 l 1,60,-1
 215 227 l 1,61,-1
 215 212 l 1,62,-1
 200 212 l 1,63,-1
 200 197 l 1,64,-1
 184 197 l 1,65,-1
 184 181 l 1,54,-1
EndSplineSet
EndChar

StartChar: monitor
Encoding: 128187 128187 172
Width: 614
GlyphClass: 2
Flags: W
LayerCount: 2
Fore
SplineSet
512 481 m 2,0,1
 534 481 534 481 548.5 466 c 128,-1,2
 563 451 563 451 563 430 c 2,3,-1
 563 148 l 2,4,5
 563 126 563 126 548.5 108.5 c 128,-1,6
 534 91 534 91 513 87 c 2,7,-1
 401 65 l 1,8,9
 427 55 427 55 441 47 c 0,10,11
 453 41 453 41 456 36 c 128,-1,12
 459 31 459 31 435 31 c 2,13,-1
 179 31 l 2,14,15
 155 31 155 31 158 36 c 128,-1,16
 161 41 161 41 173 47 c 0,17,18
 187 54 187 54 214 65 c 1,19,-1
 101 87 l 2,20,21
 81 91 81 91 66 109 c 128,-1,22
 51 127 51 127 51 148 c 2,23,-1
 51 430 l 2,24,25
 51 450 51 450 66.5 465.5 c 128,-1,26
 82 481 82 481 102 481 c 2,27,-1
 512 481 l 2,0,1
512 435 m 1,28,-1
 102 435 l 1,29,-1
 102 151 l 1,30,-1
 512 151 l 1,31,-1
 512 435 l 1,28,-1
EndSplineSet
EndChar

StartChar: briefcase
Encoding: 128188 128188 173
Width: 614
GlyphClass: 2
Flags: W
LayerCount: 2
Fore
SplineSet
285 193 m 1,0,-1
 51 193 l 1,1,2
 52 227 52 227 53 255 c 0,3,4
 54 280 54 280 54.5 304.5 c 128,-1,5
 55 329 55 329 56 342 c 0,6,7
 57 368 57 368 68 382.5 c 128,-1,8
 79 397 79 397 108 397 c 2,9,-1
 189 397 l 1,10,11
 199 414 199 414 208 432 c 128,-1,12
 217 450 217 450 220 455 c 0,13,14
 227 467 227 467 232 470.5 c 128,-1,15
 237 474 237 474 251 474 c 2,16,-1
 365 474 l 2,17,18
 379 474 379 474 383.5 470.5 c 128,-1,19
 388 467 388 467 394 455 c 0,20,21
 397 450 397 450 406.5 432.5 c 128,-1,22
 416 415 416 415 425 397 c 1,23,-1
 507 397 l 2,24,25
 536 397 536 397 546.5 382.5 c 128,-1,26
 557 368 557 368 558 342 c 0,27,28
 558 328 558 328 559 303.5 c 128,-1,29
 560 279 560 279 561 254 c 0,30,31
 562 225 562 225 563 193 c 1,32,-1
 331 193 l 1,33,-1
 331 244 l 1,34,-1
 285 244 l 1,35,-1
 285 193 l 1,0,-1
247 425 m 0,36,37
 245 422 245 422 241.5 414.5 c 128,-1,38
 238 407 238 407 232 397 c 1,39,-1
 382 397 l 1,40,41
 377 406 377 406 373.5 414 c 128,-1,42
 370 422 370 422 368 425 c 0,43,44
 363 433 363 433 359.5 435.5 c 128,-1,45
 356 438 356 438 346 438 c 2,46,-1
 268 438 l 2,47,48
 258 438 258 438 255 435.5 c 128,-1,49
 252 433 252 433 247 425 c 0,36,37
331 167 m 1,50,-1
 551 167 l 1,51,52
 550 154 550 154 549 139 c 0,53,54
 548 127 548 127 547.5 111.5 c 128,-1,55
 547 96 547 96 546 82 c 0,56,57
 546 76 546 76 544 68 c 128,-1,58
 542 60 542 60 537 54 c 128,-1,59
 532 48 532 48 523.5 43.5 c 128,-1,60
 515 39 515 39 500 39 c 2,61,-1
 116 39 l 2,62,63
 101 39 101 39 91.5 43.5 c 128,-1,64
 82 48 82 48 77.5 54 c 128,-1,65
 73 60 73 60 71.5 68 c 128,-1,66
 70 76 70 76 70 82 c 0,67,68
 69 96 69 96 68.5 111.5 c 128,-1,69
 68 127 68 127 67 139 c 0,70,71
 66 153 66 153 65 167 c 1,72,-1
 285 167 l 1,73,-1
 285 116 l 1,74,-1
 331 116 l 1,75,-1
 331 167 l 1,50,-1
EndSplineSet
EndChar

StartChar: save
Encoding: 128190 128190 174
Width: 512
GlyphClass: 2
Flags: W
LayerCount: 2
Fore
SplineSet
461 381 m 1,0,-1
 461 102 l 2,1,2
 461 82 461 82 446 66.5 c 128,-1,3
 431 51 431 51 410 51 c 2,4,-1
 102 51 l 2,5,6
 82 51 82 51 66.5 66.5 c 128,-1,7
 51 82 51 82 51 102 c 2,8,-1
 51 410 l 2,9,10
 51 432 51 432 66.5 446.5 c 128,-1,11
 82 461 82 461 102 461 c 2,12,-1
 388 461 l 1,13,-1
 461 381 l 1,0,-1
358 435 m 1,14,-1
 154 435 l 1,15,-1
 154 307 l 2,16,17
 154 297 154 297 161 289.5 c 128,-1,18
 168 282 168 282 179 282 c 2,19,-1
 333 282 l 2,20,21
 344 282 344 282 351 289.5 c 128,-1,22
 358 297 358 297 358 307 c 2,23,-1
 358 435 l 1,14,-1
333 307 m 1,24,-1
 282 307 l 1,25,-1
 282 410 l 1,26,-1
 333 410 l 1,27,-1
 333 307 l 1,24,-1
EndSplineSet
EndChar

StartChar: cd
Encoding: 128191 128191 175
Width: 573
GlyphClass: 2
Flags: W
LayerCount: 2
Fore
SplineSet
287 492 m 256,0,1
 336 492 336 492 378.5 473.5 c 128,-1,2
 421 455 421 455 453 422.5 c 128,-1,3
 485 390 485 390 503.5 347.5 c 128,-1,4
 522 305 522 305 522 256 c 256,5,6
 522 207 522 207 503.5 164.5 c 128,-1,7
 485 122 485 122 453 89.5 c 128,-1,8
 421 57 421 57 378.5 38.5 c 128,-1,9
 336 20 336 20 287 20 c 256,10,11
 238 20 238 20 195.5 38.5 c 128,-1,12
 153 57 153 57 120.5 89.5 c 128,-1,13
 88 122 88 122 69.5 164.5 c 128,-1,14
 51 207 51 207 51 256 c 256,15,16
 51 305 51 305 69.5 347.5 c 128,-1,17
 88 390 88 390 120.5 422.5 c 128,-1,18
 153 455 153 455 195.5 473.5 c 128,-1,19
 238 492 238 492 287 492 c 256,0,1
287 179 m 0,20,21
 320 179 320 179 342 201.5 c 128,-1,22
 364 224 364 224 364 256 c 0,23,24
 364 289 364 289 341.5 311 c 128,-1,25
 319 333 319 333 287 333 c 0,26,27
 255 333 255 333 232.5 311 c 128,-1,28
 210 289 210 289 210 256 c 0,29,30
 210 224 210 224 232.5 201.5 c 128,-1,31
 255 179 255 179 287 179 c 0,20,21
EndSplineSet
EndChar

StartChar: folder
Encoding: 128193 128193 176
Width: 616
GlyphClass: 2
Flags: W
LayerCount: 2
Fore
SplineSet
541 333 m 2,0,1
 558 333 558 333 561.5 325.5 c 128,-1,2
 565 318 565 318 564 308 c 2,3,-1
 543 77 l 2,4,5
 542 67 542 67 537 59 c 128,-1,6
 532 51 532 51 515 51 c 2,7,-1
 102 51 l 2,8,9
 85 51 85 51 80 59 c 128,-1,10
 75 67 75 67 74 77 c 2,11,-1
 52 308 l 2,12,13
 51 318 51 318 54.5 325.5 c 128,-1,14
 58 333 58 333 76 333 c 2,15,-1
 541 333 l 2,0,1
528 369 m 1,16,-1
 95 369 l 1,17,-1
 102 436 l 2,18,19
 104 446 104 446 112 453.5 c 128,-1,20
 120 461 120 461 131 461 c 2,21,-1
 215 461 l 2,22,23
 226 461 226 461 238.5 456.5 c 128,-1,24
 251 452 251 452 259 443 c 2,25,-1
 274 428 l 2,26,27
 281 420 281 420 294 415 c 128,-1,28
 307 410 307 410 318 410 c 2,29,-1
 493 410 l 2,30,31
 504 410 504 410 512.5 403.5 c 128,-1,32
 521 397 521 397 523 389 c 2,33,-1
 528 369 l 1,16,-1
EndSplineSet
EndChar

